<?xml version="1.0" standalone="no"?>
<!DOCTYPE svg PUBLIC "-//W3C//DTD SVG 1.1//EN" "http://www.w3.org/Graphics/SVG/1.1/DTD/svg11.dtd" >
<svg xmlns="http://www.w3.org/2000/svg" xmlns:xlink="http://www.w3.org/1999/xlink" version="1.1">
<metadata>
Created by FontForge 20161116 at Mon May 17 14:31:34 2004
 By Jimmy Warting
Copyright (c) 1990-1996 ParaGraph
</metadata>
<defs>
<font id="SchoolBookC" horiz-adv-x="580" >
  <font-face 
    font-family="SchoolBookC"
    font-weight="400"
    font-stretch="normal"
    units-per-em="1000"
    panose-1="0 0 5 0 0 0 0 0 0 0"
    ascent="776"
    descent="-224"
    x-height="456"
    cap-height="680"
    bbox="-459 -224 1251 875"
    underline-thickness="50"
    underline-position="-100"
    stemh="44"
    stemv="86"
    unicode-range="U+0020-2122"
  />
<missing-glyph horiz-adv-x="233" 
 />
    <glyph glyph-name=".notdef" horiz-adv-x="233" 
 />
    <glyph glyph-name="space" unicode=" " horiz-adv-x="233" 
 />
    <glyph glyph-name="space" unicode="&#xa0;" horiz-adv-x="233" 
 />
    <glyph glyph-name="exclam" unicode="!" horiz-adv-x="263" 
d="M116 173l-9 138c-11 166 -35 177 -50 269c-3 20 -5 41 0 62c12 50 45 64 75 64s63 -14 75 -64c5 -21 3 -42 0 -62c-15 -92 -39 -103 -50 -269l-9 -138h-32zM207 62c0 -43 -34 -76 -75 -76c-42 0 -76 34 -76 76c0 41 33 75 76 75c41 0 75 -34 75 -75z" />
    <glyph glyph-name="quotedbl" unicode="&#x22;" horiz-adv-x="526" 
d="M235 742l-42 -182h-56l-42 182h140zM431 742l-42 -182h-56l-42 182h140z" />
    <glyph glyph-name="numbersign" unicode="#" horiz-adv-x="830" 
d="M505 10h-57l30 167h-184l-30 -167h-57l30 167h-153l11 64h153l36 199h-153l11 64h153l29 166h58l-30 -166h184l29 166h58l-30 -166h153l-11 -64h-153l-36 -199h153l-11 -64h-153zM489 241l36 199h-184l-36 -199h184z" />
    <glyph glyph-name="dollar" unicode="$" horiz-adv-x="702" 
d="M586 680v-223h-35c-15 68 -58 181 -176 193v-252c155 -25 242 -80 242 -197c0 -146 -135 -215 -242 -215v-118h-45v118c-75 5 -124 23 -176 76l-26 -62h-44v254h35c24 -124 85 -213 211 -224v270c-116 41 -219 74 -219 195c0 132 114 196 219 199v65h45v-65
c46 -6 97 -25 134 -54l42 40h35zM330 407v243c-108 -8 -148 -65 -148 -121c0 -86 111 -115 148 -122zM375 290v-260c118 3 176 83 176 135c0 49 -59 115 -176 125z" />
    <glyph glyph-name="percent" unicode="%" horiz-adv-x="1053" 
d="M84 517c0 93 64 177 147 177s147 -84 147 -177s-64 -177 -147 -177s-147 84 -147 177zM148 517c0 -146 63 -157 83 -157c18 0 83 11 83 157c0 104 -35 157 -83 157c-45 0 -83 -45 -83 -157zM649 717l39 -23l-417 -743l-40 20zM559 164c0 91 63 177 147 177
s147 -86 147 -177c0 -92 -64 -178 -147 -178s-147 86 -147 178zM622 164c0 -95 31 -157 84 -157c48 0 83 53 83 157c0 113 -40 156 -83 156c-38 0 -84 -35 -84 -156z" />
    <glyph glyph-name="ampersand" unicode="&#x26;" horiz-adv-x="798" 
d="M728 138l36 -15c-29 -60 -65 -137 -133 -137c-49 0 -112 32 -154 71c-66 -46 -125 -71 -205 -71c-139 0 -233 83 -233 193c0 98 79 176 168 217c-20 40 -30 68 -30 104c0 119 95 194 190 194c92 0 136 -68 136 -124c0 -96 -86 -133 -188 -177c45 -75 127 -176 196 -237
c31 33 63 87 63 135c0 40 -30 42 -51 42h-26v45h237v-45c-56 -4 -80 -7 -101 -48s-30 -99 -88 -162c29 -26 74 -58 105 -58c36 0 54 34 78 73zM231 352c-71 -52 -71 -119 -71 -149c0 -84 87 -146 155 -146c17 0 76 5 122 36c-47 41 -127 119 -206 259zM292 436
c65 18 143 68 143 140c0 55 -45 71 -78 71c-38 0 -101 -31 -101 -104c0 -32 11 -63 36 -107z" />
    <glyph glyph-name="quotesingle" unicode="'" horiz-adv-x="330" 
d="M235 742l-42 -182h-56l-42 182h140z" />
    <glyph glyph-name="parenleft" unicode="(" horiz-adv-x="350" 
d="M297 -153v-43c-261 141 -258 366 -258 448c0 108 24 325 258 448v-43c-93 -65 -132 -172 -132 -405c0 -195 0 -309 132 -405z" />
    <glyph glyph-name="parenright" unicode=")" horiz-adv-x="350" 
d="M53 -196v43c132 96 132 210 132 405c0 233 -39 340 -132 405v43c234 -123 258 -340 258 -448c0 -82 3 -307 -258 -448z" />
    <glyph glyph-name="asterisk" unicode="*" horiz-adv-x="531" 
d="M285 428c-17 0 -36 -34 -40 -61c-5 -32 2 -83 -37 -104c-7 -4 -16 -7 -24 -7c-28 0 -53 23 -53 52c0 53 57 67 79 78c20 10 50 41 50 58c0 19 -27 23 -45 26c-8 1 -17 1 -25 0c-35 -5 -31 -10 -55 -12h-15c-41 3 -53 36 -53 56c0 30 26 54 55 54c33 0 54 -33 69 -51
c21 -26 50 -40 63 -40c15 0 21 6 23 18c1 5 0 11 0 16c-1 17 -2 32 -17 59c-10 17 -28 43 -28 69c0 20 15 55 53 55s53 -35 53 -55c0 -26 -18 -52 -28 -69c-15 -27 -16 -42 -17 -59c0 -5 -1 -11 0 -16c2 -12 8 -18 23 -18c13 0 42 14 63 40c15 18 36 51 69 51
c29 0 55 -24 55 -54c0 -20 -12 -53 -53 -56h-15c-24 2 -20 7 -55 12c-8 1 -17 1 -25 0c-18 -3 -45 -7 -45 -26c0 -17 30 -48 50 -58c22 -11 79 -25 79 -78c0 -35 -38 -66 -77 -45s-32 72 -37 104c-4 27 -23 61 -40 61z" />
    <glyph glyph-name="plus" unicode="+" horiz-adv-x="698" 
d="M49 340h276v276h48v-276h276v-48h-276v-276h-48v276h-276v48z" />
    <glyph glyph-name="comma" unicode="," horiz-adv-x="352" 
d="M121 -148l-21 31c26 15 84 72 84 104c0 70 -93 -8 -93 86c0 36 31 67 81 67c54 0 89 -48 89 -103c0 -65 -53 -137 -140 -185z" />
    <glyph glyph-name="hyphenminus" horiz-adv-x="351" 
d="M62 267v73h227v-73h-227z" />
    <glyph glyph-name="period" unicode="." horiz-adv-x="347" 
d="M98 62c0 41 33 75 75 75c40 0 76 -34 76 -75c0 -43 -36 -76 -76 -76c-43 0 -75 34 -75 76z" />
    <glyph glyph-name="slash" unicode="/" horiz-adv-x="500" 
d="M88 -196l-40 16l362 860l42 -17z" />
    <glyph glyph-name="zero" unicode="0" 
d="M290 -14c-144 0 -246 142 -246 354s102 354 246 354s246 -142 246 -354s-102 -354 -246 -354zM290 33c122 0 120 194 120 307c0 132 -4 307 -120 307s-120 -175 -120 -307c0 -135 4 -307 120 -307z" />
    <glyph glyph-name="one" unicode="1" 
d="M354 694v-600c0 -22 -4 -47 49 -47h82v-47h-374v47h82c53 0 49 25 49 47v446c0 6 0 30 -33 30h-104v47c81 4 149 20 205 77h44z" />
    <glyph glyph-name="two" unicode="2" horiz-adv-x="579" 
d="M460 213h42v-213h-439v40c116 281 338 247 338 479c0 89 -57 128 -115 128c-83 0 -127 -61 -127 -91c0 -12 12 -10 22 -11c30 -2 50 -28 50 -57c0 -32 -21 -67 -63 -67c-44 0 -77 32 -77 88c0 86 79 185 217 185c99 0 208 -47 208 -186c0 -156 -136 -208 -244 -295
c-101 -82 -112 -121 -114 -127h194c50 0 108 0 108 109v18z" />
    <glyph glyph-name="three" unicode="3" 
d="M185 333v44h18c43 0 192 8 192 147c0 114 -100 123 -115 123c-67 0 -111 -35 -111 -50c0 -7 12 -11 20 -16c26 -16 28 -43 28 -61c0 -15 -13 -53 -61 -53c-36 0 -71 24 -71 65c0 95 93 162 201 162c150 0 221 -94 221 -170c0 -86 -77 -145 -155 -160v-6
c85 -10 169 -70 169 -174c0 -126 -123 -198 -246 -198c-133 0 -216 84 -216 153c0 74 37 113 83 113c36 0 71 -26 71 -74c0 -26 -19 -44 -41 -51c-10 -3 -31 -7 -31 -23c0 -28 62 -71 125 -71c65 0 129 43 129 148c0 148 -116 152 -182 152h-28z" />
    <glyph glyph-name="four" unicode="4" horiz-adv-x="579" 
d="M527 222v-47h-105v-100c0 -16 10 -28 27 -28h78v-47h-319v47h75c17 0 27 12 27 28v100h-268v47l342 472h38v-472h105zM310 518l-215 -296h215v296z" />
    <glyph glyph-name="five" unicode="5" 
d="M453 694h36c-60 -109 -156 -136 -278 -136c-13 0 -25 1 -38 3l-15 -161c41 43 97 53 143 53c109 0 222 -90 222 -233c0 -134 -102 -234 -246 -234c-103 0 -189 61 -200 150c-1 10 -1 20 0 30c7 46 42 68 71 68c34 0 69 -23 69 -69c0 -18 -10 -33 -26 -45
c-17 -12 -32 -12 -32 -31c0 -36 60 -56 103 -56c129 0 135 143 135 188c0 97 -22 185 -123 185c-119 0 -118 -96 -153 -96c-8 0 -19 7 -19 25c0 9 5 19 9 33c6 18 8 34 10 56l25 270h36c6 -23 21 -46 108 -46c53 0 102 6 163 46z" />
    <glyph glyph-name="six" unicode="6" horiz-adv-x="581" 
d="M174 391h6c49 60 112 61 140 61c130 0 208 -96 208 -236c0 -153 -133 -230 -234 -230c-103 0 -241 89 -241 292c0 190 79 416 278 416c99 0 164 -48 164 -109c0 -29 -15 -69 -68 -69c-33 0 -57 27 -57 61c0 45 20 28 20 56c0 6 -15 13 -37 14h-16
c-86 -5 -159 -69 -163 -256zM179 227c0 -170 76 -194 113 -194c27 0 110 12 110 188c0 168 -75 184 -105 184c-46 0 -118 -37 -118 -178z" />
    <glyph glyph-name="seven" unicode="7" 
d="M137 435h-42l33 259c34 -11 45 -14 75 -14h259c13 0 26 4 39 9c9 4 17 8 26 8c14 0 18 -12 18 -19c0 -16 -17 -30 -41 -67c-9 -13 -18 -27 -27 -41c-21 -33 -39 -68 -56 -103l-30 -63c-12 -26 -23 -53 -32 -81c-7 -21 -11 -43 -15 -65c-2 -15 -5 -30 -5 -45s0 -31 1 -46
c1 -9 1 -17 2 -26c1 -10 3 -20 4 -30c3 -20 4 -39 4 -59c0 -57 -36 -66 -52 -66c-58 0 -73 68 -73 135c0 14 3 28 5 42c4 22 10 43 17 64c11 32 24 62 39 92c17 34 36 66 55 99c7 11 13 23 20 34c6 9 11 18 17 27l33 54c7 11 14 22 20 33c2 4 4 9 6 13v6h-220
c-72 0 -57 -29 -80 -150z" />
    <glyph glyph-name="eight" unicode="8" horiz-adv-x="579" 
d="M372 373v-5c156 -48 162 -145 162 -183c0 -81 -75 -199 -257 -199c-115 0 -232 57 -232 171c0 110 85 165 155 184v6c-90 48 -132 94 -132 169c0 85 74 178 218 178c135 0 209 -79 209 -155c0 -88 -56 -121 -123 -166zM154 545c0 -65 80 -123 162 -139
c66 34 98 85 98 127c0 50 -35 114 -127 114c-78 0 -133 -45 -133 -102zM137 157c0 -48 40 -124 150 -124c103 0 150 59 150 121c0 98 -94 139 -183 163c-65 -27 -117 -89 -117 -160z" />
    <glyph glyph-name="nine" unicode="9" horiz-adv-x="582" 
d="M408 289h-6c-34 -41 -80 -61 -141 -61c-104 0 -208 78 -208 226c0 140 110 240 235 240c105 0 241 -88 241 -292c0 -186 -80 -416 -278 -416c-99 0 -164 46 -164 110c0 37 23 68 68 68c37 0 57 -28 57 -61c0 -31 -20 -44 -20 -55c0 -4 5 -15 52 -15c37 0 159 16 164 256z
M403 453c0 170 -80 194 -113 194c-26 0 -111 -14 -111 -188c0 -139 56 -184 105 -184s119 38 119 178z" />
    <glyph glyph-name="colon" unicode=":" horiz-adv-x="347" 
d="M98 62c0 42 33 75 75 75c43 0 76 -34 76 -75c0 -42 -34 -76 -76 -76c-41 0 -75 33 -75 76zM98 409c0 42 33 75 75 75c43 0 76 -34 76 -75c0 -40 -33 -76 -76 -76c-41 0 -75 33 -75 76z" />
    <glyph glyph-name="semicolon" unicode=";" horiz-adv-x="352" 
d="M99 398c0 41 33 75 75 75c40 0 76 -34 76 -75c0 -43 -36 -76 -76 -76c-43 0 -75 34 -75 76zM120 -148l-21 31c33 19 84 73 84 104c0 66 -92 -7 -92 86c0 29 23 67 81 67c65 0 89 -62 89 -101c0 -66 -58 -141 -141 -187z" />
    <glyph glyph-name="less" unicode="&#x3c;" horiz-adv-x="697" 
d="M43 315l599 255l12 -31l-509 -224l509 -223l-12 -32z" />
    <glyph glyph-name="equal" unicode="=" horiz-adv-x="698" 
d="M49 410h600v-48h-600v48zM49 270h600v-48h-600v48z" />
    <glyph glyph-name="greater" unicode="&#x3e;" horiz-adv-x="697" 
d="M654 315l-599 -255l-12 32l509 223l-509 224l12 31z" />
    <glyph glyph-name="question" unicode="?" horiz-adv-x="525" 
d="M259 174h-44v13c0 242 127 186 127 359c0 57 -35 115 -100 115c-44 0 -89 -25 -89 -47c0 -79 52 4 52 -83c0 -33 -33 -55 -63 -55c-24 0 -72 14 -72 82c0 66 70 143 177 143c132 0 208 -79 208 -170c0 -72 -50 -120 -100 -169c-67 -67 -100 -113 -96 -188zM313 62
c0 -42 -34 -76 -76 -76c-41 0 -75 33 -75 76c0 41 34 75 75 75c43 0 76 -34 76 -75z" />
    <glyph glyph-name="at" unicode="@" horiz-adv-x="939" 
d="M736 568l-83 -275c-14 -46 -19 -70 -19 -84c0 -54 34 -64 48 -64c62 0 194 84 194 269c0 222 -180 356 -398 356c-236 0 -401 -201 -401 -418c0 -206 155 -422 404 -422c152 0 241 66 270 92l22 -28c-119 -89 -216 -99 -289 -99c-283 0 -456 236 -456 458
c0 213 160 452 448 452c240 0 435 -153 435 -391c0 -179 -109 -304 -239 -304c-72 0 -105 42 -118 63c-42 -33 -84 -53 -141 -53c-101 0 -161 82 -161 189c0 150 117 277 267 277c26 0 76 -5 119 -65l15 47h83zM546 218l68 240c-10 56 -48 96 -97 96
c-77 0 -168 -107 -168 -253c0 -78 11 -145 85 -145c53 0 91 33 112 62z" />
    <glyph glyph-name="A" unicode="A" horiz-adv-x="784" 
d="M0 0v47h12c48 0 87 22 110 76l242 571h56l244 -568c24 -56 54 -78 120 -79v-47h-331v47l45 -1c57 -1 65 27 56 49l-49 117h-284l-28 -71c-4 -9 -8 -20 -8 -33c0 -31 21 -61 70 -61h28v-47h-283zM240 259h244l-122 286h-5z" />
    <glyph glyph-name="B" unicode="B" horiz-adv-x="703" 
d="M36 680h334c198 0 260 -98 260 -168c0 -69 -51 -133 -144 -156v-6c111 -10 186 -81 186 -175c0 -66 -46 -175 -256 -175h-380v47h58c53 0 49 25 49 47v492c0 22 4 47 -49 47h-58v47zM255 372h112c40 0 148 5 148 128c0 94 -75 133 -146 133h-65c-53 0 -49 -25 -49 -47
v-214zM255 325v-231c0 -22 -4 -47 49 -47h70c49 0 172 5 172 134c0 97 -72 144 -172 144h-119z" />
    <glyph glyph-name="C" unicode="C" horiz-adv-x="658" 
d="M572 233h50c-36 -218 -173 -247 -263 -247c-223 0 -323 185 -323 368c0 174 113 340 314 340c92 0 146 -35 172 -54l25 40h46l15 -244h-48c-29 136 -87 211 -205 211c-102 0 -193 -74 -193 -290c0 -57 4 -324 206 -324c142 0 192 125 204 200z" />
    <glyph glyph-name="D" unicode="D" horiz-adv-x="754" 
d="M36 0l1 47h58c53 0 49 25 49 47v492c0 22 4 47 -49 47h-58v47h311c103 0 375 -15 375 -340c0 -344 -315 -340 -375 -340h-312zM256 590v-496c0 -22 -4 -47 49 -47h29c93 0 263 20 263 292c0 275 -172 294 -263 294h-37c-48 0 -41 -18 -41 -43z" />
    <glyph glyph-name="E" unicode="E" horiz-adv-x="678" 
d="M636 435h-49c-19 145 -89 198 -177 198h-106c-53 0 -49 -25 -49 -47v-219h63c64 0 98 30 98 107v24h49v-312h-49v20c0 43 -13 114 -95 114h-66v-226c0 -22 -4 -47 49 -47h125c130 0 158 136 158 197v18h49v-262h-600v47h58c53 0 49 25 49 47v492c0 22 4 47 -49 47h-58v47
h600v-245z" />
    <glyph glyph-name="F" unicode="F" horiz-adv-x="638" 
d="M616 680v-245h-48c-21 169 -110 198 -163 198h-101c-53 0 -49 -25 -49 -47v-211h36c80 0 97 39 101 131h50v-308h-50c-4 85 -16 130 -101 130h-36v-234c0 -22 -4 -47 49 -47h58v-47h-326v47h58c53 0 49 25 49 47v492c0 22 4 47 -49 47h-58v47h580z" />
    <glyph glyph-name="G" unicode="G" horiz-adv-x="748" 
d="M558 680h35l15 -261h-51c-5 43 -20 89 -42 126c-32 52 -88 102 -167 102c-101 0 -191 -99 -191 -310c0 -131 44 -304 199 -304c98 0 149 68 149 140v46c0 26 -4 42 -28 42h-82v47h322v-47h-73c-14 0 -27 -6 -27 -28v-233h-47l-35 69c-51 -64 -117 -83 -195 -83
c-187 0 -309 143 -309 355c0 201 138 353 316 353c79 0 111 -20 177 -66z" />
    <glyph glyph-name="H" unicode="H" horiz-adv-x="826" 
d="M571 382v204c0 22 4 47 -49 47h-58v47h326v-47h-58c-53 0 -49 -25 -49 -47v-492c0 -22 -4 -47 49 -47h58v-47h-326v47h58c53 0 49 25 49 47v241h-316v-241c0 -22 -4 -47 49 -47h58v-47h-326v47h58c53 0 49 25 49 47v492c0 22 4 47 -49 47h-58v47h326v-47h-58
c-53 0 -49 -25 -49 -47v-204h316z" />
    <glyph glyph-name="I" unicode="I" horiz-adv-x="398" 
d="M36 0v47h58c53 0 49 25 49 47v492c0 22 4 47 -49 47h-58v47h326v-47h-58c-53 0 -49 -25 -49 -47v-492c0 -22 -4 -47 49 -47h58v-47h-326z" />
    <glyph glyph-name="J" unicode="J" horiz-adv-x="589" 
d="M232 680h326v-47h-58c-53 0 -49 -25 -49 -47v-342c0 -82 -5 -148 -64 -202c-54 -49 -119 -56 -155 -56c-141 0 -210 87 -210 164c0 60 39 114 108 114c43 0 71 -27 71 -67c0 -44 -35 -66 -65 -66c-12 0 -23 2 -35 2c-14 0 -13 -11 -13 -24c0 -9 5 -16 10 -23
c16 -23 50 -53 111 -53c113 0 130 83 130 133v420c0 22 4 47 -49 47h-58v47z" />
    <glyph glyph-name="K" unicode="K" horiz-adv-x="813" 
d="M36 680h326v-47h-58c-53 0 -49 -25 -49 -47v-267h6l247 259c14 15 17 24 17 32c0 5 0 23 -38 23h-50v47h290v-47h-16c-74 0 -111 -37 -131 -59l-146 -155l223 -310c29 -40 62 -62 109 -62h16v-47h-335v47h68c12 0 27 6 27 20c0 7 -3 14 -10 24l-177 244l-100 -106v-135
c0 -22 -4 -47 49 -47h58v-47h-326v47h58c53 0 49 25 49 47v492c0 22 4 47 -49 47h-58v47z" />
    <glyph glyph-name="L" unicode="L" horiz-adv-x="646" 
d="M36 680h326v-47h-58c-53 0 -49 -25 -49 -47v-511c0 -28 33 -28 44 -28h88c54 0 175 21 184 209h53v-256h-588v47h58c53 0 49 25 49 47v492c0 22 4 47 -49 47h-58v47z" />
    <glyph glyph-name="M" unicode="M" horiz-adv-x="923" 
d="M280 680l181 -492h6l165 492h255v-47h-58c-53 0 -49 -25 -49 -47v-492c0 -22 -4 -47 49 -47h58v-47h-326v47h58c53 0 49 25 49 47v519h-6l-204 -613h-26l-229 613h-6v-479c0 -70 29 -87 94 -87h14v-47h-269v47h15c49 0 93 12 93 87v452c0 22 4 47 -49 47h-58v47h243z" />
    <glyph glyph-name="N" unicode="N" horiz-adv-x="815" 
d="M619 185v401c0 22 4 47 -49 47h-58v47h267v-47h-58c-53 0 -49 -25 -49 -47v-600h-50l-420 539h-6v-431c0 -22 -4 -47 49 -47h58v-47h-267v47h58c53 0 49 25 49 47v492c0 22 4 47 -49 47h-58v47h189l387 -495h7z" />
    <glyph glyph-name="O" unicode="O" horiz-adv-x="704" 
d="M352 694c211 0 321 -199 321 -354c0 -154 -110 -354 -321 -354s-321 200 -321 354c0 155 110 354 321 354zM352 33c101 0 195 92 195 307c0 212 -95 307 -195 307s-195 -95 -195 -307c0 -215 94 -307 195 -307z" />
    <glyph glyph-name="P" unicode="P" horiz-adv-x="686" 
d="M255 292v-198c0 -22 -4 -47 49 -47h58v-47h-326v47h58c53 0 49 25 49 47v492c0 22 4 47 -49 47h-58v47h285c150 0 329 -27 329 -194c0 -58 -32 -194 -286 -194h-109zM255 339h95c37 0 174 8 174 147c0 70 -37 147 -187 147h-53c-28 0 -29 -25 -29 -33v-261z" />
    <glyph glyph-name="Q" unicode="Q" horiz-adv-x="708" 
d="M629 -31h48c-3 -53 -27 -137 -124 -137c-78 0 -108 40 -121 167c-23 -6 -55 -13 -78 -13c-128 0 -323 112 -323 361c0 197 143 347 323 347s323 -150 323 -347c0 -119 -53 -245 -152 -308c10 -62 1 -147 53 -147c27 0 48 31 51 77zM497 119h4c39 70 50 144 50 227
c0 275 -146 301 -196 301c-81 0 -198 -60 -198 -301c0 -80 15 -161 51 -221h6c-4 67 49 127 122 127c76 0 141 -52 161 -133zM428 53c-4 128 -60 152 -98 152c-44 0 -77 -35 -77 -84c0 -51 37 -88 93 -88c20 0 51 0 82 20z" />
    <glyph glyph-name="R" unicode="R" horiz-adv-x="776" 
d="M36 680h357c201 0 285 -80 285 -169c0 -73 -56 -152 -220 -168v-8c101 -20 123 -89 134 -135c15 -63 19 -130 60 -130c39 0 43 45 42 94h51v-23c0 -54 -13 -155 -123 -155c-101 0 -126 70 -146 197c-8 54 -12 147 -142 147h-79v-236c0 -22 -4 -47 49 -47h58v-47h-326v47
h58c53 0 49 25 49 47v492c0 22 4 47 -49 47h-58v47zM255 377h92c44 0 190 2 190 133c0 120 -131 123 -156 123h-82c-43 0 -44 -20 -44 -39v-217z" />
    <glyph glyph-name="S" unicode="S" horiz-adv-x="592" 
d="M517 680v-245h-48c-25 168 -110 212 -192 212c-124 0 -151 -64 -151 -115c0 -90 97 -112 196 -135c113 -26 239 -57 239 -207c0 -193 -194 -204 -239 -204c-91 0 -132 15 -208 64l-35 -64h-48v289h48c17 -101 81 -242 241 -242c133 0 155 76 155 122
c0 103 -118 117 -171 127c-207 40 -262 135 -262 245c0 109 105 167 236 167c40 0 111 -11 167 -67l28 53h44z" />
    <glyph glyph-name="T" unicode="T" horiz-adv-x="660" 
d="M36 680h588v-262h-50c-4 167 -95 222 -155 222c-24 0 -33 -8 -33 -33v-513c0 -22 -4 -47 49 -47h58v-47h-326v47h58c53 0 49 25 49 47v513c0 28 -13 33 -33 33c-60 0 -151 -54 -155 -222h-50v262z" />
    <glyph glyph-name="U" unicode="U" horiz-adv-x="794" 
d="M31 680h328v-47h-65c-30 0 -43 -8 -43 -29v-396c0 -157 91 -175 166 -175c176 0 184 129 184 190v304c0 95 -47 106 -97 106h-13v47h272v-47h-20c-43 0 -89 -11 -89 -106v-305c0 -43 -6 -236 -243 -236c-246 0 -272 151 -272 239v365c0 33 -5 43 -42 43h-66v47z" />
    <glyph glyph-name="V" unicode="V" horiz-adv-x="729" 
d="M392 121l135 390c7 21 14 41 19 67c2 10 3 20 0 30c-7 22 -27 25 -44 25h-29v47h234v-47h-14c-77 0 -100 -51 -118 -104l-189 -543h-45l-198 570c-24 69 -52 77 -91 77h-30v47h279v-47h-43c-12 0 -33 -2 -33 -23c0 -10 3 -20 9 -36z" />
    <glyph glyph-name="W" unicode="W" horiz-adv-x="1086" 
d="M380 161h6l127 395l-7 22c-16 52 -48 55 -98 55h-15v47h298v-47h-48c-35 0 -40 -14 -36 -26l142 -446h6l121 365c6 18 14 39 14 58c0 50 -45 49 -71 49h-26v47h271v-47h-21c-76 0 -94 -58 -104 -88l-187 -559h-44l-161 490h-5l-164 -490h-46l-202 588
c-16 48 -32 59 -87 59h-21v47h282v-47h-31c-25 0 -40 -4 -40 -28c0 -10 3 -17 5 -24z" />
    <glyph glyph-name="X" unicode="X" horiz-adv-x="815" 
d="M57 633v47h308v-47h-29c-41 0 -49 -9 -49 -26c0 -13 5 -18 11 -26l128 -174l117 150c7 10 16 24 16 40c0 27 -20 36 -49 36h-38v47h271v-47c-81 -4 -106 -38 -125 -62l-160 -200l193 -258c30 -40 61 -66 115 -66h18v-47h-332v47h16c35 0 75 0 75 32c0 21 -15 37 -25 51
l-126 171l-134 -171c-18 -24 -19 -39 -19 -47c0 -34 36 -36 48 -36h16h20v-47h-292v47h14c37 0 94 15 149 83l169 210l-182 238c-36 47 -57 52 -124 55z" />
    <glyph glyph-name="Y" unicode="Y" horiz-adv-x="758" 
d="M423 352l117 209c6 10 11 21 11 34c0 27 -17 38 -46 38h-11v47h242v-47h-10c-56 0 -83 -15 -114 -68l-158 -268v-222c0 -16 10 -28 27 -28h82v-47h-330v47h82c17 0 27 12 27 28v221l-207 286c-27 37 -48 51 -92 51h-21v47h296v-47h-29c-22 0 -37 -5 -37 -27
c0 -11 6 -18 11 -25z" />
    <glyph glyph-name="Z" unicode="Z" horiz-adv-x="620" 
d="M124 421h-50v259h510v-26l-409 -601v-6h190c142 0 146 155 146 181v25h56v-253h-531v29l412 598v6h-123c-38 0 -113 -1 -162 -70c-29 -40 -32 -85 -39 -142z" />
    <glyph glyph-name="bracketleft" unicode="[" horiz-adv-x="350" 
d="M302 -196h-254v876h254v-48h-142v-780h142v-48z" />
    <glyph glyph-name="backslash" unicode="\" horiz-adv-x="499" 
d="M410 -196l-362 859l41 17l362 -860z" />
    <glyph glyph-name="bracketright" unicode="]" horiz-adv-x="350" 
d="M48 -196v48h142v780h-142v48h254v-876h-254z" />
    <glyph glyph-name="asciicircum" unicode="^" horiz-adv-x="404" 
d="M202 610l-101 -101h-84l185 185l185 -185h-84z" />
    <glyph glyph-name="underscore" unicode="_" 
d="M0 -200v50h580v-50h-580z" />
    <glyph glyph-name="grave" unicode="`" horiz-adv-x="353" 
d="M38 728h131c42 -104 89 -123 89 -158c0 -5 -3 -15 -15 -15c-6 0 -29 0 -122 73c-43 34 -88 70 -91 84v5c1 7 5 11 8 11z" />
    <glyph glyph-name="a" unicode="a" horiz-adv-x="522" 
d="M503 56l19 -21c-39 -35 -59 -49 -100 -49c-59 0 -76 46 -79 78h-6c-36 -52 -94 -78 -161 -78c-112 0 -137 67 -137 117c0 46 24 139 297 187v39c0 12 -1 97 -107 97c-37 0 -86 -17 -86 -41c0 -11 10 -13 21 -22c12 -10 18 -19 18 -33c0 -31 -24 -51 -50 -51
c-29 0 -60 21 -60 55c0 56 48 136 171 136c167 0 179 -110 179 -165v-222c0 -20 0 -53 34 -53c19 0 29 7 47 26zM336 173v75c-87 -16 -193 -46 -193 -129c0 -41 20 -89 73 -89c54 0 120 50 120 143z" />
    <glyph glyph-name="b" unicode="b" horiz-adv-x="544" 
d="M166 225c0 -135 58 -195 121 -195c45 0 119 27 119 196c0 174 -70 200 -119 200c-64 0 -121 -48 -121 -201zM145 73l-30 -73h-35v631c0 19 -12 22 -45 22h-35v44l166 14v-255l-3 -55h5c46 60 96 69 129 69c148 0 213 -127 213 -250c0 -119 -78 -234 -213 -234
c-36 0 -100 7 -152 87z" />
    <glyph glyph-name="c" unicode="c" horiz-adv-x="474" 
d="M396 154l44 -16c-42 -126 -113 -152 -187 -152c-155 0 -219 138 -219 258c0 114 80 226 222 226c119 0 170 -77 170 -127c0 -23 -11 -66 -59 -66c-54 0 -59 40 -59 56c0 11 4 24 9 32c6 9 15 14 15 23c0 16 -29 38 -66 38c-120 0 -128 -135 -128 -193
c0 -165 70 -203 129 -203c74 0 112 69 129 124z" />
    <glyph glyph-name="d" unicode="d" 
d="M470 711v-636c0 -31 15 -31 35 -31h44v-44h-160v80h-5c-43 -78 -92 -94 -144 -94c-144 0 -206 133 -206 244c0 137 87 240 208 240c41 0 100 -10 142 -77h5l-5 31v207c0 19 -12 22 -44 22h-46v44zM384 233c0 164 -70 193 -118 193c-78 0 -128 -75 -128 -193
c0 -180 78 -203 127 -203c48 0 119 34 119 203z" />
    <glyph glyph-name="e" unicode="e" horiz-adv-x="483" 
d="M399 133l40 -21c-49 -114 -139 -126 -195 -126c-141 0 -210 115 -210 242c0 142 90 242 215 242c132 0 200 -106 200 -227v-23h-311c0 -136 57 -190 118 -190c39 0 100 11 143 103zM138 264h192c15 0 18 13 18 20v19c-3 44 -26 123 -101 123c-50 0 -103 -48 -109 -162z
" />
    <glyph glyph-name="f" unicode="f" horiz-adv-x="437" 
d="M151 412h-110v44h110v39c0 138 82 205 164 205c51 0 105 -32 105 -98c0 -42 -23 -70 -57 -70c-38 0 -52 29 -52 52c0 10 4 25 9 33c3 5 12 13 12 23c0 9 -9 18 -26 18c-50 0 -74 -52 -74 -106c0 -9 1 -43 2 -57c1 -10 2 -16 3 -39h125v-44h-125v-337c0 -31 15 -31 35 -31
h83v-44h-321v44h82c20 0 35 0 35 31v337z" />
    <glyph glyph-name="g" unicode="g" 
d="M130 -3l1 4c-47 8 -90 37 -90 81c0 53 46 83 100 104c-44 29 -66 77 -66 122c0 75 67 162 179 162c63 0 101 -17 120 -30c50 53 88 62 118 62c41 0 66 -28 66 -65c0 -31 -16 -55 -45 -55c-42 0 -45 33 -46 39c0 3 -1 6 0 9c0 2 1 5 2 7c0 2 1 4 1 6v3c-1 2 -6 4 -11 4
c-20 0 -41 -20 -54 -36c31 -29 48 -69 48 -110c0 -85 -70 -160 -170 -160c-69 0 -56 14 -107 14c-23 0 -48 -21 -48 -46c0 -36 41 -36 59 -36h50c19 0 39 1 59 0c178 -6 198 -89 198 -135c0 -66 -64 -123 -235 -123c-181 0 -225 50 -225 90c0 48 42 74 96 89zM179 305
c0 -83 47 -117 90 -117c50 0 80 54 80 126c0 89 -54 112 -87 112c-43 0 -83 -43 -83 -121zM119 -67c0 -24 10 -70 147 -70c130 0 153 42 153 70c0 57 -89 57 -148 57c-64 0 -152 -3 -152 -57z" />
    <glyph glyph-name="h" unicode="h" horiz-adv-x="604" 
d="M199 377h5c31 63 98 93 156 93c129 0 134 -120 134 -160v-235c0 -31 15 -31 35 -31h44v-44h-228v44h28c20 0 35 0 35 31v233c0 104 -49 118 -81 118c-106 0 -123 -156 -123 -181v-170c0 -31 15 -31 35 -31h28v-44h-228v44h44c20 0 35 0 35 31v545c0 18 -4 32 -25 32h-54
v45l165 14v-283z" />
    <glyph glyph-name="i" unicode="i" horiz-adv-x="340" 
d="M40 412v44l173 14v-395c0 -31 15 -31 35 -31h64v-44h-284v44h64c20 0 35 0 35 31v304c0 17 4 33 -44 33h-43zM212 620c0 -33 -27 -60 -60 -60s-60 27 -60 60s27 60 60 60s60 -27 60 -60z" />
    <glyph glyph-name="j" unicode="j" horiz-adv-x="358" 
d="M70 410v47l176 13v-418c0 -141 -76 -209 -147 -209c-65 0 -85 50 -85 80c0 41 32 54 53 54c19 0 53 -12 53 -50c0 -7 -1 -11 -3 -16s-3 -8 -3 -11c0 -7 4 -10 12 -10c9 0 34 11 34 63v435c0 22 -20 22 -45 22h-45zM246 620c0 -33 -27 -60 -60 -60s-60 27 -60 60
s27 60 60 60s60 -27 60 -60z" />
    <glyph glyph-name="k" unicode="k" horiz-adv-x="590" 
d="M204 232h6l118 120c11 12 24 23 24 37c0 21 -22 23 -43 23h-17v44h230v-44c-58 -4 -96 -33 -143 -79l-57 -56l129 -166c28 -36 56 -64 103 -67v-44h-232v44h9c9 0 35 0 35 23c0 12 -16 32 -21 38l-91 113l-50 -52v-90c0 -30 11 -32 34 -32h18v-44h-217v44h44
c20 0 35 0 35 31v555c0 19 -12 22 -45 22h-34v45l165 14v-479z" />
    <glyph glyph-name="l" unicode="l" horiz-adv-x="329" 
d="M42 652v45l166 14v-636c0 -31 15 -31 35 -31h44v-44h-244v44h44c20 0 35 0 35 31v555c0 19 -12 22 -44 22h-36z" />
    <glyph glyph-name="m" unicode="m" horiz-adv-x="872" 
d="M39 412v44l160 14v-96h5c24 42 73 96 150 96c56 0 113 -38 123 -102h7c23 57 84 102 159 102c112 0 119 -113 119 -146v-249c0 -31 15 -31 35 -31h44v-44h-228v44h28c20 0 35 0 35 31v233c0 62 -6 118 -64 118c-96 0 -129 -120 -129 -169v-182c0 -31 15 -31 35 -31h28
v-44h-212v44h28c20 0 35 0 35 31v233c0 59 -11 118 -70 118c-89 0 -123 -124 -123 -170v-181c0 -31 15 -31 35 -31h28v-44h-228v44h44c20 0 35 0 35 31v314c0 23 -20 23 -44 23h-35z" />
    <glyph glyph-name="n" unicode="n" horiz-adv-x="603" 
d="M39 412v44l165 14v-42l-5 -51h5c28 56 90 93 155 93c129 0 134 -120 134 -160v-235c0 -31 15 -31 35 -31h44v-44h-227v44h27c20 0 35 0 35 31v233c0 104 -49 118 -81 118c-105 0 -122 -155 -122 -181v-170c0 -31 15 -31 35 -31h28v-44h-228v44h44c20 0 35 0 35 31v304
c0 31 -10 33 -45 33h-34z" />
    <glyph glyph-name="o" unicode="o" horiz-adv-x="526" 
d="M34 228c0 88 63 242 229 242c143 0 229 -121 229 -242s-86 -242 -229 -242c-166 0 -229 154 -229 242zM138 228c0 -145 52 -198 125 -198c64 0 125 42 125 198c0 166 -69 198 -125 198s-125 -32 -125 -198z" />
    <glyph glyph-name="p" unicode="p" horiz-adv-x="572" 
d="M32 456l164 14v-69c46 60 96 69 129 69c148 0 213 -127 213 -250c0 -118 -80 -234 -213 -234c-33 0 -89 7 -128 73h-8l7 -42v-121c0 -31 15 -31 35 -31h56v-44h-256v44h44c20 0 35 0 35 31v485c0 31 -15 31 -35 31h-43v44zM196 225c0 -136 57 -195 119 -195
c45 0 119 27 119 196c0 174 -70 200 -119 200c-50 0 -119 -35 -119 -201z" />
    <glyph glyph-name="q" unicode="q" horiz-adv-x="556" 
d="M468 456v-560c0 -31 15 -31 35 -31h53v-44h-262v44h53c20 0 35 0 35 31v145l7 39h-5c-44 -69 -76 -94 -144 -94c-144 0 -206 134 -206 244c0 123 75 240 208 240c68 0 106 -27 142 -75l43 61h41zM382 233c0 101 -24 193 -112 193c-65 0 -131 -54 -131 -193
c0 -179 79 -203 131 -203c73 0 112 76 112 203z" />
    <glyph glyph-name="r" unicode="r" horiz-adv-x="469" 
d="M297 0h-257v44h44c20 0 35 0 35 31v313c0 14 -11 22 -29 22h-51v47l160 13v-115h6c23 57 88 115 161 115c62 0 86 -38 86 -71c0 -34 -19 -68 -61 -68c-47 0 -57 36 -57 56c0 9 3 12 3 14c0 5 -3 7 -8 7h-2c-5 0 -28 0 -58 -30c-41 -40 -64 -108 -64 -175v-127
c0 -30 8 -32 33 -32h59v-44z" />
    <glyph glyph-name="s" unicode="s" horiz-adv-x="453" 
d="M387 456v-160h-38c-26 70 -65 130 -145 130c-45 0 -90 -23 -90 -74c0 -65 64 -67 144 -80c62 -10 156 -35 156 -145c0 -47 -24 -141 -155 -141c-55 0 -107 13 -155 45l-20 -31h-45v167h45c45 -116 110 -137 166 -137c67 0 99 28 99 73c0 68 -73 75 -134 86
c-59 11 -171 32 -171 140c0 71 56 141 162 141c29 0 74 -5 126 -44l17 30h38z" />
    <glyph glyph-name="t" unicode="t" horiz-adv-x="418" 
d="M34 412v44c76 3 137 49 137 190v18h45v-208h142v-44h-142v-286c0 -33 10 -70 52 -70c22 0 72 9 72 124v22l44 1v-23c0 -140 -60 -194 -136 -194c-95 0 -116 76 -118 146v280h-96z" />
    <glyph glyph-name="u" unicode="u" horiz-adv-x="613" 
d="M424 82h-6c-37 -55 -100 -96 -176 -96c-119 0 -127 110 -127 161v242c0 24 -21 23 -37 23h-42v44l165 14v-315c0 -45 2 -125 77 -125c52 0 92 33 115 73c15 27 24 59 24 109v177c0 24 -20 23 -46 23h-32v44l164 14v-395c0 -31 15 -31 35 -31h44v-44h-162z" />
    <glyph glyph-name="v" unicode="v" horiz-adv-x="574" 
d="M309 106h6l94 224c11 27 13 42 13 51c0 19 -10 31 -50 31h-9v44h197v-44c-48 -3 -71 -26 -95 -81l-152 -345h-42l-162 369c-19 43 -29 57 -81 57h-14v44h237v-44h-23c-13 0 -36 2 -36 -20c0 -10 3 -16 6 -24z" />
    <glyph glyph-name="w" unicode="w" horiz-adv-x="762" 
d="M271 126h5l82 224l-10 27c-6 15 -5 34 -56 35v44h200v-44h-19c-18 0 -32 -2 -32 -18c0 -6 2 -12 4 -17l90 -251h5l75 227c3 10 7 16 7 29c0 19 -14 30 -36 30h-31v44h187v-44h-6c-40 0 -53 -16 -73 -72l-125 -354h-40l-110 294h-6l-111 -294h-40l-132 360
c-13 34 -24 66 -65 66h-14v44h209v-44h-14c-14 0 -30 -2 -30 -16c0 -6 3 -17 4 -20z" />
    <glyph glyph-name="x" unicode="x" horiz-adv-x="599" 
d="M39 412v44h225v-44h-12c-27 0 -31 -10 -31 -19c0 -8 2 -13 11 -25l70 -90l62 71c9 11 24 24 24 42c0 12 -9 21 -33 21h-13v44h180v-44c-48 -1 -70 -28 -82 -42l-106 -123l119 -142c25 -29 57 -61 96 -61h11v-44h-241v44h16c21 0 39 4 39 21c0 8 -5 17 -9 21l-85 107
l-80 -95c-7 -8 -13 -15 -13 -28c0 -22 18 -26 40 -26h14v-44h-202v44c34 0 65 16 105 61l105 119l-123 147c-19 22 -37 43 -87 41z" />
    <glyph glyph-name="y" unicode="y" horiz-adv-x="560" 
d="M22 412v44h227v-44h-29c-30 0 -33 -15 -33 -23c0 -12 5 -19 9 -29l116 -267h6l98 243c9 21 10 33 10 42c0 31 -33 34 -52 34h-24v44h196v-44h-9c-31 0 -45 -19 -57 -47l-189 -438c-38 -88 -84 -106 -135 -106c-64 0 -87 47 -87 76c0 34 26 57 55 57c26 0 50 -20 50 -48
c0 -8 -1 -12 -4 -19c-2 -4 -4 -7 -4 -12c0 -4 0 -12 17 -12c34 0 59 54 65 69l24 54l-174 385c-15 33 -26 41 -59 41h-17z" />
    <glyph glyph-name="z" unicode="z" horiz-adv-x="504" 
d="M107 281h-45v175h386v-8l-274 -404h79c89 0 139 38 140 130h45v-174h-396v9l273 403h-57c-107 0 -138 -32 -151 -131z" />
    <glyph glyph-name="braceleft" unicode="{" horiz-adv-x="353" 
d="M292 739l5 -34c-44 -9 -77 -38 -77 -95c0 -30 3 -57 5 -99c1 -18 1 -36 0 -54c-5 -91 -37 -143 -121 -186c84 -40 116 -96 121 -185c1 -18 1 -36 0 -54c-2 -42 -5 -69 -5 -99c0 -54 33 -89 77 -95l-5 -34c-145 16 -149 138 -149 200c0 24 2 48 2 73
c0 144 -54 172 -92 174v41c97 7 92 142 92 174c0 25 -2 49 -2 73c0 62 4 184 149 200z" />
    <glyph glyph-name="bar" unicode="|" horiz-adv-x="160" 
d="M56 -224v1053h48v-1053h-48z" />
    <glyph glyph-name="braceright" unicode="}" horiz-adv-x="353" 
d="M61 -196l-5 34c44 9 77 38 77 95c0 30 -3 57 -5 99c-1 18 -1 36 0 54c5 91 37 143 121 186c-84 40 -116 96 -121 185c-1 18 -1 36 0 54c2 42 5 69 5 99c0 54 -33 89 -77 95l5 34c145 -16 149 -138 149 -200c0 -24 -2 -48 -2 -73c0 -144 54 -172 92 -174v-41
c-97 -7 -92 -142 -92 -174c0 -25 2 -49 2 -73c0 -62 -4 -184 -149 -200z" />
    <glyph glyph-name="asciitilde" unicode="~" horiz-adv-x="521" 
d="M91 270h-42c18 55 69 110 138 110c41 0 68 -12 95 -22c62 -23 80 -24 88 -24c36 0 40 17 60 46h42c-27 -64 -66 -112 -125 -112c-29 0 -59 8 -93 20c-46 17 -69 27 -94 27c-36 0 -53 -17 -69 -45z" />
    <glyph glyph-name="afii10051" unicode="&#x402;" horiz-adv-x="818" 
d="M36 680h588v-262h-50c-4 167 -95 222 -155 222c-24 0 -33 -8 -33 -33v-252c37 13 98 32 176 32c153 0 225 -31 225 -189c0 -134 -94 -212 -206 -212c-83 0 -138 44 -138 87c0 36 22 80 67 80c31 0 65 -17 65 -60c0 -6 -1 -12 -4 -17c-4 -7 -12 -13 -12 -20
c0 -11 7 -26 41 -26s74 23 74 129c0 127 -14 181 -138 181c-36 0 -95 -10 -150 -41v-299h-219v47h58c53 0 49 25 49 47v513c0 28 -13 33 -33 33c-60 0 -151 -54 -155 -222h-50v262z" />
    <glyph glyph-name="afii10052" unicode="&#x403;" horiz-adv-x="608" 
d="M586 438h-38c-13 92 -59 195 -184 195h-77c-27 0 -32 -11 -32 -34v-505c0 -22 -4 -47 49 -47h58v-47h-326v47h58c53 0 49 25 49 47v492c0 22 4 47 -49 47h-58v47h550v-242zM305 854h143c2 0 5 -3 6 -5v-3c-2 -13 -5 -14 -72 -48c-91 -46 -135 -62 -152 -62
c-8 0 -17 5 -17 13c0 22 21 8 92 105z" />
    <glyph glyph-name="quotesinglbase" unicode="&#x201a;" horiz-adv-x="352" 
d="M121 -148l-21 31c26 15 84 72 84 104c0 70 -93 -8 -93 86c0 36 31 67 81 67c54 0 89 -48 89 -103c0 -65 -53 -137 -140 -185z" />
    <glyph glyph-name="afii10100" unicode="&#x453;" horiz-adv-x="471" 
d="M443 259h-39c-4 31 -12 77 -22 101c-14 34 -36 52 -94 52h-49c-37 0 -35 -28 -35 -42v-295c0 -31 15 -31 35 -31h44v-44h-244v44h44c20 0 35 0 35 31v306c0 31 -15 31 -35 31h-44v44h404v-197zM262 728h131c3 0 7 -4 8 -11v-5c-2 -11 -33 -40 -91 -85
c-88 -69 -111 -72 -122 -72c-12 0 -15 10 -15 15c0 16 24 41 37 61c12 18 36 51 52 97z" />
    <glyph glyph-name="quotedblbase" unicode="&#x201e;" horiz-adv-x="497" 
d="M81 -152l-20 31c36 23 78 74 78 105c0 56 -86 -1 -86 86c0 37 30 68 76 68c40 0 84 -40 84 -103c0 -86 -67 -141 -132 -187zM312 -152l-20 31c36 23 78 74 78 105c0 56 -86 -1 -86 86c0 37 30 68 76 68c40 0 84 -40 84 -103c0 -86 -67 -141 -132 -187z" />
    <glyph glyph-name="ellipsis" unicode="&#x2026;" horiz-adv-x="845" 
d="M98 62c0 41 33 75 75 75c40 0 76 -34 76 -75c0 -43 -36 -76 -76 -76c-43 0 -75 34 -75 76zM347 62c0 41 33 75 75 75c40 0 76 -34 76 -75c0 -43 -36 -76 -76 -76c-41 0 -75 33 -75 76zM596 62c0 42 33 75 75 75c43 0 76 -34 76 -75c0 -42 -34 -76 -76 -76
c-41 0 -75 33 -75 76z" />
    <glyph glyph-name="dagger" unicode="&#x2020;" horiz-adv-x="452" 
d="M226 678c29 0 56 -10 56 -57c0 -36 -18 -65 -38 -150c-2 -8 -4 -17 0 -22c2 -3 6 -4 10 -5h8c56 5 81 33 118 33c13 0 44 -11 44 -52c0 -36 -22 -53 -38 -53c-37 0 -74 38 -126 38c-9 0 -13 -3 -14 -6s-1 -6 0 -9c7 -39 10 -88 57 -151c-30 -69 -55 -159 -67 -445h-20
c-12 286 -37 376 -67 445c47 63 50 112 57 151c1 3 1 6 0 9s-5 6 -14 6c-52 0 -89 -38 -126 -38c-16 0 -38 17 -38 53c0 41 31 52 44 52c37 0 62 -28 118 -33h8c4 1 8 2 10 5c4 5 2 14 0 22c-20 85 -38 114 -38 150c0 47 27 57 56 57z" />
    <glyph glyph-name="daggerdbl" unicode="&#x2021;" horiz-adv-x="548" 
d="M274 -200c-18 0 -60 7 -60 56c0 29 13 53 24 74c12 27 20 48 19 91h-31c-13 0 -29 -3 -57 -13c-26 -9 -46 -20 -66 -20c-25 0 -50 18 -50 53c0 43 38 52 50 52c18 0 35 -7 64 -20c23 -10 42 -18 60 -18h30c3 71 -13 140 -45 189c32 49 48 118 45 189h-30
c-18 0 -37 -8 -60 -18c-29 -13 -46 -20 -64 -20c-12 0 -50 9 -50 52c0 35 25 53 50 53c20 0 40 -11 66 -20c28 -10 44 -13 57 -13h31c1 43 -7 64 -19 91c-11 22 -24 46 -24 74c0 56 56 56 60 56s60 0 60 -56c0 -28 -13 -52 -24 -74c-12 -27 -20 -48 -19 -91h31
c13 0 29 3 57 13c26 9 46 20 66 20c25 0 50 -18 50 -53c0 -43 -38 -52 -50 -52c-18 0 -35 7 -64 20c-23 10 -42 18 -60 18h-30c-3 -71 13 -140 45 -189c-32 -49 -48 -118 -45 -189h30c18 0 37 8 60 18c29 13 46 20 64 20c12 0 50 -9 50 -52c0 -35 -25 -53 -50 -53
c-20 0 -40 11 -66 20c-28 10 -44 13 -57 13h-31c-1 -43 7 -64 19 -91c11 -21 24 -45 24 -74c0 -49 -42 -56 -60 -56z" />
    <glyph glyph-name="accent" horiz-adv-x="2" 
d="M-273 728h131c3 0 7 -4 8 -11v-5c-2 -11 -33 -40 -91 -85c-88 -69 -111 -72 -122 -72c-12 0 -15 10 -15 15c0 16 24 41 37 61c12 18 36 51 52 97z" />
    <glyph glyph-name="perthousand" unicode="&#x2030;" horiz-adv-x="1451" 
d="M84 517c0 93 64 177 147 177s147 -84 147 -177s-64 -177 -147 -177s-147 84 -147 177zM148 517c0 -146 63 -157 83 -157c18 0 83 11 83 157c0 104 -35 157 -83 157c-45 0 -83 -45 -83 -157zM649 717l39 -23l-417 -743l-40 20zM558 164c0 100 72 176 148 176
c83 0 147 -87 147 -176c0 -92 -64 -178 -147 -178c-85 0 -148 86 -148 178zM622 164c0 -96 31 -158 84 -158c48 0 83 53 83 158c0 113 -40 156 -83 156c-38 0 -84 -35 -84 -156zM956 164c0 100 72 176 148 176c83 0 147 -87 147 -176c0 -92 -64 -178 -147 -178
c-85 0 -148 86 -148 178zM1020 164c0 -96 31 -158 84 -158c48 0 83 53 83 158c0 113 -40 156 -83 156c-38 0 -84 -35 -84 -156z" />
    <glyph glyph-name="afii10058" unicode="&#x409;" horiz-adv-x="1086" 
d="M153 633v47h603v-47h-58c-53 0 -49 -25 -49 -47v-203h89c255 0 312 -104 312 -186c0 -49 -12 -197 -291 -197h-329v47h58c53 0 49 25 49 47v492c0 22 4 47 -49 47h-63c-90 0 -85 -72 -90 -164c-11 -242 3 -484 -186 -484c-96 0 -127 78 -127 138c0 49 41 70 74 70
c46 0 70 -33 70 -63c0 -17 -7 -37 -21 -50c-9 -9 -24 -16 -24 -24s13 -24 34 -24c25 0 88 13 107 148c10 67 15 139 15 278c0 132 -5 175 -109 175h-15zM649 336v-242c0 -22 -4 -47 49 -47h30c64 0 196 4 196 148c0 74 -46 141 -194 141h-81z" />
    <glyph glyph-name="guilsinglleft" unicode="&#x2039;" horiz-adv-x="489" 
d="M246 223l121 -191l-35 -23l-214 215l217 219l36 -26z" />
    <glyph glyph-name="afii10059" unicode="&#x40a;" horiz-adv-x="1120" 
d="M571 382v204c0 22 4 47 -49 47h-58v47h326v-47h-58c-53 0 -49 -25 -49 -47v-204h89c255 0 312 -104 312 -186c0 -68 -31 -196 -291 -196h-329v47h58c53 0 49 25 49 47v241h-316v-241c0 -22 -4 -47 49 -47h58v-47h-326v47h58c53 0 49 25 49 47v492c0 22 4 47 -49 47h-58
v47h326v-47h-58c-53 0 -49 -25 -49 -47v-204h316zM683 335v-241c0 -22 -4 -47 49 -47h30c63 0 196 4 196 148c0 72 -46 140 -194 140h-81z" />
    <glyph glyph-name="afii10061" unicode="&#x40c;" horiz-adv-x="762" 
d="M255 330v-236c0 -22 -4 -47 49 -47h58v-47h-326v47h58c53 0 49 25 49 47v492c0 22 4 47 -49 47h-58v47h326v-47h-58c-53 0 -49 -25 -49 -47v-209h15c112 0 156 16 172 120c13 84 18 197 149 197c75 0 123 -54 123 -111c0 -48 -41 -76 -75 -76c-33 0 -75 18 -75 69
c0 18 4 35 18 49c4 5 9 9 9 14c0 9 -9 9 -13 9c-23 0 -64 -8 -76 -105c-15 -122 -43 -160 -86 -186c235 -51 108 -290 210 -290c22 0 43 25 47 112h52c10 -114 -49 -193 -131 -193c-117 0 -129 140 -140 213c-19 122 -56 131 -183 131h-16zM382 854h143c2 0 5 -3 6 -5v-3
c-2 -13 -5 -14 -72 -48c-91 -46 -135 -62 -152 -62c-8 0 -17 5 -17 13c0 22 21 8 92 105z" />
    <glyph glyph-name="afii10060" unicode="&#x40b;" horiz-adv-x="876" 
d="M21 680h588v-262h-50c-4 167 -95 222 -155 222c-24 0 -33 -8 -33 -33v-252c58 20 118 32 176 32c162 0 215 -32 215 -149v-144c0 -22 -4 -47 49 -47h58v-47h-312v47h44c53 0 49 25 49 47v159c0 67 -69 87 -129 87c-36 0 -95 -9 -150 -41v-205c0 -22 -4 -47 49 -47h58v-47
h-326v47h58c53 0 49 25 49 47v513c0 28 -13 33 -33 33c-60 0 -151 -54 -155 -222h-50v262z" />
    <glyph glyph-name="afii10145" unicode="&#x40f;" horiz-adv-x="827" 
d="M39 680h326v-47h-58c-53 0 -49 -25 -49 -47v-492c0 -22 -4 -47 49 -47h221c53 0 49 25 49 47v492c0 22 4 47 -49 47h-58v47h326v-47h-58c-53 0 -49 -25 -49 -47v-492c0 -22 -4 -47 49 -47h58v-47h-174c-70 0 -172 -5 -181 -196h-47c-9 191 -111 196 -181 196h-174v47h58
c53 0 49 25 49 47v492c0 22 4 47 -49 47h-58v47z" />
    <glyph glyph-name="afii10099" unicode="&#x452;" horiz-adv-x="579" 
d="M232 377h5c26 52 85 93 156 93c124 0 147 -95 147 -274c0 -84 -3 -388 -189 -388c-65 0 -98 44 -98 90s30 57 52 57c20 0 44 -16 44 -42c0 -6 -2 -15 -5 -21c-4 -9 -17 -19 -17 -28c0 -6 6 -15 28 -15c85 0 90 154 90 270c0 138 21 307 -85 307s-123 -156 -123 -181v-170
c0 -31 15 -31 35 -31h28v-44h-228v44h44c20 0 35 0 35 31v471h-112v44h112v30c0 18 -4 32 -25 32h-54v45l165 14v-121h210v-44h-210v-118z" />
    <glyph glyph-name="quoteleft" unicode="&#x2018;" horiz-adv-x="352" 
d="M232 700l21 -31c-26 -15 -84 -72 -84 -104c0 -69 92 8 92 -86c0 -29 -22 -67 -81 -67c-54 0 -89 49 -89 99c0 51 27 118 141 189z" />
    <glyph glyph-name="quoteright" unicode="&#x2019;" horiz-adv-x="352" 
d="M121 412l-21 31c26 15 84 72 84 104c0 55 -93 -2 -93 86c0 29 25 67 81 67c53 0 89 -47 89 -105c0 -75 -69 -144 -140 -183z" />
    <glyph glyph-name="quotedblleft" unicode="&#x201c;" horiz-adv-x="497" 
d="M185 693l20 -31c-36 -23 -78 -74 -78 -105c0 -56 86 1 86 -86c0 -37 -30 -68 -76 -68c-40 0 -84 40 -84 103c0 86 67 141 132 187zM416 693l20 -31c-36 -23 -78 -74 -78 -105c0 -56 86 1 86 -86c0 -37 -30 -68 -76 -68c-40 0 -84 40 -84 103c0 86 67 141 132 187z" />
    <glyph glyph-name="quotedblright" unicode="&#x201d;" horiz-adv-x="497" 
d="M81 403l-20 31c36 23 78 74 78 105c0 56 -86 -1 -86 86c0 37 30 68 76 68c40 0 84 -40 84 -103c0 -86 -67 -141 -132 -187zM312 403l-20 31c36 23 78 74 78 105c0 56 -86 -1 -86 86c0 37 30 68 76 68c40 0 84 -40 84 -103c0 -86 -67 -141 -132 -187z" />
    <glyph glyph-name="bullet" unicode="&#x2022;" horiz-adv-x="698" 
d="M251 316c0 54 44 98 98 98s98 -44 98 -98s-44 -98 -98 -98s-98 44 -98 98z" />
    <glyph glyph-name="endash" unicode="&#x2013;" horiz-adv-x="616" 
d="M42 340h532v-50h-532v50z" />
    <glyph glyph-name="emdash" unicode="&#x2014;" horiz-adv-x="1052" 
d="M64 290v50h924v-50h-924z" />
    <glyph glyph-name="Accent" horiz-adv-x="2" 
d="M-367 854h143c2 0 5 -3 6 -5v-3c-2 -13 -5 -14 -72 -48c-91 -46 -135 -62 -152 -62c-8 0 -17 5 -17 13c0 22 21 8 92 105z" />
    <glyph glyph-name="trademark" unicode="&#x2122;" horiz-adv-x="971" 
d="M103 315v36h48c8 0 14 8 14 15v260c0 14 -12 18 -27 18c-18 0 -74 -14 -79 -119h-31v155h344v-155h-31c-5 105 -61 119 -79 119c-15 0 -27 -4 -27 -18v-260c0 -7 6 -15 14 -15h48v-36h-194zM594 680l97 -242h2l79 242h171v-36h-48c-8 0 -14 -8 -14 -15v-263
c0 -7 6 -15 14 -15h48v-36h-194v36h48c8 0 14 8 14 15v278h-7l-109 -329h-23l-135 329h-6v-266c0 -8 5 -27 52 -27h10v-36h-160v36h10c47 0 52 19 52 27v251c0 7 -6 15 -14 15h-48v36h161z" />
    <glyph glyph-name="afii10106" unicode="&#x459;" horiz-adv-x="806" 
d="M134 412v44h421v-44h-45c-19 0 -34 0 -34 -31v-120h98c167 0 193 -86 193 -135c0 -53 -40 -126 -195 -126h-261v44h44c20 0 35 0 35 31v312c0 25 -23 25 -32 25h-45c-68 0 -49 -80 -59 -178c-11 -111 -33 -248 -156 -248c-18 0 -76 10 -76 72c0 37 24 59 53 59
c31 0 46 -24 46 -44c0 -4 -1 -7 -2 -11c-1 -3 -1 -6 -1 -9c0 -12 9 -14 15 -14c12 0 37 8 56 78c14 53 24 123 27 213v24c-2 48 -17 58 -63 58h-19zM476 217v-140c0 -9 0 -33 36 -33h50c39 0 101 14 101 85c0 89 -80 88 -111 88h-76z" />
    <glyph glyph-name="guilsinglright" unicode="&#x203a;" horiz-adv-x="489" 
d="M243 228l-120 191l35 23l213 -215l-217 -219l-36 26z" />
    <glyph glyph-name="afii10107" unicode="&#x45a;" horiz-adv-x="823" 
d="M204 261h203v120c0 31 -11 31 -35 31h-43v44h243v-44h-44c-20 0 -35 0 -35 -31v-120h98c182 0 193 -103 193 -134c0 -32 -19 -127 -195 -127h-261v44h44c20 0 35 0 35 31v142h-203v-142c0 -31 15 -31 35 -31h44v-44h-244v44h44c20 0 35 0 35 31v306c0 31 -15 31 -35 31
h-44v44h244v-44h-44c-20 0 -35 0 -35 -31v-120zM493 217v-140c0 -9 0 -33 36 -33h50c39 0 101 14 101 85c0 89 -80 88 -111 88h-76z" />
    <glyph glyph-name="afii10109" unicode="&#x45c;" horiz-adv-x="621" 
d="M39 0v44h44c20 0 35 0 35 31v306c0 31 -15 31 -35 31h-44v44h243v-44h-43c-20 0 -35 0 -35 -31v-122h34c99 0 110 9 135 109c8 32 24 102 97 102c56 0 77 -42 77 -69c0 -20 -9 -61 -55 -61c-37 0 -48 34 -48 51c0 4 2 8 2 12s-2 6 -6 6c-6 0 -14 -9 -22 -40
c-18 -72 -29 -116 -77 -128v-3c59 -6 107 -51 125 -116c9 -33 15 -77 42 -77c17 0 31 29 31 55v19h37v-22c0 -21 -8 -111 -93 -111c-90 0 -86 100 -108 159c-26 70 -57 70 -114 70h-57v-140c0 -31 15 -31 35 -31h44v-44h-244zM337 728h131c3 0 7 -4 8 -11v-5
c-2 -11 -33 -40 -91 -85c-88 -69 -111 -72 -122 -72c-12 0 -15 10 -15 15c0 16 24 41 37 61c12 18 36 51 52 97z" />
    <glyph glyph-name="afii10108" unicode="&#x45b;" horiz-adv-x="561" 
d="M187 377h5c31 63 98 93 156 93c129 0 134 -120 134 -160v-235c0 -31 15 -31 35 -31h44v-44h-228v44h28c20 0 35 0 35 31v233c0 104 -49 118 -81 118c-106 0 -123 -156 -123 -181v-170c0 -31 15 -31 35 -31h28v-44h-228v44h44c20 0 35 0 35 31v471h-112v44h112v30
c0 18 -4 32 -25 32h-54v45l165 14v-121h210v-44h-210v-118z" />
    <glyph glyph-name="afii10193" unicode="&#x45f;" horiz-adv-x="604" 
d="M329 456h244v-44h-44c-20 0 -35 0 -35 -31v-306c0 -16 7 -31 26 -31h53v-44h-96c-56 0 -143 10 -152 -147h-38c-9 157 -96 147 -152 147h-96v44h44c20 0 35 0 35 31v306c0 31 -15 31 -35 31h-44v44h244v-44h-44c-20 0 -35 0 -35 -31v-306c0 -11 3 -31 37 -31h142
c10 0 25 3 25 33v304c0 31 -15 31 -35 31h-44v44z" />
    <glyph glyph-name="afii10062" unicode="&#x40e;" horiz-adv-x="756" 
d="M445 245l117 292c6 14 11 28 13 44c1 5 1 10 0 15c-6 36 -42 37 -69 37h-18v47h246v-47h-29c-41 0 -69 -61 -76 -77l-189 -457c-43 -104 -111 -113 -165 -113c-107 0 -147 90 -147 156c0 52 51 66 77 66c36 0 61 -33 61 -64c0 -11 -3 -41 -36 -60c-6 -4 -15 -7 -15 -12
c0 -14 20 -43 64 -43c65 0 99 51 112 97l-238 448c-32 61 -91 59 -113 59h-12v47h328v-47h-17c-33 0 -75 2 -75 -30c0 -6 4 -17 6 -21l170 -337h5zM420 718c-113 0 -158 43 -158 84c0 36 38 55 69 55c36 0 44 -23 44 -35c0 -24 -18 -28 -29 -34c-7 -4 -9 -4 -9 -9
c0 -23 60 -28 83 -28s83 5 83 28c0 5 -2 5 -9 9c-11 6 -29 10 -29 34c0 10 7 35 44 35c30 0 68 -18 68 -55c0 -29 -26 -84 -157 -84z" />
    <glyph glyph-name="afii10110" unicode="&#x45e;" horiz-adv-x="560" 
d="M22 412v44h227v-44h-29c-30 0 -33 -15 -33 -23c0 -12 5 -19 9 -29l116 -267h6l98 243c9 21 10 33 10 42c0 31 -33 34 -52 34h-24v44h196v-44h-9c-31 0 -45 -19 -57 -47l-189 -438c-38 -88 -84 -106 -135 -106c-64 0 -87 47 -87 76c0 34 26 57 55 57c26 0 50 -20 50 -48
c0 -8 -1 -12 -4 -19c-2 -4 -4 -7 -4 -12c0 -4 0 -12 17 -12c34 0 59 54 65 69l24 54l-174 385c-15 33 -26 41 -59 41h-17zM295 524c-93 0 -159 42 -159 103c0 40 33 54 60 54c18 0 50 -12 50 -45c0 -42 -32 -17 -32 -47c0 -7 10 -25 81 -25c60 0 81 13 81 25
c0 8 -8 11 -13 13c-11 6 -19 18 -19 34c0 28 27 45 50 45c31 0 60 -21 60 -54c0 -47 -48 -103 -159 -103z" />
    <glyph glyph-name="afii10057" unicode="&#x408;" horiz-adv-x="589" 
d="M232 680h326v-47h-58c-53 0 -49 -25 -49 -47v-342c0 -82 -5 -148 -64 -202c-54 -49 -119 -56 -155 -56c-141 0 -210 87 -210 164c0 60 39 114 108 114c43 0 71 -27 71 -67c0 -44 -35 -66 -65 -66c-12 0 -23 2 -35 2c-22 0 -15 -29 -3 -47c16 -23 50 -53 111 -53
c113 0 130 83 130 133v420c0 22 4 47 -49 47h-58v47z" />
    <glyph glyph-name="currency" unicode="&#xa4;" horiz-adv-x="875" 
d="M70 56l118 118c-41 57 -56 121 -56 176s15 119 56 176l-118 118l70 70l117 -118c20 16 80 60 180 60s160 -44 180 -60l118 118l70 -70l-118 -118c41 -57 56 -121 56 -176s-15 -119 -56 -176l118 -118l-70 -70l-118 118c-20 -16 -80 -60 -180 -60s-160 44 -180 60
l-117 -118zM211 350c0 -124 101 -227 226 -227c124 0 227 103 227 227s-103 227 -227 227c-125 0 -226 -103 -226 -227z" />
    <glyph glyph-name="afii10050" unicode="&#x490;" horiz-adv-x="584" 
d="M36 680h328c143 -5 177 146 184 195h38v-242h-222h-77c-27 0 -32 -11 -32 -34v-505c0 -22 -4 -47 49 -47h58v-47h-326v47h58c53 0 49 25 49 47v492c0 22 4 47 -49 47h-58v47z" />
    <glyph glyph-name="brokenbar" unicode="&#xa6;" horiz-adv-x="158" 
d="M53 431v351h52v-351h-52zM53 -211v351h52v-351h-52z" />
    <glyph glyph-name="section" unicode="&#xa7;" horiz-adv-x="523" 
d="M140 452c-23 39 -21 82 -21 118c0 59 66 130 166 130c78 0 167 -46 167 -115c0 -49 -24 -80 -57 -80c-30 0 -60 14 -60 48c0 18 7 30 12 37c6 10 13 21 13 32s-15 32 -62 32c-43 0 -106 -25 -106 -88c0 -72 90 -124 164 -180c34 -26 118 -86 118 -171
c0 -53 -35 -104 -86 -152c28 -42 35 -73 35 -119c0 -85 -92 -140 -175 -140c-121 0 -188 68 -188 125c0 40 28 72 67 72c42 0 64 -33 64 -61c0 -36 -29 -30 -29 -58c0 -12 4 -27 51 -31c12 -1 25 -1 38 0c65 7 99 48 99 90c0 65 -91 118 -159 170c-71 54 -142 106 -142 175
c0 73 44 120 91 166zM162 423c-20 -17 -47 -48 -47 -73c0 -92 153 -169 248 -260c20 17 44 47 44 71c0 96 -173 191 -245 262z" />
    <glyph glyph-name="afii10023" unicode="&#x401;" horiz-adv-x="678" 
d="M636 435h-49c-19 145 -89 198 -177 198h-106c-53 0 -49 -25 -49 -47v-219h63c82 0 97 47 98 131h49v-312h-49c-3 88 -21 134 -95 134h-66v-226c0 -22 -4 -47 49 -47h125c97 0 152 70 158 215h49v-262h-600v47h58c53 0 49 25 49 47v492c0 22 4 47 -49 47h-58v47h600v-245z
M173 786c0 39 31 70 70 70c48 0 70 -42 70 -70c0 -37 -33 -70 -70 -70c-28 0 -70 22 -70 70zM421 787c0 30 24 69 70 69c39 0 70 -30 70 -69c0 -46 -39 -71 -70 -71c-38 0 -70 34 -70 71z" />
    <glyph glyph-name="copyright" unicode="&#xa9;" horiz-adv-x="766" 
d="M29 340c0 196 158 354 354 354s354 -158 354 -354s-158 -354 -354 -354s-354 158 -354 354zM67 340c0 -175 141 -316 316 -316s316 141 316 316s-141 316 -316 316s-316 -141 -316 -316zM519 274l30 -1c-4 -39 -28 -151 -161 -151c-134 0 -196 112 -196 225
c0 107 67 207 191 207c35 0 75 -9 106 -33c9 16 11 20 15 28h28l9 -152h-30c-6 50 -34 129 -124 129c-65 0 -117 -44 -117 -178c0 -160 74 -196 124 -196c75 0 116 58 125 122z" />
    <glyph glyph-name="afii10053" unicode="&#x404;" horiz-adv-x="658" 
d="M572 234l50 -1c-36 -218 -173 -247 -263 -247c-223 0 -323 185 -323 368c0 174 113 340 314 340c92 0 146 -35 172 -54l25 40h46l15 -244h-48c-29 136 -87 211 -205 211c-176 0 -193 -204 -193 -268h289v-47h-289c1 -110 40 -299 206 -299c142 0 192 124 204 201z" />
    <glyph glyph-name="guillemotleft" unicode="&#xab;" 
d="M246 223l121 -191l-35 -23l-214 215l217 219l36 -26zM389 224l73 -133l-36 -22l-128 154l133 152l30 -21z" />
    <glyph glyph-name="logicalnot" unicode="&#xac;" horiz-adv-x="644" 
d="M77 340h532v-150h-60v100h-472v50z" />
    <glyph glyph-name="hyphen" unicode="-" horiz-adv-x="351" 
d="M62 267v73h227v-73h-227z" />
    <glyph glyph-name="hyphen" unicode="&#xad;" horiz-adv-x="351" 
d="M62 267v73h227v-73h-227z" />
    <glyph glyph-name="registered" unicode="&#xae;" horiz-adv-x="764" 
d="M28 340c0 196 158 354 354 354s354 -158 354 -354s-158 -354 -354 -354s-354 158 -354 354zM66 340c0 -175 141 -316 316 -316s316 141 316 316s-141 316 -316 316s-316 -141 -316 -316zM210 507h177c131 0 142 -62 142 -84c0 -28 -16 -71 -109 -83v-3
c52 -15 58 -36 66 -68c6 -25 7 -63 30 -63c19 0 20 18 20 37v8h26v-11c0 -53 -26 -77 -61 -77c-60 0 -67 66 -72 98c-10 70 -40 72 -70 72h-39v-124c0 -9 0 -14 20 -14h33v-24h-163v24h31c13 0 22 2 22 14v260c0 9 -6 15 -13 15h-40v23zM320 358h46c23 0 94 2 94 65
c0 22 -16 61 -79 61h-40c-7 0 -21 1 -21 -11v-115z" />
    <glyph glyph-name="afii10056" unicode="&#x407;" horiz-adv-x="385" 
d="M29 680h327v-47h-66c-33 0 -42 -7 -42 -41v-504c0 -34 9 -41 42 -41h66v-47h-327v47h66c33 0 42 7 42 41v504c0 34 -9 41 -42 41h-66v47zM148 792c0 -30 -26 -56 -56 -56c-23 0 -56 18 -56 56c0 32 24 56 56 56c38 0 56 -33 56 -56zM350 792c0 -36 -30 -56 -56 -56
c-23 0 -56 18 -56 56c0 32 24 56 56 56c34 0 56 -26 56 -56z" />
    <glyph glyph-name="degree" unicode="&#xb0;" horiz-adv-x="238" 
d="M28 650c0 59 51 91 91 91c39 0 91 -32 91 -91c0 -52 -41 -91 -91 -91c-51 0 -91 40 -91 91zM55 650c0 -44 37 -64 64 -64s64 20 64 64s-37 64 -64 64s-64 -20 -64 -64z" />
    <glyph glyph-name="plusminus" unicode="&#xb1;" horiz-adv-x="725" 
d="M63 340h275v200h49v-200h275v-48h-275v-140h-49v140h-275v48zM63 103h599v-48h-599v48z" />
    <glyph glyph-name="afii10055" unicode="&#x406;" horiz-adv-x="398" 
d="M36 0v47h58c53 0 49 25 49 47v492c0 22 4 47 -49 47h-58v47h326v-47h-58c-53 0 -49 -25 -49 -47v-492c0 -22 -4 -47 49 -47h58v-47h-326z" />
    <glyph glyph-name="afii10103" unicode="&#x456;" horiz-adv-x="340" 
d="M40 412v44l173 14v-395c0 -31 15 -31 35 -31h64v-44h-284v44h64c20 0 35 0 35 31v304c0 17 4 33 -44 33h-43zM212 620c0 -33 -27 -60 -60 -60s-60 27 -60 60s27 60 60 60s60 -27 60 -60z" />
    <glyph glyph-name="afii10098" unicode="&#x491;" horiz-adv-x="471" 
d="M39 456h249c58 0 80 18 94 52c10 24 18 70 22 101h39v-197h-204c-37 0 -35 -28 -35 -42v-295c0 -31 15 -31 35 -31h44v-44h-244v44h44c20 0 35 0 35 31v306c0 31 -15 31 -35 31h-44v44z" />
    <glyph glyph-name="mu" unicode="&#xb5;" horiz-adv-x="613" 
d="M424 82h-6c-35 -54 -109 -96 -164 -96c-24 0 -67 15 -92 66l29 -141c4 -17 7 -33 7 -49c0 -35 -26 -55 -64 -55c-31 0 -55 20 -55 55c0 28 12 57 23 113c8 42 13 97 13 175v239c0 24 -21 23 -37 23h-42v44l165 14v-294c0 -103 24 -146 77 -146c73 0 139 66 139 182v177
c0 24 -20 23 -46 23h-32v44l164 14v-395c0 -31 15 -31 35 -31h44v-44h-162z" />
    <glyph glyph-name="mu" unicode="&#x3bc;" horiz-adv-x="613" 
d="M424 82h-6c-35 -54 -109 -96 -164 -96c-24 0 -67 15 -92 66l29 -141c4 -17 7 -33 7 -49c0 -35 -26 -55 -64 -55c-31 0 -55 20 -55 55c0 28 12 57 23 113c8 42 13 97 13 175v239c0 24 -21 23 -37 23h-42v44l165 14v-294c0 -103 24 -146 77 -146c73 0 139 66 139 182v177
c0 24 -20 23 -46 23h-32v44l164 14v-395c0 -31 15 -31 35 -31h44v-44h-162z" />
    <glyph glyph-name="paragraph" unicode="&#xb6;" horiz-adv-x="469" 
d="M217 -196v546c-117 3 -175 96 -175 175c0 80 59 171 175 175h70v-896h-70zM357 -196v896h70v-896h-70z" />
    <glyph glyph-name="periodcentered" unicode="&#xb7;" horiz-adv-x="250" 
d="M55 351c0 37 30 70 70 70c37 0 70 -32 70 -70s-33 -70 -70 -70c-40 0 -70 33 -70 70z" />
    <glyph glyph-name="periodcentered" unicode="&#x2219;" horiz-adv-x="250" 
d="M55 351c0 37 30 70 70 70c37 0 70 -32 70 -70s-33 -70 -70 -70c-40 0 -70 33 -70 70z" />
    <glyph glyph-name="afii10071" unicode="&#x451;" horiz-adv-x="482" 
d="M398 133l40 -21c-49 -114 -139 -126 -195 -126c-140 0 -209 116 -209 242c0 142 91 242 214 242c132 0 200 -106 200 -227v-23h-311c0 -136 57 -190 118 -190c39 0 100 11 143 103zM137 264h192c15 0 18 13 18 20v19c-3 44 -26 123 -102 123c-49 0 -102 -48 -108 -162z
M101 626c0 28 23 52 53 52c29 0 52 -23 52 -52s-23 -53 -52 -53c-31 0 -53 26 -53 53zM290 626c0 29 24 52 53 52s52 -23 52 -52c0 -30 -24 -53 -52 -53c-27 0 -53 22 -53 53z" />
    <glyph glyph-name="afii61352" unicode="&#x2116;" horiz-adv-x="1057" 
d="M675 0h-56l-353 517v-389c0 -85 -29 -142 -120 -142c-63 0 -118 41 -118 93c0 43 27 77 70 77c42 0 59 -30 59 -59c0 -11 -5 -21 -14 -30c-7 -7 -15 -13 -15 -20s9 -18 27 -18c23 0 57 10 57 86v410c0 65 -4 108 -88 108h-47v47h209l336 -494v355c0 43 6 153 135 153
c77 0 109 -49 109 -92c0 -27 -16 -66 -64 -66c-55 0 -63 41 -63 50c0 14 5 26 9 32c5 9 10 14 10 19s-4 15 -23 15c-51 0 -60 -58 -60 -105v-547zM749 95h253v-61h-253v61zM1008 331c0 -92 -68 -141 -133 -141s-133 49 -133 141c0 90 68 141 133 141s133 -51 133 -141z
M940 332c0 60 -11 118 -65 118s-65 -58 -65 -118c0 -62 11 -118 65 -118c53 0 65 54 65 118z" />
    <glyph glyph-name="afii10101" unicode="&#x454;" horiz-adv-x="491" 
d="M414 292h-35c-7 72 -66 134 -131 134c-68 0 -110 -83 -110 -138v-27h188v-44h-188c-6 -84 37 -187 132 -187c37 0 106 5 143 124l44 -16c-42 -127 -113 -152 -187 -152c-130 0 -236 113 -236 247c0 107 65 237 201 237c39 0 87 -10 132 -51l17 37h30v-164z" />
    <glyph glyph-name="guillemotright" unicode="&#xbb;" 
d="M191 227l-73 133l37 22l127 -154l-133 -152l-29 20zM334 228l-120 191l35 23l213 -215l-217 -219l-36 26z" />
    <glyph glyph-name="afii10105" unicode="&#x458;" horiz-adv-x="358" 
d="M246 470v-418c0 -141 -76 -209 -147 -209c-65 0 -85 50 -85 80c0 41 32 54 53 54c19 0 53 -12 53 -50c0 -3 0 -6 -1 -9c-2 -11 -5 -13 -5 -18c0 -7 4 -10 12 -10c3 0 6 1 8 2c20 10 26 34 26 61v435c0 22 -20 22 -45 22h-45v47zM246 620c0 -33 -27 -60 -60 -60
s-60 27 -60 60s27 60 60 60s60 -27 60 -60z" />
    <glyph glyph-name="afii10054" unicode="&#x405;" horiz-adv-x="592" 
d="M517 680v-245h-48c-25 168 -110 212 -192 212c-124 0 -151 -64 -151 -115c0 -90 97 -112 196 -135c113 -26 239 -57 239 -207c0 -193 -194 -204 -239 -204c-91 0 -132 15 -208 64l-35 -64h-48v289h48c17 -101 81 -242 241 -242c133 0 155 76 155 122
c0 103 -118 117 -171 127c-207 40 -262 135 -262 245c0 109 105 167 236 167c40 0 111 -11 167 -67l28 53h44z" />
    <glyph glyph-name="afii10102" unicode="&#x455;" horiz-adv-x="453" 
d="M387 456v-160h-38c-26 70 -65 130 -145 130c-45 0 -90 -23 -90 -74c0 -65 64 -67 144 -80c62 -10 156 -35 156 -145c0 -47 -24 -141 -155 -141c-55 0 -107 13 -155 45l-20 -31h-45v167h45c45 -116 110 -137 166 -137c67 0 99 28 99 73c0 68 -73 75 -134 86
c-59 11 -171 32 -171 140c0 71 56 141 162 141c29 0 74 -5 126 -44l17 30h38z" />
    <glyph glyph-name="afii10104" unicode="&#x457;" horiz-adv-x="339" 
d="M42 410v47l173 13v-395c0 -31 15 -31 35 -31h63v-44h-283v44h63c20 0 35 0 35 31v313c0 22 -24 22 -31 22h-55zM132 610c0 -30 -26 -56 -56 -56c-23 0 -56 18 -56 56c0 32 24 56 56 56c38 0 56 -33 56 -56zM319 610c0 -38 -33 -56 -56 -56c-30 0 -56 26 -56 56
c0 23 18 56 56 56c32 0 56 -24 56 -56z" />
    <glyph glyph-name="afii10017" unicode="&#x410;" horiz-adv-x="784" 
d="M0 0v47h12c48 0 87 22 110 76l242 571h56l244 -568c24 -56 54 -78 120 -79v-47h-331v47l45 -1c57 -1 65 27 56 49l-49 117h-284l-28 -71c-4 -9 -8 -20 -8 -33c0 -31 21 -61 70 -61h28v-47h-283zM240 259h244l-122 286h-5z" />
    <glyph glyph-name="afii10018" unicode="&#x411;" horiz-adv-x="701" 
d="M611 453h-50c-16 175 -110 180 -201 180h-56c-53 0 -49 -25 -49 -47v-185h115c249 0 300 -128 300 -203c0 -183 -215 -198 -322 -198h-312v47h58c53 0 49 25 49 47v492c0 22 4 47 -49 47h-58v47h575v-227zM255 354v-260c0 -22 -4 -47 49 -47h48c136 0 192 83 192 150
c0 153 -163 157 -216 157h-73z" />
    <glyph glyph-name="afii10019" unicode="&#x412;" horiz-adv-x="703" 
d="M36 680h334c198 0 260 -98 260 -168c0 -69 -51 -133 -144 -156v-6c111 -10 186 -81 186 -175c0 -66 -46 -175 -256 -175h-380v47h58c53 0 49 25 49 47v492c0 22 4 47 -49 47h-58v47zM255 372h112c40 0 148 5 148 128c0 94 -75 133 -146 133h-65c-53 0 -49 -25 -49 -47
v-214zM255 325v-231c0 -22 -4 -47 49 -47h70c49 0 172 5 172 134c0 97 -72 144 -172 144h-119z" />
    <glyph glyph-name="afii10020" unicode="&#x413;" horiz-adv-x="608" 
d="M586 438h-38c-13 92 -59 195 -184 195h-77c-27 0 -32 -11 -32 -34v-505c0 -22 -4 -47 49 -47h58v-47h-326v47h58c53 0 49 25 49 47v492c0 22 4 47 -49 47h-58v47h550v-242z" />
    <glyph glyph-name="afii10021" unicode="&#x414;" horiz-adv-x="754" 
d="M117 680h598v-47h-58c-53 0 -49 -25 -49 -47v-491c0 -22 -4 -47 49 -47h58v-243h-37c-3 161 -100 196 -178 196h-263c-80 0 -175 -35 -178 -196h-37v243h35c71 0 96 10 132 173c19 87 44 265 44 346c0 52 -25 66 -99 66h-17v47zM380 633c-90 0 -79 -45 -92 -136
c-7 -51 -5 -48 -8 -76c-2 -20 -12 -94 -16 -118c-21 -145 -44 -130 -44 -215c0 -42 33 -40 58 -40h169c53 0 49 25 49 47v491c0 22 4 47 -49 47h-67z" />
    <glyph glyph-name="afii10022" unicode="&#x415;" horiz-adv-x="678" 
d="M636 435h-49c-19 145 -89 198 -177 198h-106c-53 0 -49 -25 -49 -47v-219h63c64 0 98 30 98 107v24h49v-312h-49v20c0 43 -13 114 -95 114h-66v-226c0 -22 -4 -47 49 -47h125c130 0 158 136 158 197v18h49v-262h-600v47h58c53 0 49 25 49 47v492c0 22 4 47 -49 47h-58v47
h600v-245z" />
    <glyph glyph-name="afii10024" unicode="&#x416;" horiz-adv-x="1124" 
d="M399 680h326v-47h-58c-53 0 -49 -25 -49 -47v-208h67c117 0 118 109 125 169c11 96 72 147 145 147c77 0 121 -54 121 -111c0 -48 -38 -76 -74 -76c-51 0 -75 36 -75 68c0 38 25 40 25 63c0 7 -4 8 -11 8c-22 0 -66 -7 -77 -104c-14 -122 -41 -161 -85 -182v-4
c127 -13 152 -130 162 -189c6 -37 13 -96 47 -96c39 0 47 73 47 95v16h53v-20c0 -129 -71 -176 -131 -176c-70 0 -118 53 -135 171c-25 173 -58 174 -136 174h-68v-237c0 -22 -4 -47 49 -47h58v-47h-326v47h58c53 0 49 25 49 47v237h-68c-78 0 -111 -1 -136 -174
c-17 -118 -65 -171 -135 -171c-60 0 -131 47 -131 176v20h53v-16c0 -22 8 -95 47 -95c34 0 41 59 47 96c10 59 35 176 162 189v4c-44 21 -71 60 -85 182c-11 97 -55 104 -77 104c-7 0 -11 -1 -11 -8c0 -23 25 -25 25 -63c0 -32 -24 -68 -75 -68c-36 0 -74 28 -74 76
c0 57 44 111 121 111c73 0 134 -51 145 -147c7 -60 8 -169 125 -169h67v208c0 22 4 47 -49 47h-58v47z" />
    <glyph glyph-name="afii10025" unicode="&#x417;" horiz-adv-x="615" 
d="M121 417h-47v263h45l26 -45c54 42 110 59 187 59c160 0 226 -107 226 -173c0 -62 -38 -132 -146 -162v-6c122 -17 172 -103 172 -190c0 -90 -113 -177 -283 -177c-202 0 -265 120 -265 189c0 42 27 91 81 91c43 0 79 -27 79 -73c0 -15 -7 -30 -16 -41
c-27 -33 -50 2 -50 -33c0 -21 48 -86 172 -86c131 0 156 98 156 131c0 156 -154 168 -247 168h-16v47h18c83 0 219 -8 219 138c0 87 -65 130 -141 130c-72 0 -162 -71 -170 -230z" />
    <glyph glyph-name="afii10026" unicode="&#x418;" horiz-adv-x="823" 
d="M255 169l313 423v13c0 23 -18 28 -42 28h-66v47h327v-47h-58c-53 0 -49 -25 -49 -47v-492c0 -22 -4 -47 49 -47h58v-47h-326v47h58c53 0 49 25 49 47v417l-313 -423v-14c0 -11 -1 -27 27 -27h80v-47h-326v47h58c53 0 49 25 49 47v492c0 22 4 47 -49 47h-58v47h326v-47
h-58c-53 0 -49 -25 -49 -47v-417z" />
    <glyph glyph-name="afii10027" unicode="&#x419;" horiz-adv-x="823" 
d="M255 169l313 423v13c0 23 -18 28 -42 28h-66v47h327v-47h-58c-53 0 -49 -25 -49 -47v-492c0 -22 -4 -47 49 -47h58v-47h-326v47h58c53 0 49 25 49 47v417l-313 -423v-14c0 -11 -1 -27 27 -27h80v-47h-326v47h58c53 0 49 25 49 47v492c0 22 4 47 -49 47h-58v47h326v-47
h-58c-53 0 -49 -25 -49 -47v-417zM412 718c-113 0 -158 43 -158 84c0 36 38 55 69 55c36 0 44 -23 44 -35c0 -24 -18 -28 -29 -34c-7 -4 -9 -4 -9 -9c0 -23 60 -28 83 -28s83 5 83 28c0 5 -2 5 -9 9c-11 6 -29 10 -29 34c0 10 7 35 44 35c30 0 68 -18 68 -55
c0 -29 -26 -84 -157 -84z" />
    <glyph glyph-name="afii10028" unicode="&#x41a;" horiz-adv-x="762" 
d="M255 330v-236c0 -22 -4 -47 49 -47h58v-47h-326v47h58c53 0 49 25 49 47v492c0 22 4 47 -49 47h-58v47h326v-47h-58c-53 0 -49 -25 -49 -47v-209h15c112 0 156 16 172 120c13 84 18 197 149 197c75 0 123 -54 123 -111c0 -48 -41 -76 -75 -76c-33 0 -75 18 -75 69
c0 18 4 35 18 49c4 5 9 9 9 14c0 9 -9 9 -13 9c-23 0 -64 -8 -76 -105c-15 -122 -43 -160 -86 -186c235 -51 108 -290 210 -290c22 0 43 25 47 112h52c10 -114 -49 -193 -131 -193c-117 0 -129 140 -140 213c-19 122 -56 131 -183 131h-16z" />
    <glyph glyph-name="afii10029" unicode="&#x41b;" horiz-adv-x="792" 
d="M153 633v47h603v-47h-58c-53 0 -49 -25 -49 -47v-492c0 -22 -4 -47 49 -47h58v-47h-326v47h58c53 0 49 25 49 47v492c0 22 4 47 -49 47h-63c-90 0 -85 -72 -90 -164c-11 -242 3 -484 -186 -484c-96 0 -127 78 -127 138c0 49 41 70 74 70c46 0 70 -33 70 -63
c0 -15 -6 -30 -14 -42c-11 -15 -31 -23 -31 -32c0 -8 13 -24 34 -24c25 0 88 13 107 148c10 67 15 139 15 278c0 132 -5 175 -109 175h-15z" />
    <glyph glyph-name="afii10030" unicode="&#x41c;" horiz-adv-x="923" 
d="M280 680l181 -492h6l165 492h255v-47h-58c-53 0 -49 -25 -49 -47v-492c0 -22 -4 -47 49 -47h58v-47h-326v47h58c53 0 49 25 49 47v519h-6l-204 -613h-26l-229 613h-6v-479c0 -70 29 -87 94 -87h14v-47h-269v47h15c49 0 93 12 93 87v452c0 22 4 47 -49 47h-58v47h243z" />
    <glyph glyph-name="afii10031" unicode="&#x41d;" horiz-adv-x="826" 
d="M571 382v204c0 22 4 47 -49 47h-58v47h326v-47h-58c-53 0 -49 -25 -49 -47v-492c0 -22 -4 -47 49 -47h58v-47h-326v47h58c53 0 49 25 49 47v241h-316v-241c0 -22 -4 -47 49 -47h58v-47h-326v47h58c53 0 49 25 49 47v492c0 22 4 47 -49 47h-58v47h326v-47h-58
c-53 0 -49 -25 -49 -47v-204h316z" />
    <glyph glyph-name="afii10032" unicode="&#x41e;" horiz-adv-x="704" 
d="M352 694c211 0 321 -199 321 -354c0 -154 -110 -354 -321 -354s-321 200 -321 354c0 155 110 354 321 354zM352 33c101 0 195 92 195 307c0 212 -95 307 -195 307s-195 -95 -195 -307c0 -215 94 -307 195 -307z" />
    <glyph glyph-name="afii10033" unicode="&#x41f;" horiz-adv-x="826" 
d="M36 0l1 47h58c53 0 49 25 49 47v492c0 22 4 47 -49 47h-58v47h753v-47h-58c-53 0 -49 -25 -49 -47v-492c0 -22 -4 -47 49 -47h58v-47h-326v47h58c53 0 49 25 49 47v492c0 22 4 47 -49 47h-217c-53 0 -49 -25 -49 -47v-492c0 -22 -4 -47 49 -47h58v-47h-327z" />
    <glyph glyph-name="afii10034" unicode="&#x420;" horiz-adv-x="686" 
d="M255 292v-198c0 -22 -4 -47 49 -47h58v-47h-326v47h58c53 0 49 25 49 47v492c0 22 4 47 -49 47h-58v47h285c150 0 329 -27 329 -194c0 -58 -32 -194 -286 -194h-109zM255 339h95c37 0 174 8 174 147c0 70 -37 147 -187 147h-53c-28 0 -29 -25 -29 -33v-261z" />
    <glyph glyph-name="afii10035" unicode="&#x421;" horiz-adv-x="658" 
d="M572 233h50c-36 -218 -173 -247 -263 -247c-223 0 -323 185 -323 368c0 174 113 340 314 340c92 0 146 -35 172 -54l25 40h46l15 -244h-48c-29 136 -87 211 -205 211c-102 0 -193 -74 -193 -290c0 -57 4 -324 206 -324c142 0 192 125 204 200z" />
    <glyph glyph-name="afii10036" unicode="&#x422;" horiz-adv-x="660" 
d="M36 680h588v-262h-50c-4 167 -95 222 -155 222c-24 0 -33 -8 -33 -33v-513c0 -22 -4 -47 49 -47h58v-47h-326v47h58c53 0 49 25 49 47v513c0 28 -13 33 -33 33c-60 0 -151 -54 -155 -222h-50v262z" />
    <glyph glyph-name="afii10037" unicode="&#x423;" horiz-adv-x="756" 
d="M445 245l117 292c6 14 11 28 13 44c1 5 1 10 0 15c-6 36 -42 37 -69 37h-18v47h246v-47h-29c-41 0 -69 -61 -76 -77l-189 -457c-43 -104 -111 -113 -165 -113c-107 0 -147 90 -147 156c0 52 51 66 77 66c36 0 61 -33 61 -64c0 -11 -3 -41 -36 -60c-6 -4 -15 -7 -15 -12
c0 -14 20 -43 64 -43c65 0 99 51 112 97l-238 448c-32 61 -91 59 -113 59h-12v47h328v-47h-17c-33 0 -75 2 -75 -30c0 -6 4 -17 6 -21l170 -337h5z" />
    <glyph glyph-name="afii10038" unicode="&#x424;" horiz-adv-x="886" 
d="M280 0v47h81c8 0 26 3 26 28v57h-97c-216 0 -259 122 -259 219c0 96 43 220 259 220h97v34c0 17 -7 28 -41 28h-66v47h327v-47h-66c-24 0 -42 -5 -42 -28v-34h98c200 0 258 -109 258 -220c0 -97 -43 -219 -258 -219h-98v-57c0 -16 10 -28 27 -28h81v-47h-327zM387 528
h-23c-111 0 -211 -15 -207 -177c-6 -178 127 -176 207 -176h23v353zM499 528v-353h24c79 0 212 -2 206 176c4 162 -97 177 -206 177h-24z" />
    <glyph glyph-name="afii10039" unicode="&#x425;" horiz-adv-x="815" 
d="M57 633v47h308v-47h-29c-41 0 -49 -9 -49 -26c0 -13 5 -18 11 -26l128 -174l117 150c7 10 16 24 16 40c0 27 -20 36 -49 36h-38v47h271v-47c-81 -4 -106 -38 -125 -62l-160 -200l193 -258c30 -40 61 -66 115 -66h18v-47h-332v47h16c35 0 75 0 75 32c0 21 -15 37 -25 51
l-126 171l-134 -171c-18 -24 -19 -39 -19 -47c0 -34 36 -36 48 -36h16h20v-47h-292v47h14c37 0 94 15 149 83l169 210l-182 238c-36 47 -57 52 -124 55z" />
    <glyph glyph-name="afii10040" unicode="&#x426;" horiz-adv-x="849" 
d="M36 680h326v-47h-58c-53 0 -49 -25 -49 -47v-492c0 -22 -4 -47 49 -47h221c53 0 49 25 49 47v492c0 22 4 47 -49 47h-58v47h326v-47h-58c-53 0 -49 -25 -49 -47v-492c0 -22 -4 -47 49 -47h78v-243h-46c-8 191 -120 196 -181 196h-550v47h58c53 0 49 25 49 47v492
c0 22 4 47 -49 47h-58v47z" />
    <glyph glyph-name="afii10041" unicode="&#x427;" horiz-adv-x="789" 
d="M534 367v219c0 22 4 47 -49 47h-44v47h312v-47h-58c-53 0 -49 -25 -49 -47v-492c0 -22 -4 -47 49 -47h58v-47h-326v47h58c53 0 49 25 49 47v220c-48 -16 -105 -31 -176 -31c-162 0 -215 24 -215 144v159c0 22 4 47 -49 47h-58v47h312v-47h-44c-53 0 -49 -25 -49 -47v-181
c0 -52 52 -75 129 -75c24 0 102 8 150 37z" />
    <glyph glyph-name="afii10042" unicode="&#x428;" horiz-adv-x="1134" 
d="M36 680h326v-47h-58c-53 0 -49 -25 -49 -47v-492c0 -22 -4 -47 49 -47h158c53 0 49 25 49 47v492c0 22 4 47 -49 47h-38v47h287v-47h-39c-53 0 -49 -25 -49 -47v-492c0 -22 -4 -47 49 -47h158c53 0 49 25 49 47v492c0 22 4 47 -49 47h-58v47h326v-47h-58
c-53 0 -49 -25 -49 -47v-492c0 -22 -4 -47 49 -47h58v-47h-1062v47h58c53 0 49 25 49 47v492c0 22 4 47 -49 47h-58v47z" />
    <glyph glyph-name="afii10043" unicode="&#x429;" horiz-adv-x="1171" 
d="M36 680h326v-47h-58c-53 0 -49 -25 -49 -47v-492c0 -22 -4 -47 49 -47h158c53 0 49 25 49 47v492c0 22 4 47 -49 47h-38v47h287v-47h-39c-53 0 -49 -25 -49 -47v-492c0 -22 -4 -47 49 -47h158c53 0 49 25 49 47v492c0 22 4 47 -49 47h-58v47h326v-47h-58
c-53 0 -49 -25 -49 -47v-492c0 -22 -4 -47 49 -47h100v-243h-53c-10 108 -46 196 -164 196h-887v47h58c53 0 49 25 49 47v492c0 22 4 47 -49 47h-58v47z" />
    <glyph glyph-name="afii10044" unicode="&#x42a;" horiz-adv-x="842" 
d="M36 680h493v-47h-58c-53 0 -49 -25 -49 -47v-204h103c235 0 295 -97 295 -185s-43 -197 -288 -197h-329v47h58c53 0 49 25 49 47v515c0 12 2 31 -33 31c-75 0 -179 -38 -190 -213h-51v253zM422 335v-243c0 -45 26 -45 42 -45h38c72 0 192 7 192 147
c0 135 -142 141 -191 141h-81z" />
    <glyph glyph-name="afii10045" unicode="&#x42b;" horiz-adv-x="1028" 
d="M255 383h89c255 0 312 -104 312 -186c0 -49 -12 -197 -291 -197h-329v47h58c53 0 49 25 49 47v492c0 22 4 47 -49 47h-58v47h326v-47h-58c-53 0 -49 -25 -49 -47v-203zM255 336v-264c0 -29 33 -25 79 -25c65 0 196 4 196 148c0 74 -46 141 -194 141h-81zM666 680h326v-47
h-58c-53 0 -49 -25 -49 -47v-492c0 -22 -4 -47 49 -47h58v-47h-326v47h58c53 0 49 25 49 47v492c0 22 4 47 -49 47h-58v47z" />
    <glyph glyph-name="afii10046" unicode="&#x42c;" horiz-adv-x="678" 
d="M255 383h89c255 0 312 -104 312 -186c0 -49 -12 -197 -291 -197h-329v47h58c53 0 49 25 49 47v492c0 22 4 47 -49 47h-58v47h326v-47h-58c-53 0 -49 -25 -49 -47v-203zM255 336v-242c0 -22 -4 -47 49 -47h30c64 0 196 4 196 148c0 74 -46 141 -194 141h-81z" />
    <glyph glyph-name="afii10047" unicode="&#x42d;" horiz-adv-x="635" 
d="M189 379h289c-1 243 -129 268 -170 268c-102 0 -192 -97 -203 -229h-48v262h44l42 -52c72 59 123 66 177 66c172 0 284 -133 284 -353c0 -209 -135 -355 -322 -355c-121 0 -246 63 -246 172c0 64 43 95 86 95c42 0 66 -38 66 -76c0 -16 -9 -31 -20 -43
c-19 -21 -39 -14 -39 -34c0 -32 60 -67 144 -67c86 0 204 34 205 299h-289v47z" />
    <glyph glyph-name="afii10048" unicode="&#x42e;" horiz-adv-x="1061" 
d="M255 333v-239c0 -22 -4 -47 49 -47h58v-47h-326v47h58c53 0 49 25 49 47v492c0 22 4 47 -49 47h-58v47h326v-47h-58c-53 0 -49 -25 -49 -47v-206h137c17 184 159 314 318 314c212 0 320 -198 320 -354c0 -155 -108 -354 -320 -354c-199 0 -316 181 -321 347h-134z
M515 340c0 -248 117 -307 195 -307c77 0 194 59 194 307c0 213 -92 307 -194 307c-103 0 -195 -95 -195 -307z" />
    <glyph glyph-name="afii10049" unicode="&#x42f;" horiz-adv-x="768" 
d="M732 680l-1 -47h-58c-53 0 -49 -25 -49 -47v-492c0 -22 -4 -47 49 -47h58v-47h-326v47h58c53 0 49 25 49 47v237h-69c-62 0 -132 -2 -150 -122c-8 -55 -16 -223 -144 -223c-50 0 -118 38 -118 155v23h49v-14c0 -63 23 -76 39 -76c101 0 -5 212 187 267v5
c-122 7 -211 76 -211 165c0 84 81 169 279 169h358zM512 378v215c0 23 3 40 -57 40h-70c-112 0 -164 -51 -164 -122c0 -121 127 -133 265 -133h26z" />
    <glyph glyph-name="afii10065" unicode="&#x430;" horiz-adv-x="522" 
d="M503 56l19 -21c-39 -35 -59 -49 -100 -49c-59 0 -76 46 -79 78h-6c-36 -52 -94 -78 -161 -78c-112 0 -137 67 -137 117c0 46 24 139 297 187v39c0 12 -1 97 -107 97c-37 0 -86 -17 -86 -41c0 -11 10 -13 21 -22c12 -10 18 -19 18 -33c0 -31 -24 -51 -50 -51
c-29 0 -60 21 -60 55c0 56 48 136 171 136c167 0 179 -110 179 -165v-222c0 -20 0 -53 34 -53c19 0 29 7 47 26zM336 173v75c-87 -16 -193 -46 -193 -129c0 -41 20 -89 73 -89c54 0 120 50 120 143z" />
    <glyph glyph-name="afii10066" unicode="&#x431;" horiz-adv-x="514" 
d="M433 697h29c-21 -129 -105 -137 -163 -137c-79 0 -154 5 -195 -89c-10 -22 -21 -62 -25 -110l11 -2c49 89 111 111 166 111c77 0 133 -19 175 -73c28 -35 49 -90 49 -172c0 -148 -106 -239 -224 -239c-126 0 -222 83 -222 301c0 341 171 365 249 366c59 1 127 -9 150 44z
M256 30c33 0 120 17 120 195c0 30 0 201 -120 201c-92 0 -118 -107 -118 -201c0 -178 89 -195 118 -195z" />
    <glyph glyph-name="afii10067" unicode="&#x432;" horiz-adv-x="531" 
d="M39 456h275c122 0 161 -60 161 -113c0 -65 -67 -97 -118 -101v-6c112 -7 135 -71 135 -117c0 -70 -62 -119 -202 -119h-251v44h44c20 0 35 0 35 31v306c0 31 -15 31 -35 31h-44v44zM204 260h72c47 0 94 10 101 63c1 8 1 15 0 23c-7 62 -66 66 -94 66h-56
c-19 0 -23 -5 -23 -23v-129zM204 216v-145c0 -26 11 -27 38 -27h46c24 0 100 8 100 86c0 77 -66 86 -113 86h-71z" />
    <glyph glyph-name="afii10068" unicode="&#x433;" horiz-adv-x="471" 
d="M443 259h-39c-4 31 -12 77 -22 101c-14 34 -36 52 -94 52h-49c-37 0 -35 -28 -35 -42v-295c0 -31 15 -31 35 -31h44v-44h-244v44h44c20 0 35 0 35 31v306c0 31 -15 31 -35 31h-44v44h404v-197z" />
    <glyph glyph-name="afii10069" unicode="&#x434;" horiz-adv-x="554" 
d="M379 1h-205c-108 0 -113 -110 -112 -147h-40v191h46c34 0 57 57 75 114c32 101 42 165 42 203c0 48 -36 50 -61 50h-14v44h405v-44h-45c-29 0 -34 -9 -34 -37v-291c0 -13 -1 -39 18 -39h61v-191h-40c-6 114 -50 147 -96 147zM350 68v319c0 25 -23 25 -32 25h-51
c-36 0 -27 -34 -45 -142c-27 -162 -59 -142 -59 -210c0 -7 2 -15 21 -15h127c15 0 39 0 39 23z" />
    <glyph glyph-name="afii10070" unicode="&#x435;" horiz-adv-x="483" 
d="M399 133l40 -21c-49 -114 -139 -126 -195 -126c-141 0 -210 115 -210 242c0 142 90 242 215 242c132 0 200 -106 200 -227v-23h-311c0 -136 57 -190 118 -190c39 0 100 11 143 103zM138 264h192c15 0 18 13 18 20v19c-3 44 -26 123 -101 123c-50 0 -103 -48 -109 -162z
" />
    <glyph glyph-name="afii10072" unicode="&#x436;" horiz-adv-x="866" 
d="M312 456h242v-44h-42c-18 0 -36 0 -36 -31v-118h59c75 0 78 58 99 127c15 49 39 80 92 80c49 0 77 -34 77 -69c0 -40 -27 -61 -54 -61c-39 0 -48 35 -48 50c0 3 1 6 1 9c0 2 1 10 -5 10c-12 0 -17 -21 -21 -36c-22 -76 -30 -122 -79 -132v-3c92 -10 118 -93 125 -116
c9 -29 15 -77 42 -77c18 0 34 27 31 74h37c5 -115 -58 -133 -92 -133c-72 0 -88 73 -97 120c-24 117 -72 113 -126 113h-41v-144c0 -31 15 -31 35 -31h44v-44h-244v44h44c20 0 35 0 35 31v144h-41c-54 0 -102 4 -126 -113c-9 -47 -25 -120 -97 -120c-34 0 -97 18 -92 133h37
c-3 -47 13 -74 31 -74c27 0 33 48 42 77c7 23 33 106 125 116v3c-49 10 -57 56 -79 132c-4 15 -9 36 -21 36c-6 0 -5 -8 -5 -10c0 -3 1 -6 1 -9c0 -15 -9 -50 -48 -50c-27 0 -54 21 -54 61c0 35 28 69 77 69c53 0 77 -31 92 -80c21 -69 24 -127 99 -127h59v118
c0 31 -18 31 -36 31h-42v44z" />
    <glyph glyph-name="afii10073" unicode="&#x437;" horiz-adv-x="471" 
d="M108 292h-34v164h35l13 -27c37 24 80 41 131 41c114 0 165 -57 165 -116c0 -35 -21 -89 -111 -108l-1 -6c123 -11 126 -97 126 -112c0 -27 -18 -66 -41 -90c-49 -51 -137 -52 -152 -52c-188 0 -200 110 -200 148c0 46 43 54 57 54c26 0 59 -15 59 -57c0 -8 -3 -17 -7 -24
c-8 -16 -19 -22 -19 -34c0 -24 34 -43 93 -43c77 0 106 52 106 102c0 89 -105 92 -131 91v37h15c87 0 109 49 109 89c0 49 -36 77 -87 77c-41 0 -117 -26 -126 -134z" />
    <glyph glyph-name="afii10074" unicode="&#x438;" horiz-adv-x="625" 
d="M204 127l204 249c8 10 13 14 13 22c0 13 -13 14 -26 14h-53v44h244v-44h-44c-20 0 -35 0 -35 -31v-306c0 -31 15 -31 35 -31h44v-44h-244v44h44c20 0 35 0 35 31v254l-206 -249c-5 -6 -11 -14 -11 -22c0 -14 16 -14 32 -14h46v-44h-243v44h44c20 0 35 0 35 31v306
c0 31 -15 31 -35 31h-44v44h244v-44h-44c-20 0 -35 0 -35 -31v-254z" />
    <glyph glyph-name="afii10075" unicode="&#x439;" horiz-adv-x="625" 
d="M204 127l203 249c9 11 17 15 13 26c-5 10 -13 10 -25 10h-53v44h244v-44h-43c-22 0 -36 0 -36 -31v-306c0 -31 14 -31 36 -31h43v-44h-244v44h44c17 0 35 0 35 31v254l-207 -249c-5 -6 -10 -16 -10 -22c0 -13 15 -14 32 -14h46v-44h-243v44h43c26 0 36 3 36 31v306
c0 28 -10 31 -36 31h-43v44h243v-44h-43c-20 0 -35 0 -35 -31v-254zM312 524c-93 0 -159 42 -159 103c0 40 33 54 60 54c18 0 50 -12 50 -45c0 -42 -32 -17 -32 -47c0 -7 10 -25 81 -25c60 0 81 13 81 25c0 8 -8 11 -13 13c-11 6 -19 18 -19 34c0 28 27 45 50 45
c31 0 60 -21 60 -54c0 -47 -48 -103 -159 -103z" />
    <glyph glyph-name="afii10076" unicode="&#x43a;" horiz-adv-x="621" 
d="M39 0v44h44c20 0 35 0 35 31v306c0 31 -15 31 -35 31h-44v44h243v-44h-43c-20 0 -35 0 -35 -31v-122h34c99 0 110 9 135 109c8 32 24 102 97 102c56 0 77 -42 77 -69c0 -20 -9 -61 -55 -61c-37 0 -48 34 -48 51c0 4 2 8 2 12s-2 6 -6 6c-6 0 -14 -9 -22 -40
c-18 -72 -29 -116 -77 -128v-3c59 -6 107 -51 125 -116c9 -33 15 -77 42 -77c17 0 31 29 31 55v19h37v-22c0 -21 -8 -111 -93 -111c-90 0 -86 100 -108 159c-26 70 -57 70 -114 70h-57v-140c0 -31 15 -31 35 -31h44v-44h-244z" />
    <glyph glyph-name="afii10077" unicode="&#x43b;" horiz-adv-x="592" 
d="M132 412v44h421v-44h-44c-20 0 -35 0 -35 -31v-306c0 -31 15 -31 35 -31h44v-44h-244v44h44c20 0 35 0 35 31v318c0 19 -25 19 -39 19h-38c-68 0 -49 -80 -59 -178c-11 -111 -33 -248 -156 -248c-18 0 -76 10 -76 72c0 37 24 59 53 59c31 0 46 -24 46 -44
c0 -4 -1 -7 -2 -11c-1 -3 -1 -6 -1 -9c0 -12 9 -14 15 -14c12 0 37 8 56 78c5 18 23 93 27 213v24c-2 48 -17 58 -63 58h-19z" />
    <glyph glyph-name="afii10078" unicode="&#x43c;" horiz-adv-x="716" 
d="M241 456l121 -301h3l99 301h213v-44h-44c-20 0 -35 0 -35 -31v-306c0 -31 15 -31 35 -31h44v-44h-244v44h44c20 0 35 0 35 31v337h-8l-137 -412h-29l-168 412h-8v-324c0 -39 23 -44 63 -44h16v-44h-202v44h13c52 0 66 18 66 45v292c0 31 -15 31 -35 31h-44v44h202z" />
    <glyph glyph-name="afii10079" unicode="&#x43d;" horiz-adv-x="611" 
d="M204 261h203v120c0 31 -11 31 -35 31h-43v44h243v-44h-44c-20 0 -35 0 -35 -31v-306c0 -31 15 -31 35 -31h44v-44h-244v44h44c20 0 35 0 35 31v142h-203v-142c0 -31 15 -31 35 -31h44v-44h-244v44h44c20 0 35 0 35 31v306c0 31 -15 31 -35 31h-44v44h244v-44h-44
c-20 0 -35 0 -35 -31v-120z" />
    <glyph glyph-name="afii10080" unicode="&#x43e;" horiz-adv-x="526" 
d="M34 228c0 88 63 242 229 242c143 0 229 -121 229 -242s-86 -242 -229 -242c-166 0 -229 154 -229 242zM138 228c0 -145 52 -198 125 -198c64 0 125 42 125 198c0 166 -69 198 -125 198s-125 -32 -125 -198z" />
    <glyph glyph-name="afii10081" unicode="&#x43f;" horiz-adv-x="611" 
d="M372 412h-133c-20 0 -35 0 -35 -31v-306c0 -31 15 -31 35 -31h44v-44h-244v44h44c20 0 35 0 35 31v306c0 31 -15 31 -35 31h-44v44h533v-44h-44c-20 0 -35 0 -35 -31v-306c0 -31 15 -31 35 -31h44v-44h-244v44h44c20 0 35 0 35 31v306c0 31 -15 31 -35 31z" />
    <glyph glyph-name="afii10082" unicode="&#x440;" horiz-adv-x="572" 
d="M32 456l164 14v-69c46 60 96 69 129 69c148 0 213 -127 213 -250c0 -118 -80 -234 -213 -234c-33 0 -89 7 -128 73h-8l7 -42v-121c0 -31 15 -31 35 -31h56v-44h-256v44h44c20 0 35 0 35 31v485c0 31 -15 31 -35 31h-43v44zM196 225c0 -136 57 -195 119 -195
c45 0 119 27 119 196c0 174 -70 200 -119 200c-50 0 -119 -35 -119 -201z" />
    <glyph glyph-name="afii10083" unicode="&#x441;" horiz-adv-x="474" 
d="M396 154l44 -16c-42 -126 -113 -152 -187 -152c-155 0 -219 138 -219 258c0 114 80 226 222 226c119 0 170 -77 170 -127c0 -23 -11 -66 -59 -66c-54 0 -59 40 -59 56c0 11 4 24 9 32c6 9 15 14 15 23c0 16 -29 38 -66 38c-120 0 -128 -135 -128 -193
c0 -165 70 -203 129 -203c74 0 112 69 129 124z" />
    <glyph glyph-name="afii10084" unicode="&#x442;" horiz-adv-x="503" 
d="M130 0l-1 44h44c20 0 35 0 35 31v314c0 24 -18 29 -35 29c-28 0 -93 -30 -97 -155h-40v193h431v-193h-40c-4 118 -65 155 -97 155c-17 0 -35 -5 -35 -29v-314c0 -31 15 -31 35 -31h44v-44h-244z" />
    <glyph glyph-name="afii10085" unicode="&#x443;" horiz-adv-x="560" 
d="M22 412v44h227v-44h-29c-30 0 -33 -15 -33 -23c0 -12 5 -19 9 -29l116 -267h6l98 243c9 21 10 33 10 42c0 31 -33 34 -52 34h-24v44h196v-44h-9c-31 0 -45 -19 -57 -47l-189 -438c-38 -88 -84 -106 -135 -106c-64 0 -87 47 -87 76c0 34 26 57 55 57c26 0 50 -20 50 -48
c0 -8 -1 -12 -4 -19c-2 -4 -4 -7 -4 -12c0 -4 0 -12 17 -12c34 0 59 54 65 69l24 54l-174 385c-15 33 -26 41 -59 41h-17z" />
    <glyph glyph-name="afii10086" unicode="&#x444;" horiz-adv-x="718" 
d="M237 -179v44h44c20 0 35 0 35 31v180l-4 -1c-8 -27 -37 -89 -110 -89c-84 0 -171 88 -171 247c0 158 88 237 167 237c74 0 104 -54 114 -84h4v170c0 11 -1 31 -24 31h-71v44l181 14v-259h4c13 43 49 84 114 84c96 0 167 -106 167 -237c0 -161 -88 -247 -171 -247
c-73 0 -102 62 -110 89l-4 1v-180c0 -31 15 -31 35 -31h44v-44h-244zM135 235c0 -92 12 -205 94 -205c89 0 87 126 87 206c0 91 -5 190 -94 190c-22 0 -87 -19 -87 -191zM583 235c0 151 -51 191 -89 191c-91 0 -92 -96 -92 -191c0 -77 -4 -205 85 -205c86 0 96 118 96 205z
" />
    <glyph glyph-name="afii10087" unicode="&#x445;" horiz-adv-x="599" 
d="M39 412v44h225v-44h-12c-27 0 -31 -10 -31 -19c0 -8 2 -13 11 -25l70 -90l62 71c9 11 24 24 24 42c0 12 -9 21 -33 21h-13v44h180v-44c-48 -1 -70 -28 -82 -42l-106 -123l119 -142c25 -29 57 -61 96 -61h11v-44h-241v44h16c21 0 39 4 39 21c0 8 -5 17 -9 21l-85 107
l-80 -95c-7 -8 -13 -15 -13 -28c0 -22 18 -26 40 -26h14v-44h-202v44c34 0 65 16 105 61l105 119l-123 147c-19 22 -37 43 -87 41z" />
    <glyph glyph-name="afii10088" unicode="&#x446;" horiz-adv-x="628" 
d="M329 456h244v-44h-44c-20 0 -35 0 -35 -31v-306c0 -16 7 -31 26 -31h77v-191h-37c-7 147 -97 147 -152 147h-369v44h44c20 0 35 0 35 31v306c0 31 -15 31 -35 31h-44v44h244v-44h-44c-20 0 -35 0 -35 -31v-306c0 -11 3 -31 37 -31h142c10 0 25 3 25 33v304
c0 31 -15 31 -35 31h-44v44z" />
    <glyph glyph-name="afii10089" unicode="&#x447;" horiz-adv-x="575" 
d="M260 456v-44h-43c-20 0 -35 0 -35 -31v-110c0 -40 30 -65 77 -65c28 0 63 5 112 39v136c0 31 -15 31 -35 31h-24v44h224v-44h-44c-20 0 -35 0 -35 -31v-306c0 -31 15 -31 35 -31h44v-44h-243v44h45c25 0 33 3 33 30v129c-57 -34 -110 -41 -145 -41
c-118 0 -130 69 -130 114v105c0 31 -15 31 -35 31h-44v44h243z" />
    <glyph glyph-name="afii10090" unicode="&#x448;" horiz-adv-x="898" 
d="M39 0v44h44c20 0 35 0 35 31v306c0 31 -15 31 -35 31h-44v44h244v-44h-44c-20 0 -35 0 -35 -31v-306c0 -31 15 -31 35 -31h132c20 0 35 0 35 31v306c0 31 -15 31 -35 31h-44v44h244v-44h-44c-20 0 -35 0 -35 -31v-306c0 -31 15 -31 35 -31h132c20 0 35 0 35 31v306
c0 31 -15 31 -35 31h-44v44h244v-44h-44c-20 0 -35 0 -35 -31v-306c0 -31 15 -31 35 -31h44v-44h-820z" />
    <glyph glyph-name="afii10091" unicode="&#x449;" horiz-adv-x="901" 
d="M39 0v44h44c20 0 35 0 35 31v306c0 31 -15 31 -35 31h-44v44h244v-44h-44c-20 0 -35 0 -35 -31v-306c0 -31 15 -31 35 -31h132c20 0 35 0 35 31v306c0 31 -15 31 -35 31h-44v44h244v-44h-44c-20 0 -35 0 -35 -31v-306c0 -31 15 -31 35 -31h132c20 0 35 0 35 31v306
c0 31 -15 31 -35 31h-44v44h244v-44h-44c-20 0 -35 0 -35 -31v-306c0 -22 7 -34 35 -31h47v-208h-43c-4 137 -54 164 -134 164h-646z" />
    <glyph glyph-name="afii10092" unicode="&#x44a;" horiz-adv-x="640" 
d="M34 456h366v-44h-43c-20 0 -35 0 -35 -31v-119h97c190 0 193 -112 193 -135c0 -30 -19 -127 -195 -127h-260v44h44c20 0 35 0 35 31v298c0 30 -7 44 -43 44c-75 0 -118 -75 -121 -155h-38v194zM322 218v-143c0 -31 15 -31 35 -31h57c5 0 94 0 94 81c0 55 -37 93 -105 93
h-81z" />
    <glyph glyph-name="afii10093" unicode="&#x44b;" horiz-adv-x="782" 
d="M283 456v-44h-44c-20 0 -35 0 -35 -31v-119h98c167 0 193 -86 193 -135c0 -32 -19 -127 -195 -127h-261v44h44c20 0 35 0 35 31v306c0 31 -15 31 -35 31h-44v44h244zM204 218v-141c0 -9 0 -33 36 -33h50c39 0 101 14 101 85c0 91 -79 89 -111 89h-76zM499 456h244v-44
h-44c-20 0 -35 0 -35 -31v-306c0 -31 15 -31 35 -31h44v-44h-244v44h44c20 0 35 0 35 31v306c0 31 -15 31 -35 31h-44v44z" />
    <glyph glyph-name="afii10094" unicode="&#x44c;" horiz-adv-x="523" 
d="M283 456v-44h-45c-19 0 -34 0 -34 -31v-119h98c167 0 193 -86 193 -135c0 -32 -19 -127 -195 -127h-261v44h44c20 0 35 0 35 31v306c0 31 -15 31 -35 31h-44v44h244zM204 218v-141c0 -9 0 -33 36 -33h50c39 0 101 14 101 85c0 91 -79 89 -111 89h-76z" />
    <glyph glyph-name="afii10095" unicode="&#x44d;" horiz-adv-x="471" 
d="M92 292h-35v164h29l17 -37c8 7 16 13 24 19c36 24 74 32 109 32c90 0 201 -74 201 -237c0 -142 -114 -247 -237 -247c-99 0 -166 66 -166 130c0 46 29 62 55 62c38 0 57 -26 57 -53c0 -10 -5 -20 -10 -29c-7 -10 -18 -18 -18 -26c0 -18 31 -40 83 -40
c115 0 134 127 132 188h-187v44h187c2 99 -53 164 -110 164c-64 0 -120 -54 -131 -134z" />
    <glyph glyph-name="afii10096" unicode="&#x44e;" horiz-adv-x="795" 
d="M204 261h101c16 100 87 209 227 209c132 0 229 -110 229 -242s-97 -242 -229 -242c-124 0 -221 95 -229 231h-99v-142c0 -31 15 -31 35 -31h44v-44h-244v44h44c20 0 35 0 35 31v306c0 31 -15 31 -35 31h-44v44h243v-44h-44c-19 0 -34 0 -34 -31v-120zM407 228
c0 -166 69 -198 125 -198c73 0 125 53 125 198c0 166 -69 198 -125 198c-113 0 -125 -128 -125 -198z" />
    <glyph glyph-name="afii10097" unicode="&#x44f;" horiz-adv-x="595" 
d="M34 130h39c2 -35 7 -81 32 -81c26 0 33 51 38 74c8 36 27 93 108 100v7c-78 2 -155 37 -155 104c0 60 53 122 195 122h265v-44h-44c-20 0 -35 0 -35 -31v-306c0 -31 15 -31 35 -31h44v-44h-244v44h44c20 0 35 0 35 31v135h-70c-45 0 -64 -22 -81 -72
c-25 -75 -15 -152 -104 -152c-71 0 -100 54 -102 144zM391 254v125c0 29 -12 31 -40 33c-15 1 -30 1 -45 0c-40 -2 -106 -13 -106 -79c0 -32 21 -79 105 -79h86z" />
    <glyph glyph-name="Euro" unicode="&#x20ac;" 
d="M534 549h-23c-10 70 -61 100 -130 100c-113 0 -155 -93 -168 -238h265l-17 -42h-250c-1 -9 -1 -21 -1 -31v-32h223l-18 -42h-203c10 -149 70 -233 170 -233c61 0 118 27 129 100h23l-7 -87c-28 -32 -75 -57 -172 -57c-163 0 -247 97 -264 277h-71l18 42h47
c-1 10 -1 25 -1 34c0 7 0 21 1 29h-65l18 42h50c21 177 91 283 267 283c102 0 148 -28 172 -54z" />
    </font>
</defs>
</svg>
