<?xml version="1.0" standalone="no"?>
<!DOCTYPE svg PUBLIC "-//W3C//DTD SVG 1.1//EN" "http://www.w3.org/Graphics/SVG/1.1/DTD/svg11.dtd" >
<svg xmlns="http://www.w3.org/2000/svg" xmlns:xlink="http://www.w3.org/1999/xlink" version="1.1">
<metadata>
Created by FontForge 20161116 at Mon May 17 14:31:34 2004
 By Jimmy Wärting
Copyright (c) 1990-1996 ParaGraph
</metadata>
<defs>
<font id="SchoolBookC-Bold" horiz-adv-x="292" >
  <font-face 
    font-family="SchoolBookC"
    font-weight="700"
    font-stretch="normal"
    units-per-em="1000"
    panose-1="0 0 8 0 0 0 0 0 0 0"
    ascent="716"
    descent="-284"
    x-height="456"
    cap-height="680"
    bbox="-483 -284 1252 870"
    underline-thickness="50"
    underline-position="-100"
    stemh="46"
    stemv="135"
    unicode-range="U+0020-2122"
  />
<missing-glyph horiz-adv-x="233" 
 />
    <glyph glyph-name=".notdef" horiz-adv-x="233" 
 />
    <glyph glyph-name="space" unicode=" " horiz-adv-x="233" 
 />
    <glyph glyph-name="space" unicode="&#xa0;" horiz-adv-x="233" 
 />
    <glyph glyph-name="exclam" unicode="!" horiz-adv-x="350" 
d="M193 186h-40c-2 86 -15 155 -36 237s-34 127 -34 169c0 53 46 80 90 80c38 0 89 -22 89 -80c0 -227 -61 -111 -69 -406zM92 64c0 45 36 82 81 82c44 0 81 -36 81 -82c0 -44 -37 -81 -81 -81c-45 0 -81 38 -81 81z" />
    <glyph glyph-name="quotedbl" unicode="&#x22;" horiz-adv-x="526" 
d="M235 742l-42 -182h-56l-42 182h140zM431 742l-42 -182h-56l-42 182h140z" />
    <glyph glyph-name="numbersign" unicode="#" horiz-adv-x="674" 
d="M427 10h-57l30 167h-184l-29 -167h-58l30 167h-153l11 64h153l36 199h-153l11 64h153l30 166h57l-30 -166h184l30 166h57l-30 -166h153l-11 -64h-153l-36 -199h153l-11 -64h-153zM411 241l36 199h-184l-36 -199h184z" />
    <glyph glyph-name="dollar" unicode="$" horiz-adv-x="676" 
d="M573 680v-221h-36c-24 104 -63 194 -166 198v-257c127 -34 221 -85 221 -205c0 -124 -98 -203 -221 -215v-118h-47v118c-33 4 -80 16 -150 74l-41 -54h-49v232h43c57 -174 156 -201 197 -207v259c-132 48 -224 102 -224 225c0 103 92 184 224 191v55h47v-55
c38 -4 91 -19 133 -62l26 42h43zM324 416v243c-71 -4 -134 -50 -134 -131c0 -67 78 -98 134 -112zM371 271v-254c71 0 151 56 151 123c0 79 -57 98 -151 131z" />
    <glyph glyph-name="percent" unicode="%" horiz-adv-x="1053" 
d="M242 342c-96 0 -158 85 -158 179c0 92 62 179 158 179s157 -86 157 -179c0 -104 -70 -179 -157 -179zM242 371c59 3 67 99 67 150c0 123 -38 147 -67 150c-25 -2 -68 -20 -68 -150c0 -145 55 -150 68 -150zM698 -19c-87 0 -157 75 -157 179c0 93 61 179 157 179
s158 -87 158 -179c0 -94 -62 -179 -158 -179zM698 10c13 0 68 5 68 150c0 130 -43 148 -68 150c-24 -3 -67 -20 -67 -150c0 -61 11 -147 67 -150zM664 730l45 -27l-428 -747l-48 27z" />
    <glyph glyph-name="ampersand" unicode="&#x26;" horiz-adv-x="801" 
d="M530 344v23h198v-24c-106 -16 -105 -141 -190 -215c21 -26 63 -61 99 -61c30 0 71 25 81 53c8 22 7 27 17 27l18 -10c-56 -123 -111 -157 -156 -157c-36 0 -86 13 -139 77c-64 -62 -134 -77 -191 -77c-160 0 -225 107 -225 204c0 116 88 174 203 215c-8 24 -19 63 -19 89
c0 102 65 212 196 212c74 0 132 -50 132 -119c0 -98 -115 -144 -209 -171c51 -104 103 -185 172 -261c38 33 86 103 86 148c0 23 -8 47 -66 47h-7zM338 432c110 23 153 97 153 151c0 39 -25 87 -82 87c-51 0 -104 -39 -104 -113c0 -39 19 -92 33 -125zM253 374
c-64 -23 -103 -79 -103 -147c0 -110 71 -189 176 -189c36 0 79 19 112 38c-89 95 -145 190 -185 298z" />
    <glyph glyph-name="quotesingle" unicode="'" horiz-adv-x="208" 
d="M174 742l-42 -182h-56l-42 182h140z" />
    <glyph glyph-name="parenleft" unicode="(" horiz-adv-x="351" 
d="M308 -147v-43c-117 61 -280 193 -280 444c0 215 120 364 280 446v-44c-54 -40 -132 -124 -132 -401c0 -248 60 -347 132 -402z" />
    <glyph glyph-name="parenright" unicode=")" horiz-adv-x="351" 
d="M43 -190v43c71 56 131 153 131 402c0 246 -61 347 -131 401v44c157 -81 280 -232 280 -446c0 -250 -167 -385 -280 -444z" />
    <glyph glyph-name="asterisk" unicode="*" horiz-adv-x="528" 
d="M265 416c-10 0 -14 -8 -19 -15l-10 -14c-8 -11 -12 -16 -11 -29c2 -15 5 -26 5 -44c0 -47 -40 -63 -67 -63c-42 0 -68 38 -68 71c0 95 54 5 111 87l16 23c1 1 5 7 5 11c0 10 -37 23 -54 23c-15 0 -27 -9 -39 -15s-24 -9 -36 -9c-43 0 -64 43 -64 69s22 68 69 68
c50 0 62 -51 72 -65c12 -16 47 -26 58 -26c9 0 14 3 14 25c0 30 -3 38 -10 46c-10 13 -42 38 -42 70c0 30 26 65 70 65c43 0 69 -34 69 -65c0 -28 -24 -52 -33 -61c-12 -12 -18 -16 -18 -38v-17c-1 -21 3 -25 12 -25c12 0 48 6 62 31c7 15 24 60 71 60c38 0 66 -34 66 -79
c0 -30 -28 -58 -62 -58c-13 0 -28 4 -39 10s-19 14 -33 14c-19 0 -57 -11 -57 -22c0 -8 20 -41 34 -50c32 -20 97 -3 97 -72c0 -38 -28 -70 -58 -70c-27 0 -77 8 -77 62c0 22 4 41 4 55c0 15 -25 47 -38 47z" />
    <glyph glyph-name="plus" unicode="+" horiz-adv-x="698" 
d="M311 616h76v-262h262v-75h-262v-262h-76v262h-262v75h262v262z" />
    <glyph glyph-name="comma" unicode="," 
d="M95 -157l-25 27c25 25 85 76 85 107c0 23 -16 22 -29 22c-44 0 -70 34 -70 78c0 61 55 80 85 80c47 0 95 -34 95 -108c0 -84 -77 -155 -141 -206z" />
    <glyph glyph-name="hyphenminus" horiz-adv-x="351" 
d="M59 200v100h233v-100h-233z" />
    <glyph glyph-name="period" unicode="." horiz-adv-x="286" 
d="M62 64c0 45 36 82 81 82c44 0 81 -36 81 -82c0 -44 -37 -81 -81 -81c-45 0 -81 38 -81 81z" />
    <glyph glyph-name="slash" unicode="/" horiz-adv-x="493" 
d="M91 -196l-54 23l374 853l54 -23z" />
    <glyph glyph-name="zero" unicode="0" horiz-adv-x="580" 
d="M292 -20c-152 0 -270 146 -270 360c0 232 135 360 267 360c118 0 269 -109 269 -360c0 -168 -88 -360 -266 -360zM290 27c71 0 88 66 94 107c9 59 10 162 10 204c0 123 -8 184 -11 206c-10 66 -33 109 -93 109c-68 0 -84 -57 -93 -109c-5 -29 -11 -81 -11 -206
c0 -81 3 -158 10 -204c6 -41 23 -107 94 -107z" />
    <glyph glyph-name="one" unicode="1" horiz-adv-x="583" 
d="M89 555v45c114 13 207 26 250 100h37v-611c0 -35 20 -42 51 -42h80v-47h-416v47h80c31 0 51 7 51 42v428c0 40 -18 38 -43 38h-90z" />
    <glyph glyph-name="two" unicode="2" horiz-adv-x="580" 
d="M45 0v61c154 254 330 263 330 445c0 85 -44 147 -120 147c-75 0 -112 -51 -112 -70c0 -21 29 -22 49 -33c17 -10 30 -29 30 -60c0 -45 -35 -77 -86 -77c-46 0 -85 36 -85 85c0 85 77 202 231 202c167 0 252 -102 252 -195c0 -102 -82 -162 -139 -196
c-66 -39 -149 -82 -230 -170v-5h227c30 0 50 9 61 19c24 21 26 56 28 94h51v-247h-487z" />
    <glyph glyph-name="three" unicode="3" horiz-adv-x="581" 
d="M178 335v45c198 4 193 84 193 150c0 122 -86 128 -110 128c-64 0 -92 -28 -92 -49c0 -43 23 -6 43 -45c7 -14 6 -31 6 -47c0 -28 -34 -54 -73 -54c-46 0 -81 35 -81 84c0 77 85 153 229 153c134 0 224 -85 224 -173c0 -68 -62 -141 -163 -160v-5
c151 -19 193 -117 193 -181c0 -86 -87 -201 -274 -201c-144 0 -239 94 -239 180c0 54 39 96 96 96c54 0 79 -42 79 -77c0 -11 -2 -23 -7 -33c-22 -52 -58 -21 -58 -60c0 -24 44 -59 113 -59c33 0 131 8 131 158c0 132 -84 150 -177 150h-33z" />
    <glyph glyph-name="four" unicode="4" horiz-adv-x="579" 
d="M554 209v-60h-101v-62c0 -41 30 -40 52 -40h49v-47h-356v47h49c22 0 52 -1 52 40v62h-277v60l381 491h50v-491h101zM299 483l-215 -274h215v274z" />
    <glyph glyph-name="five" unicode="5" horiz-adv-x="580" 
d="M160 556l-19 -138h3c65 46 131 47 154 47c181 0 237 -144 237 -260c0 -107 -102 -225 -259 -225c-54 0 -129 15 -177 59c-20 19 -54 59 -54 112c0 67 49 94 87 94c64 0 83 -48 83 -84c0 -10 -4 -19 -9 -28c-17 -32 -50 -39 -50 -56c0 -16 30 -46 89 -46
c49 0 130 28 130 179c0 159 -69 193 -129 193c-45 0 -97 -26 -111 -60c-4 -9 -12 -28 -30 -28s-29 10 -29 29c0 18 12 21 16 52l40 292h37c4 -4 44 -43 142 -43c42 0 91 12 132 58h56c-42 -129 -135 -154 -250 -154c-30 0 -62 3 -89 7z" />
    <glyph glyph-name="six" unicode="6" horiz-adv-x="579" 
d="M193 360h3c36 47 93 68 146 68c122 0 206 -97 206 -225c0 -138 -130 -223 -250 -223c-207 0 -265 179 -270 286c-1 14 0 27 0 41c9 299 182 393 298 393c88 0 183 -54 183 -138c0 -48 -28 -83 -72 -83c-60 0 -76 45 -76 75c0 10 4 19 9 27c11 19 21 22 21 31
c0 14 -14 39 -60 39c-123 0 -140 -156 -138 -291zM192 197c0 -11 -1 -21 0 -32c2 -26 13 -142 100 -142c74 0 95 76 95 169c0 102 -15 180 -95 180c-90 0 -98 -121 -100 -175z" />
    <glyph glyph-name="seven" unicode="7" horiz-adv-x="580" 
d="M79 414h-45l33 282c27 -9 57 -16 88 -16h304c48 0 28 23 70 23c9 0 20 -5 20 -22c0 -30 -44 -68 -144 -277c-33 -68 -54 -139 -54 -254c0 -23 3 -46 3 -69c0 -71 -44 -101 -87 -101c-32 0 -92 13 -92 93c0 103 98 257 144 320c92 129 105 148 111 158h-257
c-31 0 -77 3 -94 -137z" />
    <glyph glyph-name="eight" unicode="8" horiz-adv-x="579" 
d="M400 392v-3c88 -38 157 -81 157 -187c0 -107 -91 -222 -271 -222c-197 0 -264 105 -264 184c0 44 14 126 137 175v3c-79 45 -105 106 -105 158c0 115 106 200 232 200c122 0 220 -73 220 -166c0 -47 -22 -109 -106 -142zM341 419c45 36 54 80 56 102c1 9 1 18 0 27
c-6 62 -54 102 -110 102c-65 0 -106 -44 -106 -100c0 -75 88 -100 160 -131zM214 311c-44 -42 -74 -71 -74 -129c0 -95 63 -153 160 -153c86 0 134 67 134 127c0 65 -81 108 -220 155z" />
    <glyph glyph-name="nine" unicode="9" horiz-adv-x="580" 
d="M385 320h-3c-47 -55 -96 -68 -145 -68c-147 0 -206 124 -206 225c0 115 102 223 249 223c205 0 264 -183 269 -285c1 -14 0 -27 0 -41c-10 -298 -179 -394 -296 -394c-74 0 -182 46 -182 138c0 47 27 84 71 84c55 0 76 -38 76 -76c0 -10 -5 -19 -10 -27
c-11 -19 -20 -22 -20 -31c0 -12 13 -39 59 -39c115 0 140 138 138 291zM386 483c0 11 1 21 0 32c-6 107 -55 142 -99 142c-74 0 -95 -76 -95 -169c0 -103 16 -179 94 -179c90 0 99 120 100 174z" />
    <glyph glyph-name="colon" unicode=":" horiz-adv-x="286" 
d="M62 64c0 55 45 82 81 82c44 0 81 -37 81 -82c0 -44 -37 -81 -81 -81c-37 0 -81 28 -81 81zM62 386c0 53 44 81 81 81c44 0 81 -37 81 -81c0 -45 -38 -81 -81 -81c-36 0 -81 27 -81 81z" />
    <glyph glyph-name="semicolon" unicode=";" horiz-adv-x="304" 
d="M65 386c0 43 36 81 81 81c44 0 81 -37 81 -81c0 -45 -38 -81 -81 -81c-45 0 -81 36 -81 81zM102 -157l-26 27c67 60 85 91 85 107c0 3 0 7 -1 10c-8 22 -31 3 -62 20c-23 12 -36 39 -36 70c0 30 22 80 85 80c47 0 95 -34 95 -108c0 -86 -77 -152 -140 -206z" />
    <glyph glyph-name="less" unicode="&#x3c;" horiz-adv-x="697" 
d="M36 316l599 255l26 -59l-463 -192v-7l463 -192l-26 -60z" />
    <glyph glyph-name="equal" unicode="=" horiz-adv-x="697" 
d="M43 424h600v-75h-600v75zM44 256h610v-75h-610v75z" />
    <glyph glyph-name="greater" unicode="&#x3e;" horiz-adv-x="697" 
d="M661 316l-599 -255l-26 60l462 191v8l-462 192l26 59z" />
    <glyph glyph-name="question" unicode="?" horiz-adv-x="530" 
d="M315 200h-44c-4 62 2 105 14 143c19 66 64 129 64 199c0 73 -54 105 -105 105c-39 0 -58 -26 -58 -41c0 -18 18 -27 28 -35c13 -11 24 -31 24 -51c0 -36 -28 -75 -71 -75c-41 0 -89 26 -89 91c0 91 93 156 210 156c113 0 207 -68 207 -175c0 -53 -19 -90 -72 -130
c-45 -35 -120 -67 -108 -187zM214 64c0 45 37 82 81 82c36 0 81 -27 81 -82c0 -53 -44 -81 -81 -81c-44 0 -81 37 -81 81z" />
    <glyph glyph-name="at" unicode="@" horiz-adv-x="1009" 
d="M785 549l-73 -247c-7 -25 -16 -63 -16 -85c0 -21 2 -74 68 -74c106 0 156 128 156 229c0 182 -135 378 -409 378c-242 0 -413 -172 -413 -416c0 -279 207 -420 409 -420c66 0 150 14 241 83l37 -49c-73 -56 -165 -97 -278 -97c-231 0 -479 166 -479 473
c0 236 167 483 483 483c313 0 470 -229 470 -438c0 -106 -43 -289 -239 -289c-42 0 -111 10 -147 85c-76 -70 -136 -84 -174 -84c-86 0 -193 57 -193 200c0 169 122 306 258 306c70 0 127 -37 157 -90l20 52h122zM561 223l57 207c-3 19 -18 75 -81 75
c-101 0 -173 -113 -173 -232c0 -63 26 -122 91 -122c26 0 69 7 106 72z" />
    <glyph glyph-name="A" unicode="A" horiz-adv-x="809" 
d="M28 0v47c82 0 100 56 132 133l212 520h61l238 -556c23 -54 55 -98 116 -97v-47h-354v47h50c21 0 39 9 39 27c0 4 0 12 -11 37l-31 71h-263l-19 -51c-3 -9 -8 -28 -8 -37c0 -47 46 -47 71 -47h29v-47h-262zM237 229h222l-113 263h-1z" />
    <glyph glyph-name="B" unicode="B" horiz-adv-x="698" 
d="M34 680h353c58 0 255 -3 255 -153c0 -93 -83 -155 -181 -160v-10c82 -2 209 -40 209 -178c0 -136 -108 -179 -271 -179h-365v47h47c31 0 51 7 51 42v502c0 35 -20 42 -51 42h-47v47zM286 386h65c83 0 137 30 137 125c0 53 -15 122 -127 122h-36c-14 0 -39 -3 -39 -43
v-204zM286 339v-262c0 -28 19 -30 29 -30h52c62 0 129 5 129 143c0 67 -6 149 -145 149h-65z" />
    <glyph glyph-name="C" unicode="C" horiz-adv-x="656" 
d="M577 211h54c-23 -97 -93 -231 -271 -231c-217 0 -329 189 -329 368c0 200 134 352 308 352c74 0 129 -21 190 -63l30 43h38l8 -256h-47c-38 177 -125 226 -193 226c-92 0 -160 -79 -160 -301c0 -191 51 -309 172 -309c104 0 178 81 200 171z" />
    <glyph glyph-name="D" unicode="D" horiz-adv-x="754" 
d="M31 680h294c245 0 398 -155 398 -353c0 -253 -183 -327 -420 -327h-272v47h47c31 0 51 7 51 42v502c0 35 -20 42 -51 42h-47v47zM283 597v-509c0 -24 5 -41 57 -41c64 0 209 -10 209 299c0 266 -131 287 -228 287c-14 0 -38 -2 -38 -36z" />
    <glyph glyph-name="E" unicode="E" horiz-adv-x="670" 
d="M622 441h-46c-3 72 -39 192 -171 192h-75c-18 0 -44 4 -44 -36v-209h53c83 0 90 68 90 95v19h47v-276h-47v14c0 72 -36 100 -98 100h-45v-257c0 -21 1 -36 59 -36h40c53 0 204 19 205 212h46v-259h-602v47h47c31 0 51 7 51 42v502c0 35 -20 42 -51 42h-47v47h588v-239z
" />
    <glyph glyph-name="F" unicode="F" horiz-adv-x="669" 
d="M42 680h596v-240h-47c-31 192 -142 193 -199 193h-47s-51 1 -51 -43v-204h14c69 0 129 6 129 93v21h48v-272h-48v27c0 46 -41 84 -90 84h-53v-250c0 -35 20 -42 51 -42h47v-47h-350v47h47c31 0 51 7 51 42v502c0 35 -20 42 -51 42h-47v47z" />
    <glyph glyph-name="G" unicode="G" horiz-adv-x="748" 
d="M581 680h39l10 -240h-47c-31 112 -77 207 -190 207c-171 0 -178 -209 -178 -307c0 -167 32 -308 172 -308c71 0 117 40 117 100v105c0 55 -20 57 -51 57h-47v47h336v-47h-34c-20 0 -50 -2 -50 -43v-251h-36l-46 70c-14 -13 -30 -27 -54 -42c-52 -34 -97 -48 -162 -48
c-186 0 -318 151 -318 348c0 216 145 372 330 372c66 0 121 -22 175 -61z" />
    <glyph glyph-name="H" unicode="H" horiz-adv-x="826" 
d="M286 398h254v193c0 35 -20 42 -51 42h-33v47h336v-47h-47c-31 0 -51 -7 -51 -42v-502c0 -35 20 -42 51 -42h47v-47h-336v47h33c31 0 51 7 51 42v263h-254v-263c0 -35 20 -42 51 -42h33v-47h-336v47h47c31 0 51 7 51 42v502c0 35 -20 42 -51 42h-47v47h336v-47h-33
c-31 0 -51 -7 -51 -42v-193z" />
    <glyph glyph-name="I" unicode="I" horiz-adv-x="422" 
d="M36 680h350v-47h-47c-31 0 -51 -7 -51 -42v-502c0 -35 20 -42 51 -42h47v-47h-350v47h47c31 0 51 7 51 42v502c0 35 -20 42 -51 42h-47v47z" />
    <glyph glyph-name="J" unicode="J" horiz-adv-x="616" 
d="M221 680h350v-47h-47c-31 0 -51 -7 -51 -42v-353c0 -149 -51 -258 -216 -258c-147 0 -226 80 -226 171c0 58 37 103 94 103c48 0 78 -36 78 -77c0 -19 -7 -39 -19 -51c-25 -25 -71 -10 -71 -42c0 -31 55 -54 112 -54c84 0 94 65 94 101v460c0 35 -20 42 -51 42h-47v47z
" />
    <glyph glyph-name="K" unicode="K" horiz-adv-x="838" 
d="M34 680h350v-47h-47c-31 0 -51 -7 -51 -42v-260h6l204 223c17 18 21 32 21 44c0 20 -19 35 -48 35h-13v47h272v-47c-90 -8 -113 -27 -188 -106l-82 -87l220 -329c33 -50 69 -64 126 -64v-47h-348v47h35c14 0 26 6 26 24s-8 25 -17 39l-145 221l-69 -73v-169
c0 -35 20 -42 51 -42h47v-47h-350v47h47c31 0 51 7 51 42v502c0 35 -20 42 -51 42h-47v47z" />
    <glyph glyph-name="L" unicode="L" horiz-adv-x="669" 
d="M39 680h350v-47h-47c-31 0 -51 -7 -51 -42v-502c0 -38 19 -42 26 -42h43c61 0 207 9 222 177h48v-224h-591v47h47c31 0 51 7 51 42v502c0 35 -20 42 -51 42h-47v47z" />
    <glyph glyph-name="M" unicode="M" horiz-adv-x="930" 
d="M317 680l142 -438h6l147 438h279v-47h-47c-31 0 -51 -7 -51 -42v-502c0 -35 20 -42 51 -42h47v-47h-350v47h47c31 0 51 7 51 42v504h-5l-200 -593h-45l-199 603h-6v-473c0 -77 37 -83 75 -83h22v-47h-241v47h21c36 0 76 6 76 83v461c0 35 -20 42 -51 42h-47v47h278z" />
    <glyph glyph-name="N" unicode="N" horiz-adv-x="832" 
d="M45 680h231l354 -449h6v338c0 29 -6 64 -65 64h-33v47h249v-47h-33c-48 0 -65 -19 -65 -64v-589h-50l-437 561h-6v-431c0 -64 46 -63 65 -63h33v-47h-249v47h33c23 0 65 -1 65 63v481c0 35 -20 42 -51 42h-47v47z" />
    <glyph glyph-name="O" unicode="O" horiz-adv-x="724" 
d="M31 340c0 174 116 360 331 360s331 -186 331 -360c0 -172 -117 -360 -331 -360s-331 188 -331 360zM205 340c0 -125 10 -312 159 -312c145 0 155 185 155 312c0 206 -42 312 -155 312c-133 0 -159 -144 -159 -312z" />
    <glyph glyph-name="P" unicode="P" horiz-adv-x="678" 
d="M286 287v-198c0 -35 20 -42 51 -42h47v-47h-350v47h47c31 0 51 7 51 42v502c0 35 -20 42 -51 42h-47v47h332c240 0 287 -120 287 -201c0 -91 -51 -192 -262 -192h-105zM286 334h45c140 0 148 73 148 151c0 138 -80 147 -143 148h-19c-28 -1 -31 -13 -31 -33v-266z" />
    <glyph glyph-name="Q" unicode="Q" horiz-adv-x="732" 
d="M641 -21h52c-34 -111 -94 -125 -135 -125c-27 0 -103 2 -123 139c-18 -4 -42 -9 -68 -9c-133 0 -331 96 -331 356c0 174 116 360 331 360s331 -186 331 -360c0 -127 -60 -247 -159 -310c11 -48 23 -101 59 -101c21 0 36 18 43 50zM430 42c-6 80 -25 143 -88 143
c-28 0 -77 -14 -77 -72c0 -41 33 -84 104 -84c23 0 45 7 61 13zM498 146h6c15 72 20 145 20 194c0 272 -88 312 -156 312c-96 0 -158 -73 -158 -312c0 -94 10 -145 21 -185h5c10 32 41 83 131 83c63 0 110 -40 131 -92z" />
    <glyph glyph-name="R" unicode="R" horiz-adv-x="782" 
d="M34 680h378c220 0 257 -100 257 -158c0 -34 -11 -154 -216 -172v-7c61 -5 126 -44 145 -130c12 -57 5 -141 55 -141c27 0 45 28 47 100h48c-1 -62 -19 -192 -142 -192c-141 0 -147 146 -159 243c-14 110 -84 102 -131 102h-30v-236c0 -35 20 -42 51 -42h47v-47h-350v47
h47c31 0 51 7 51 42v502c0 35 -20 42 -51 42h-47v47zM286 372h74c59 0 144 17 144 141c0 93 -57 120 -140 120h-20c-47 0 -58 -2 -58 -50v-211z" />
    <glyph glyph-name="S" unicode="S" horiz-adv-x="686" 
d="M518 696h48v-233h-56c-13 82 -54 189 -181 189c-68 0 -133 -33 -133 -106c0 -81 67 -98 121 -111c117 -27 291 -65 291 -233c0 -115 -78 -222 -229 -222c-69 0 -146 17 -211 67l-42 -47h-48v245h56c51 -197 154 -217 242 -217c68 0 128 41 128 105
c0 91 -101 117 -186 139c-85 21 -226 57 -226 221c0 125 98 207 241 207c81 0 133 -29 162 -49z" />
    <glyph glyph-name="T" unicode="T" horiz-adv-x="672" 
d="M22 680h628v-259h-50c-11 183 -124 212 -167 212h-20v-544c0 -35 20 -42 51 -42h47v-47h-350v47h47c31 0 51 7 51 42v544h-19c-31 0 -156 -18 -168 -212h-50v259z" />
    <glyph glyph-name="U" unicode="U" horiz-adv-x="813" 
d="M42 680h350v-47h-47c-31 0 -51 -7 -51 -42v-357c0 -107 22 -201 157 -201c112 0 167 85 167 201v357c0 35 -20 42 -51 42h-47v47h254v-47h-47c-31 0 -51 -7 -51 -42v-357c0 -245 -199 -254 -257 -254c-96 0 -279 16 -279 254v357c0 35 -20 42 -51 42h-47v47z" />
    <glyph glyph-name="V" unicode="V" horiz-adv-x="807" 
d="M481 192l123 341c12 32 15 46 15 55c0 44 -40 45 -52 45h-48v47h266v-47c-67 -4 -98 -16 -119 -74l-209 -579h-69l-222 541c-30 73 -56 113 -138 112v47h371v-47h-23c-27 0 -62 2 -62 -29c0 -5 3 -18 5 -23z" />
    <glyph glyph-name="W" unicode="W" horiz-adv-x="1114" 
d="M39 633v47h321v-47h-12c-31 0 -39 -12 -39 -27c0 -11 2 -16 4 -23l128 -364h6l86 221l-46 126c-13 35 -28 66 -72 67v47h303v-47h-40c-20 0 -34 -11 -34 -28c0 -9 3 -16 5 -22l126 -360h5l124 328c8 22 9 35 9 38c0 41 -32 44 -69 44h-25v47h259v-47
c-76 3 -103 -33 -129 -102l-199 -531h-55l-133 362h-6l-143 -362h-53l-194 530c-27 73 -61 103 -127 103z" />
    <glyph glyph-name="X" unicode="X" horiz-adv-x="841" 
d="M31 633v47h367v-47h-16c-21 0 -45 -3 -45 -22c0 -13 7 -26 16 -38l97 -131h3l101 137c9 12 10 17 10 26s-3 24 -46 28h-14h-10v47h268v-47h-11c-59 0 -102 -20 -141 -69l-126 -159l208 -279c15 -20 60 -79 106 -79h15v-47h-382v47h44c12 0 48 -2 48 27
c0 16 -11 32 -21 46l-124 174h-5l-129 -172c-10 -14 -23 -26 -23 -40c0 -11 3 -35 37 -35h52v-47h-279v47c83 -2 116 41 132 61l182 227l-187 236c-26 33 -44 62 -113 62h-14z" />
    <glyph glyph-name="Y" unicode="Y" horiz-adv-x="717" 
d="M432 370l120 184c6 10 14 24 14 37c0 19 -6 42 -48 42h-19v47h218v-47c-56 1 -88 -47 -97 -61l-164 -251v-232c0 -35 20 -42 51 -42h47v-47h-350v47h47c31 0 51 7 51 42v207l-191 274c-32 46 -59 61 -111 63v47h351v-47h-37c-24 0 -35 -16 -35 -30c0 -8 5 -20 9 -26
l139 -207h5z" />
    <glyph glyph-name="Z" unicode="Z" horiz-adv-x="672" 
d="M91 680h517v-47l-362 -586h63c124 0 236 41 251 218h48v-265h-546v26l375 607h-55c-188 0 -238 -119 -244 -208h-47v255z" />
    <glyph glyph-name="bracketleft" unicode="[" horiz-adv-x="350" 
d="M313 680v-45h-137v-773h137v-41h-285v859h285z" />
    <glyph glyph-name="backslash" unicode="\" horiz-adv-x="493" 
d="M402 -196l-374 853l53 23l375 -853z" />
    <glyph glyph-name="bracketright" unicode="]" horiz-adv-x="351" 
d="M37 680h286v-859h-286v41h137v773h-137v45z" />
    <glyph glyph-name="asciicircum" unicode="^" horiz-adv-x="404" 
d="M202 610l-101 -101h-84l185 185l185 -185h-84z" />
    <glyph glyph-name="underscore" unicode="_" horiz-adv-x="580" 
d="M0 -110h580v-90h-580v90z" />
    <glyph glyph-name="grave" unicode="`" 
d="M34 700h154c27 -95 70 -127 70 -155c0 -9 -7 -16 -12 -17c-2 -1 -5 0 -7 0c-16 2 -17 -1 -109 69c-18 13 -78 66 -96 88v15z" />
    <glyph glyph-name="a" unicode="a" horiz-adv-x="564" 
d="M519 95l24 -17c-33 -57 -72 -95 -127 -95c-42 0 -68 21 -86 58c-61 -39 -98 -58 -162 -58c-94 0 -134 60 -134 106c0 76 70 173 284 189v75c0 20 -7 78 -79 78c-21 0 -59 -11 -59 -29c0 -7 3 -12 6 -18c4 -8 9 -20 9 -33c0 -34 -25 -60 -63 -60c-45 0 -61 36 -61 61
c0 57 63 121 196 121c165 0 186 -102 186 -168v-196c0 -22 -1 -49 19 -49c8 0 27 -1 47 35zM318 132v103c-70 -21 -138 -46 -138 -118c0 -26 2 -74 51 -74c45 0 87 44 87 89z" />
    <glyph glyph-name="b" unicode="b" horiz-adv-x="569" 
d="M6 697h27c25 0 83 2 177 14v-249l-6 -52h6c26 33 66 61 126 61c135 0 191 -124 191 -244c0 -116 -61 -244 -204 -244c-66 0 -115 28 -160 87l-57 -70h-31v623c0 29 -27 28 -42 28h-27v46zM199 227c0 -98 15 -182 91 -182c73 0 91 83 91 182c0 98 -17 182 -91 182
c-76 0 -91 -85 -91 -182z" />
    <glyph glyph-name="c" unicode="c" horiz-adv-x="485" 
d="M425 157l38 -14c-45 -132 -121 -160 -192 -160c-136 0 -237 95 -237 248c0 135 96 242 237 242c93 0 168 -56 168 -132c0 -34 -21 -73 -72 -73c-43 0 -67 29 -67 58c0 24 11 47 32 61c9 6 16 9 16 19s-18 30 -60 30c-91 0 -108 -109 -108 -205c0 -100 21 -195 117 -195
c69 0 106 59 128 121z" />
    <glyph glyph-name="d" unicode="d" horiz-adv-x="578" 
d="M289 697h28c25 0 83 2 177 14v-635c0 -22 10 -30 34 -30h36v-46h-205v64c-25 -47 -72 -81 -132 -81c-111 0 -185 102 -185 245c0 116 53 245 185 245c40 0 96 -11 132 -82h5l-5 43v174c0 48 -24 43 -42 43h-28v46zM270 408c-81 0 -82 -134 -82 -179
c0 -78 10 -177 82 -177c28 0 91 19 91 177c0 165 -71 179 -91 179z" />
    <glyph glyph-name="e" unicode="e" horiz-adv-x="502" 
d="M430 148l38 -23c-65 -110 -119 -142 -207 -142c-148 0 -227 118 -227 238c0 130 89 252 228 252c117 0 206 -98 206 -237v-25h-288c-3 -139 59 -170 110 -170c69 0 106 51 140 107zM180 258h128c17 0 16 13 16 43c0 14 2 126 -62 126c-32 0 -82 -20 -82 -127v-42z" />
    <glyph glyph-name="f" unicode="f" horiz-adv-x="402" 
d="M36 456h69c-4 187 117 255 203 255c64 0 114 -43 114 -102c0 -31 -12 -79 -65 -79c-54 0 -67 42 -67 65c0 17 7 29 10 33c10 15 16 11 16 23s-12 18 -25 18c-27 0 -69 -26 -69 -80c0 -34 10 -38 15 -92c1 -10 1 -19 2 -29c0 -4 1 -8 1 -12h109v-46h-109v-324
c0 -18 1 -40 38 -40h32v-46h-274v46h31c40 0 38 26 38 40v324h-69v46z" />
    <glyph glyph-name="g" unicode="g" horiz-adv-x="577" 
d="M140 184l-1 3c-37 18 -81 55 -81 124c0 88 66 162 209 162c49 0 83 -7 122 -26c18 23 61 71 113 71c41 0 69 -31 69 -63c0 -7 -2 -48 -44 -48c-49 0 -24 46 -61 46c-14 0 -36 -17 -46 -29c36 -30 55 -67 55 -110c0 -91 -89 -158 -208 -158c-33 0 -58 4 -88 14
c-20 -7 -30 -21 -30 -34c0 -42 75 -51 115 -54l75 -5c55 -4 165 -16 165 -121c0 -53 -40 -152 -246 -152c-200 0 -222 79 -222 109c0 35 26 75 79 89v5c-29 10 -67 36 -67 86c0 47 44 73 92 91zM267 189c73 0 82 78 82 126c0 103 -41 128 -82 128c-71 0 -83 -69 -83 -128
c0 -100 43 -126 83 -126zM406 -81c0 21 -14 66 -207 66c-76 0 -88 -36 -88 -64c0 -68 105 -72 158 -72c51 0 137 9 137 70z" />
    <glyph glyph-name="h" unicode="h" horiz-adv-x="612" 
d="M227 392h6c41 58 103 81 155 81c62 0 126 -29 126 -142v-255c0 -22 10 -30 34 -30h36v-46h-254v46h15c24 0 34 8 34 30v275c0 52 -37 52 -49 52c-43 0 -97 -51 -97 -91v-236c0 -22 10 -30 34 -30h15v-46h-254v46h36c24 0 34 8 34 30v547c0 29 -27 28 -41 28h-28v46h27
c25 0 83 2 177 14v-277z" />
    <glyph glyph-name="i" unicode="i" horiz-adv-x="331" 
d="M29 456c54 3 87 5 108 7c42 3 28 3 96 10v-397c0 -22 10 -30 34 -30h36v-46h-275v46h36c24 0 34 8 34 30v295c0 25 -9 39 -30 39h-39v46zM233 622c0 -33 -25 -73 -73 -73s-73 40 -73 73c0 32 25 72 73 72s73 -40 73 -72z" />
    <glyph glyph-name="j" unicode="j" horiz-adv-x="341" 
d="M263 473v-394c0 -186 -57 -275 -163 -275c-56 0 -94 30 -94 79c0 38 21 73 60 73c30 0 46 -20 50 -40c1 -6 1 -11 1 -17v-16c1 -15 3 -23 19 -23c19 0 30 22 30 51c0 37 -13 61 -22 77c-7 14 -16 36 -16 69v314c0 12 -1 39 -29 39h-41v46c62 4 89 5 109 7
c48 3 15 3 96 10zM262 622c0 -42 -31 -73 -73 -73c-41 0 -72 30 -72 73c0 41 31 72 72 72c43 0 73 -31 73 -72z" />
    <glyph glyph-name="k" unicode="k" horiz-adv-x="612" 
d="M233 225h6l123 120c9 9 21 19 21 37c0 16 -13 28 -30 28h-40v46h257v-46h-22c-47 0 -84 -27 -118 -59l-55 -53l124 -197c22 -34 53 -55 78 -55h7v-46h-243v46h10c19 0 33 3 33 19c0 7 -3 15 -7 21l-84 132l-60 -58v-84c0 -22 10 -30 34 -30h15v-46h-254v46h36
c24 0 34 8 34 30v547c0 9 -2 28 -42 28h-27v46h28c16 0 79 1 176 14v-486z" />
    <glyph glyph-name="l" unicode="l" horiz-adv-x="349" 
d="M38 697h27c25 0 83 2 177 14v-635c0 -22 10 -30 34 -30h36v-46h-275v46h36c24 0 34 8 34 30v547c0 29 -27 28 -41 28h-28v46z" />
    <glyph glyph-name="m" unicode="m" horiz-adv-x="887" 
d="M29 456c113 2 97 8 199 17v-75h5c51 49 94 75 156 75c31 0 85 -10 113 -79c68 76 136 79 169 79c23 0 118 -8 118 -141v-256c0 -22 10 -30 34 -30h36v-46h-253v46h14c24 0 34 8 34 30v257c0 34 -6 71 -53 71c-48 0 -90 -48 -90 -99v-229c0 -22 10 -30 34 -30h14v-46h-232
v46h15c24 0 34 8 34 30v257c0 22 -1 71 -51 71c-43 0 -92 -47 -92 -99v-229c0 -22 10 -30 34 -30h15v-46h-254v46h36c24 0 34 8 34 30v277c0 34 0 57 -30 57h-39v46z" />
    <glyph glyph-name="n" unicode="n" horiz-adv-x="612" 
d="M28 456c73 4 116 6 199 17v-81h6c41 58 103 81 156 81c118 0 125 -99 125 -142v-255c0 -22 10 -30 34 -30h36v-46h-254v46h15c24 0 34 8 34 30v275c0 52 -37 52 -49 52c-40 0 -97 -48 -97 -91v-236c0 -22 10 -30 34 -30h15v-46h-254v46h36c24 0 34 8 34 30v295
c0 12 -1 39 -29 39h-41v46z" />
    <glyph glyph-name="o" unicode="o" horiz-adv-x="542" 
d="M34 228c0 155 123 245 237 245c127 0 237 -100 237 -245s-110 -245 -237 -245c-114 0 -237 90 -237 245zM180 228c0 -86 5 -198 91 -198c84 0 91 110 91 198c0 66 -1 198 -91 198c-86 0 -91 -115 -91 -198z" />
    <glyph glyph-name="p" unicode="p" horiz-adv-x="586" 
d="M28 456c67 4 67 2 107 6c23 2 42 5 92 11v-63h6c23 35 61 63 127 63c53 0 192 -27 192 -254c0 -169 -99 -236 -190 -236c-47 0 -101 20 -129 63h-6l6 -61v-98c0 -22 10 -30 34 -30h36v-46h-275v46h36c24 0 34 8 34 30v490c0 16 -6 33 -29 33h-41v46zM320 409
c-92 0 -90 -155 -90 -183c0 -65 7 -184 90 -184c72 0 86 90 86 184s-14 183 -86 183z" />
    <glyph glyph-name="q" unicode="q" horiz-adv-x="570" 
d="M455 473h40v-576c0 -28 8 -40 39 -40h30v-46h-274v46h31c31 0 39 12 39 40v110l5 48h-5c-34 -49 -75 -72 -129 -72c-114 0 -189 107 -189 240c0 144 76 250 200 250c67 0 109 -25 159 -83zM360 233c0 78 -9 189 -87 189s-85 -118 -85 -190c0 -166 52 -188 86 -188
c43 0 86 38 86 189z" />
    <glyph glyph-name="r" unicode="r" horiz-adv-x="463" 
d="M68 410h-39v46h32c34 0 125 13 151 17v-85h6c22 36 69 85 139 85c55 0 92 -36 92 -96c0 -52 -28 -85 -71 -85c-40 0 -69 25 -69 64c0 13 1 15 7 29c3 8 5 11 5 15c0 5 -2 6 -6 6h-7c-75 -6 -75 -125 -75 -158v-172c0 -22 10 -30 34 -30h36v-46h-275v46h36
c24 0 34 8 34 30v295c0 25 -9 39 -30 39z" />
    <glyph glyph-name="s" unicode="s" horiz-adv-x="455" 
d="M349 473h47v-152h-51c-15 58 -65 110 -138 110c-58 0 -90 -24 -90 -59c0 -63 82 -59 150 -75c101 -24 154 -65 154 -151c0 -76 -54 -163 -182 -163c-27 0 -90 7 -133 42l-25 -42h-47v169h51c30 -84 80 -127 152 -127c83 0 90 50 90 67c0 53 -61 63 -122 78
c-69 16 -171 33 -171 148c0 91 59 155 167 155c60 0 99 -18 123 -33z" />
    <glyph glyph-name="t" unicode="t" horiz-adv-x="423" 
d="M242 456h109v-46h-109v-270c0 -33 -1 -81 43 -81c46 0 51 67 55 113h47c-4 -99 -39 -189 -151 -189c-109 0 -129 71 -129 171v256h-73v46c63 2 133 44 140 210h68v-210z" />
    <glyph glyph-name="u" unicode="u" horiz-adv-x="623" 
d="M522 473v-387c0 -14 -2 -40 38 -40h32v-46h-200v61h-6c-52 -69 -114 -78 -154 -78c-31 0 -128 4 -128 150v238c0 12 -1 39 -29 39h-41v46c101 6 147 8 205 17v-347c0 -60 17 -77 54 -77c53 0 94 58 94 116v206c0 12 -1 39 -29 39h-41v46c99 6 144 8 205 17z" />
    <glyph glyph-name="v" unicode="v" horiz-adv-x="569" 
d="M337 161l75 187c5 11 8 19 8 33c0 5 0 29 -32 29h-31v46h198v-46h-15c-23 0 -57 -16 -75 -62l-139 -348h-58l-166 348c-11 24 -31 62 -73 62h-15v46h269v-46h-31c-9 0 -21 -3 -21 -18c0 -7 2 -13 5 -19l96 -212h5z" />
    <glyph glyph-name="w" unicode="w" horiz-adv-x="767" 
d="M293 170l62 162l-12 29c-8 19 -20 49 -53 49h-8v46h236v-46h-24c-15 0 -22 -10 -22 -18c0 -4 3 -13 5 -18l81 -204h5l71 181c2 4 7 23 7 34c0 20 -22 25 -42 25h-15v46h169v-46c-39 -4 -52 -23 -70 -68l-134 -342h-54l-107 266h-5l-102 -266h-54l-157 360
c-11 24 -27 50 -50 50h-6v46h214v-46h-12c-9 0 -17 -7 -17 -19c0 -9 3 -12 5 -17l83 -204h6z" />
    <glyph glyph-name="x" unicode="x" horiz-adv-x="588" 
d="M37 410v46h256v-46h-23c-8 0 -18 -5 -18 -18s5 -18 10 -25l54 -79h6l51 67c10 13 14 21 14 32c0 13 -10 23 -23 23h-15v46h187v-46h-13c-29 0 -64 -26 -79 -44l-87 -107l127 -160c22 -28 44 -48 82 -53v-46h-272v46h32c17 0 17 14 17 16c0 9 -1 11 -13 28l-66 97h-6
l-77 -94c-12 -15 -14 -22 -14 -27c0 -9 6 -20 22 -20h34v-46h-189v46c34 0 61 17 86 47l100 123l-120 150c-12 15 -30 40 -63 44z" />
    <glyph glyph-name="y" unicode="y" horiz-adv-x="530" 
d="M14 456h248v-46h-24c-15 0 -26 -8 -26 -21c0 -9 2 -15 5 -21l97 -216h5l81 201c4 9 5 21 5 29c0 23 -19 28 -31 28h-29v46h179v-46c-46 -2 -57 -30 -68 -56l-185 -447c-20 -48 -44 -103 -128 -103c-65 0 -101 42 -101 85c0 69 36 83 58 83c23 0 62 -10 62 -61
c0 -11 -3 -16 -6 -23c-5 -11 -8 -16 -8 -21c0 -3 2 -14 20 -14c28 0 41 40 47 54l40 95l-181 366c-10 20 -24 42 -54 42h-6v46z" />
    <glyph glyph-name="z" unicode="z" horiz-adv-x="493" 
d="M51 293v163h394v-56l-238 -354h55c103 0 135 56 141 149h42v-195h-397v46l244 364h-82c-13 0 -118 -3 -117 -117h-42z" />
    <glyph glyph-name="braceleft" unicode="{" horiz-adv-x="555" 
d="M118 238v70c28 2 94 20 94 143c0 27 -4 81 -4 113c0 36 5 189 193 178v-56c-60 -15 -74 -56 -74 -100c0 -18 1 -37 3 -55c2 -21 3 -41 3 -62c0 -97 -36 -153 -122 -192v-8c86 -39 122 -95 122 -192c0 -21 -1 -41 -3 -62c-2 -18 -3 -37 -3 -55c0 -54 28 -94 74 -100v-56
c-188 -11 -193 142 -193 178c0 32 4 86 4 113c0 123 -66 141 -94 143z" />
    <glyph glyph-name="bar" unicode="|" horiz-adv-x="188" 
d="M56 829h76v-1053h-76v1053z" />
    <glyph glyph-name="braceright" unicode="}" horiz-adv-x="555" 
d="M401 308v-70c-28 -2 -94 -20 -94 -143c0 -27 4 -81 4 -113c0 -36 -5 -189 -193 -178v56c60 15 74 56 74 100c0 18 -1 37 -3 55c-2 21 -3 41 -3 62c0 97 36 153 122 192v8c-86 39 -122 95 -122 192c0 21 1 41 3 62c2 18 3 37 3 55c0 54 -28 94 -74 100v56
c188 11 193 -142 193 -178c0 -32 -4 -86 -4 -113c0 -123 66 -141 94 -143z" />
    <glyph glyph-name="asciitilde" unicode="~" horiz-adv-x="546" 
d="M93 261h-44c21 71 88 116 147 116c42 0 74 -15 100 -25c65 -25 88 -26 101 -26c28 0 44 21 55 45h45c-37 -83 -74 -120 -132 -120c-38 0 -66 10 -98 22c-54 21 -85 31 -114 31c-17 0 -38 -12 -60 -43z" />
    <glyph glyph-name="afii10051" unicode="&#x402;" horiz-adv-x="882" 
d="M427 367c84 21 139 21 200 21c199 0 224 -123 224 -166c0 -147 -88 -242 -219 -242c-136 0 -159 61 -159 93c0 33 21 77 71 77c53 0 73 -26 73 -48c0 -7 -1 -14 -3 -20c-9 -25 -18 -5 -18 -30c0 -11 11 -21 37 -21c27 0 54 50 54 153c0 117 -62 140 -106 140
c-42 0 -119 -9 -154 -19v-305h-252v47h47c31 0 51 7 51 42v544h-19c-31 0 -156 -18 -168 -212h-50v259h628v-259h-50c-11 183 -124 212 -167 212h-20v-266z" />
    <glyph glyph-name="afii10052" unicode="&#x403;" horiz-adv-x="618" 
d="M34 680h556v-231h-50c-7 52 -22 105 -60 145c-33 35 -79 45 -125 45h-29c-26 0 -40 -8 -40 -34v-516c0 -35 20 -42 51 -42h47v-47h-350v47h47c31 0 51 7 51 42v502c0 35 -20 42 -51 42h-47v47zM501 857v-13c-187 -85 -258 -100 -279 -102h-6s-9 2 -9 10c0 4 2 8 28 29
c23 18 59 55 70 76h196z" />
    <glyph glyph-name="quotesinglbase" unicode="&#x201a;" 
d="M95 -157l-25 27c25 25 85 76 85 107c0 23 -16 22 -29 22c-44 0 -70 34 -70 78c0 61 55 80 85 80c47 0 95 -34 95 -108c0 -84 -77 -155 -141 -206z" />
    <glyph glyph-name="afii10100" unicode="&#x453;" horiz-adv-x="465" 
d="M28 456h415v-184h-36c-11 47 -11 72 -43 101c-40 38 -76 37 -90 37h-13c-30 -1 -28 -26 -28 -37v-297c0 -22 10 -30 34 -30h36v-46h-275v46h36c24 0 34 8 34 30v304c0 22 -10 30 -34 30h-36v46zM344 700v-15c-15 -20 -85 -79 -97 -88c-88 -70 -96 -68 -108 -69
c-2 0 -5 -1 -7 0c-5 1 -12 8 -12 17c0 35 46 71 70 155h154z" />
    <glyph glyph-name="quotedblbase" unicode="&#x201e;" 
d="M102 -157l-25 27c22 22 85 78 85 107c0 23 -16 22 -29 22c-44 0 -70 34 -70 78c0 61 55 80 85 80c52 0 95 -41 95 -108c0 -84 -76 -154 -141 -206zM340 -157l-25 27c27 27 84 72 84 107c0 24 -19 22 -29 22c-43 1 -69 33 -69 78c0 53 44 80 84 80c59 0 95 -47 95 -108
c0 -81 -67 -149 -140 -206z" />
    <glyph glyph-name="ellipsis" unicode="&#x2026;" horiz-adv-x="734" 
d="M62 64c0 45 36 82 81 82c44 0 81 -36 81 -82c0 -44 -37 -81 -81 -81c-45 0 -81 38 -81 81zM286 64c0 55 45 82 81 82c44 0 81 -37 81 -82c0 -44 -37 -81 -81 -81c-37 0 -81 28 -81 81zM510 64c0 45 36 82 81 82c44 0 81 -36 81 -82c0 -44 -37 -81 -81 -81
c-45 0 -81 38 -81 81z" />
    <glyph glyph-name="dagger" unicode="&#x2020;" horiz-adv-x="448" 
d="M241 -182h-35c-9 175 -16 305 -76 446c25 30 71 103 71 132c0 4 -4 9 -8 9c-17 0 -68 -55 -108 -55c-21 0 -57 16 -57 81c0 24 5 76 58 76c10 0 35 0 73 -30c19 -15 28 -22 37 -22c6 0 11 5 11 18c0 50 -63 80 -63 130c0 27 21 69 80 69c51 0 79 -32 79 -69
c0 -63 -63 -38 -63 -130c0 -13 5 -18 11 -18c8 0 18 7 38 22c20 16 47 30 73 30s58 -17 58 -76c0 -65 -39 -81 -57 -81c-56 0 -55 55 -109 55c-4 0 -8 -5 -8 -9c0 -26 43 -99 71 -132c-60 -141 -67 -271 -76 -446z" />
    <glyph glyph-name="daggerdbl" unicode="&#x2021;" horiz-adv-x="448" 
d="M161 194c30 62 46 142 46 193c0 4 -1 18 -18 18c-68 0 -50 -55 -104 -55c-18 0 -57 16 -57 81c0 59 32 76 58 76s53 -14 73 -30c20 -15 30 -22 38 -22c6 0 11 5 11 18c0 92 -63 67 -63 130c0 37 28 69 79 69s79 -32 79 -69c0 -63 -63 -38 -63 -130c0 -13 5 -18 11 -18
c8 0 18 7 38 22c20 16 47 30 73 30s58 -17 58 -76c0 -65 -39 -81 -57 -81c-54 0 -36 55 -104 55c-17 0 -18 -14 -18 -18c0 -51 16 -131 46 -193c-30 -62 -46 -142 -46 -193c0 -4 1 -18 18 -18c68 0 50 55 104 55c18 0 57 -16 57 -81c0 -59 -32 -76 -58 -76s-53 14 -73 30
c-20 15 -30 22 -38 22c-6 0 -11 -5 -11 -18c0 -92 63 -67 63 -130c0 -37 -28 -69 -79 -69s-79 32 -79 69c0 63 63 38 63 130c0 13 -5 18 -11 18c-8 0 -18 -7 -38 -22c-20 -16 -47 -30 -73 -30s-58 17 -58 76c0 65 39 81 57 81c54 0 36 -55 104 -55c17 0 18 14 18 18
c0 51 -16 131 -46 193z" />
    <glyph glyph-name="accent" horiz-adv-x="2" 
d="M-125 700v-15c-15 -20 -85 -79 -97 -88c-88 -70 -96 -68 -108 -69c-2 0 -5 -1 -7 0c-5 1 -12 8 -12 17c0 35 46 71 70 155h154z" />
    <glyph glyph-name="perthousand" unicode="&#x2030;" horiz-adv-x="1336" 
d="M242 342c-96 0 -158 85 -158 179c0 92 62 179 158 179s157 -86 157 -179c0 -104 -70 -179 -157 -179zM242 371c59 3 67 99 67 150c0 123 -38 147 -67 150c-25 -2 -68 -20 -68 -150c0 -145 55 -150 68 -150zM664 730l45 -27l-428 -747l-48 27zM698 -19
c-87 0 -157 75 -157 179c0 93 61 179 157 179s158 -87 158 -179c0 -94 -62 -179 -158 -179zM698 10c13 0 68 5 68 150c0 130 -43 148 -68 150c-24 -3 -67 -20 -67 -150c0 -61 11 -147 67 -150zM1094 -19c-87 0 -157 75 -157 179c0 93 61 179 157 179s158 -87 158 -179
c0 -94 -62 -179 -158 -179zM1094 10c13 0 68 5 68 150c0 130 -43 148 -68 150c-24 -3 -67 -20 -67 -150c0 -61 11 -147 67 -150z" />
    <glyph glyph-name="afii10058" unicode="&#x409;" horiz-adv-x="1087" 
d="M180 633v47h601v-47h-47c-31 0 -51 -7 -51 -42v-203h32c121 0 341 -8 341 -196c0 -64 -33 -192 -293 -192h-332v47h47c31 0 51 7 51 42v507c0 20 -8 33 -30 33h-51c-104 0 -82 -90 -89 -259c-8 -179 -34 -378 -197 -378c-94 0 -131 68 -131 119c0 62 43 112 101 112
c50 0 80 -37 80 -90c0 -43 -30 -54 -48 -64c-11 -6 -17 -12 -17 -22c0 -5 9 -8 16 -8h8h7c39 1 133 46 133 356v130c0 109 -72 108 -105 108h-26zM683 342v-259c0 -14 1 -36 31 -36h42c24 0 126 4 126 152c0 67 -8 147 -199 143z" />
    <glyph glyph-name="guilsinglleft" unicode="&#x2039;" horiz-adv-x="368" 
d="M189 442h86l-151 -188l157 -192h-87l-160 192z" />
    <glyph glyph-name="afii10059" unicode="&#x40a;" horiz-adv-x="1101" 
d="M286 398h254v193c0 35 -20 42 -51 42h-33v47h336v-47h-47c-31 0 -51 -7 -51 -42v-193h32c122 0 341 -8 341 -196c0 -66 -33 -202 -293 -202h-318v47h33c31 0 51 7 51 42v263h-254v-263c0 -35 20 -42 51 -42h33v-47h-336v47h47c31 0 51 7 51 42v502c0 35 -20 42 -51 42
h-47v47h336v-47h-33c-31 0 -51 -7 -51 -42v-193zM694 352v-269c0 -14 1 -36 31 -36h42c95 0 126 77 126 162c0 67 -8 147 -199 143z" />
    <glyph glyph-name="afii10061" unicode="&#x40c;" horiz-adv-x="772" 
d="M34 680h350v-47h-47c-31 0 -51 -7 -51 -42v-210h16c67 0 124 3 145 125c11 64 20 194 141 194c62 0 113 -42 113 -106c0 -59 -39 -88 -76 -88c-52 0 -68 37 -68 67c0 10 3 20 8 28c5 9 14 18 14 28c0 8 -5 11 -10 11h-4c-62 -5 -58 -100 -74 -171
c-13 -59 -43 -96 -93 -111v-5c155 -12 182 -118 197 -189c8 -37 17 -81 47 -81c25 0 47 41 48 97h48c-13 -178 -100 -200 -148 -200c-96 0 -120 102 -132 165c-22 116 -22 202 -172 195v-251c0 -35 20 -42 51 -42h47v-47h-350v47h47c31 0 51 7 51 42v502c0 35 -20 42 -51 42
h-47v47zM578 857v-13c-187 -85 -258 -100 -279 -102h-6s-9 2 -9 10c0 4 2 8 28 29c23 18 59 55 70 76h196z" />
    <glyph glyph-name="afii10060" unicode="&#x40b;" horiz-adv-x="901" 
d="M21 680h628v-259h-50c-11 183 -124 212 -167 212h-20v-276c15 5 90 30 195 30c82 0 189 -23 189 -156v-142c0 -35 20 -42 51 -42h47v-47h-338v47h35c31 0 51 7 51 42v132c0 87 -51 93 -104 93c-37 0 -76 0 -126 -15v-210c0 -35 20 -42 51 -42h35v-47h-338v47h47
c31 0 51 7 51 42v544h-19c-31 0 -156 -18 -168 -212h-50v259z" />
    <glyph glyph-name="afii10145" unicode="&#x40f;" horiz-adv-x="828" 
d="M36 680h350v-47h-47c-31 0 -51 -7 -51 -42v-502c0 -35 20 -42 51 -42h161c31 0 51 7 51 42v502c0 35 -20 42 -51 42h-47v47h350v-47h-47c-31 0 -51 -7 -51 -42v-502c0 -44 27 -42 37 -42h61v-47h-178c-70 0 -172 -5 -181 -196h-49c-9 191 -111 196 -181 196h-178v47h47
c31 0 51 7 51 42v502c0 35 -20 42 -51 42h-47v47z" />
    <glyph glyph-name="afii10099" unicode="&#x452;" horiz-adv-x="598" 
d="M256 392h6c33 46 87 81 157 81c72 0 140 -33 140 -325c0 -40 -10 -359 -188 -359c-81 0 -106 43 -106 94c0 38 15 72 52 72c25 0 40 -15 40 -39c0 -11 -1 -17 -7 -28c-11 -19 -22 -22 -22 -36c0 -13 13 -24 28 -24c59 0 70 96 70 382c0 185 -36 193 -67 193
c-43 0 -97 -51 -97 -91v-236c0 -22 10 -30 34 -30h15v-46h-254v46h36c24 0 34 8 34 30v468h-99v46h99v33c0 29 -27 28 -41 28h-28v46h27c25 0 83 2 177 14v-121h211v-46h-211v-110z" />
    <glyph glyph-name="quoteleft" unicode="&#x2018;" 
d="M197 692l25 -27c-25 -25 -85 -75 -85 -108c0 -22 19 -22 29 -22c59 -2 70 -49 70 -77c0 -58 -50 -80 -85 -80c-42 0 -95 27 -95 108c0 61 43 129 141 206z" />
    <glyph glyph-name="quoteright" unicode="&#x2019;" 
d="M95 378l-25 26c25 29 85 75 85 108c0 21 -16 22 -29 22c-44 2 -70 32 -70 78c0 61 55 80 85 80c47 0 95 -34 95 -108c0 -80 -77 -161 -141 -206z" />
    <glyph glyph-name="quotedblleft" unicode="&#x201c;" 
d="M424 700l25 -26c-25 -29 -85 -75 -85 -108c0 -21 16 -22 29 -22c52 -2 70 -41 70 -78c0 -66 -60 -80 -85 -80c-47 0 -95 34 -95 108c0 80 77 161 141 206zM186 700l25 -26c-27 -31 -84 -70 -84 -108c0 -21 16 -21 29 -22c43 -2 69 -31 69 -78c0 -53 -44 -80 -84 -80
c-59 0 -95 47 -95 108c0 76 67 155 140 206z" />
    <glyph glyph-name="quotedblright" unicode="&#x201d;" 
d="M102 386l-25 27c31 31 85 82 85 108c0 23 -19 22 -29 22c-45 1 -70 31 -70 77c0 61 56 80 85 80c40 0 95 -26 95 -108c0 -61 -43 -129 -141 -206zM340 386l-25 27c38 38 84 76 84 108c0 22 -18 22 -29 22c-52 2 -69 39 -69 77c0 53 45 80 84 80c48 0 95 -31 95 -108
c0 -78 -68 -150 -140 -206z" />
    <glyph glyph-name="bullet" unicode="&#x2022;" horiz-adv-x="698" 
d="M244 316c0 71 59 105 104 105c58 0 106 -47 106 -105c0 -57 -47 -105 -106 -105c-47 0 -104 35 -104 105z" />
    <glyph glyph-name="endash" unicode="&#x2013;" horiz-adv-x="698" 
d="M49 350h600v-80h-600v80z" />
    <glyph glyph-name="emdash" unicode="&#x2014;" horiz-adv-x="1052" 
d="M50 270v80h952v-80h-952z" />
    <glyph glyph-name="Accent" horiz-adv-x="2" 
d="M-189 857v-13c-187 -85 -258 -100 -279 -102h-6s-9 2 -9 10c0 4 2 8 28 29c23 18 59 55 70 76h196z" />
    <glyph glyph-name="trademark" unicode="&#x2122;" horiz-adv-x="994" 
d="M385 680v-146h-32c-1 67 -57 110 -86 110c-5 0 -7 -2 -7 -9v-260c0 -17 12 -23 19 -23h37v-37h-219v37h37c7 0 19 6 19 23v260c0 6 -1 9 -6 9c-30 0 -86 -46 -87 -110h-32v146h357zM802 643l-124 -328h-28l-121 328h-5v-268c0 -17 12 -23 19 -23h37v-37h-151v37h37
c7 0 19 6 19 23v245c0 17 -12 23 -19 23h-37v37h188l77 -206h3l73 206h196v-37h-37c-7 0 -19 -6 -19 -23v-245c0 -17 12 -23 19 -23h37v-37h-220v37h37c7 0 19 6 19 23v268z" />
    <glyph glyph-name="afii10106" unicode="&#x459;" horiz-adv-x="797" 
d="M117 456h457v-46h-36c-24 0 -34 -8 -34 -30v-115h94c53 0 171 -22 171 -134c0 -42 -25 -131 -189 -131h-281v46h36c24 0 34 8 34 30v277c0 56 -16 59 -51 59c-69 0 -58 -34 -66 -176c-8 -148 -22 -253 -121 -253c-78 0 -109 48 -109 92c0 51 34 79 69 79
c30 0 59 -20 59 -57c0 -14 -6 -25 -11 -32c-4 -5 -8 -13 -8 -19c0 -4 8 -6 13 -6c32 0 45 48 47 57c15 62 18 192 18 230c0 35 1 83 -58 83h-34v46zM504 218v-150c0 -17 13 -22 31 -22h18c8 0 28 3 44 16c18 15 26 48 26 74c0 70 -50 82 -68 82h-51z" />
    <glyph glyph-name="guilsinglright" unicode="&#x203a;" horiz-adv-x="368" 
d="M179 442l155 -188l-160 -192h-87l157 192l-151 188h86z" />
    <glyph glyph-name="afii10107" unicode="&#x45a;" horiz-adv-x="804" 
d="M28 456h260v-46h-21c-24 0 -34 -8 -34 -30v-116h143v116c0 22 -10 30 -34 30h-22v46h261v-46h-36c-24 0 -34 -8 -34 -30v-116h94c52 0 171 -22 171 -134c0 -41 -25 -130 -189 -130h-267v46h22c24 0 34 8 34 30v142h-143v-142c0 -22 10 -30 34 -30h21v-46h-260v46h36
c24 0 34 8 34 30v304c0 22 -10 30 -34 30h-36v46zM511 218v-150c0 -18 15 -22 31 -22h18c8 0 28 3 44 16c18 15 26 48 26 74c0 70 -50 82 -68 82h-51z" />
    <glyph glyph-name="afii10109" unicode="&#x45c;" horiz-adv-x="586" 
d="M25 456h247v-46h-22c-24 0 -34 -8 -34 -30v-119h55c56 0 44 18 70 112c28 101 96 100 118 100c53 0 87 -38 87 -89c0 -25 -14 -67 -60 -67c-29 0 -53 21 -53 49c0 11 3 25 11 35c3 4 8 8 8 13s-3 13 -14 13c-7 0 -35 -1 -55 -71c-14 -48 -11 -93 -52 -107v-7
c50 -4 115 -25 127 -109c3 -23 7 -76 36 -76c22 0 30 42 34 72h36c-1 -82 -44 -146 -105 -146c-91 0 -103 99 -113 163c-9 58 -23 73 -74 73h-56v-143c0 -22 10 -30 34 -30h22v-46h-247v46h22c24 0 34 8 34 30v304c0 22 -10 30 -34 30h-22v46zM405 700v-15
c-15 -20 -85 -79 -97 -88c-88 -70 -96 -68 -108 -69c-2 0 -5 -1 -7 0c-5 1 -12 8 -12 17c0 35 46 71 70 155h154z" />
    <glyph glyph-name="afii10108" unicode="&#x45b;" horiz-adv-x="663" 
d="M267 392h6c41 58 103 81 155 81c62 0 126 -29 126 -142v-255c0 -22 10 -30 34 -30h36v-46h-254v46h15c24 0 34 8 34 30v275c0 52 -37 52 -49 52c-43 0 -97 -51 -97 -91v-236c0 -22 10 -30 34 -30h15v-46h-254v46h36c24 0 34 8 34 30v468h-99v46h99v33c0 29 -27 28 -41 28
h-28v46h27c25 0 83 2 177 14v-121h211v-46h-211v-110z" />
    <glyph glyph-name="afii10193" unicode="&#x45f;" horiz-adv-x="630" 
d="M39 456h253v-46h-14c-24 0 -34 -8 -34 -30v-304c0 -22 10 -30 34 -30h82c24 0 34 8 34 30v304c0 22 -10 30 -34 30h-14v46h253v-46h-36c-24 0 -34 -8 -34 -30v-304c0 -22 10 -30 34 -30h36v-46h-82c-99 0 -163 -5 -174 -151h-48c-12 132 -44 151 -172 151h-84v46h36
c24 0 34 8 34 30v304c0 22 -10 30 -34 30h-36v46z" />
    <glyph glyph-name="afii10062" unicode="&#x40e;" horiz-adv-x="777" 
d="M459 291l124 250c13 27 15 42 15 47c0 38 -44 45 -74 45h-27v47h258v-47c-65 -3 -90 -55 -112 -97l-243 -449c-38 -70 -89 -107 -160 -107c-115 0 -166 90 -166 161c0 65 52 106 106 106c47 0 81 -36 81 -88c0 -32 -27 -56 -52 -64c-14 -4 -44 -6 -44 -25
c0 -17 28 -42 75 -42c57 0 106 48 127 105l-239 444c-4 7 -20 30 -45 43c-12 6 -42 12 -55 13v47h355v-47h-32c-52 0 -53 -21 -53 -32c0 -12 4 -18 9 -28l146 -282h6zM429 723c-146 0 -169 61 -169 93c0 24 22 54 69 54c43 0 55 -25 55 -48c0 -15 -11 -23 -15 -26
c-7 -5 -18 -11 -18 -16c0 -6 11 -11 21 -14c13 -4 22 -6 33 -7c8 -1 16 -1 24 -1c34 0 78 11 78 22c0 14 -34 12 -34 42c0 23 12 48 55 48c47 0 69 -30 69 -54c0 -23 -12 -67 -91 -85c-26 -6 -51 -8 -77 -8z" />
    <glyph glyph-name="afii10110" unicode="&#x45e;" horiz-adv-x="530" 
d="M14 456h248v-46h-24c-15 0 -26 -8 -26 -21c0 -9 2 -15 5 -21l97 -216h5l81 201c4 9 5 21 5 29c0 23 -19 28 -31 28h-29v46h179v-46c-46 -2 -57 -30 -68 -56l-185 -447c-20 -48 -44 -103 -128 -103c-65 0 -101 42 -101 85c0 69 36 83 58 83c23 0 62 -10 62 -61
c0 -11 -3 -16 -6 -23c-5 -11 -8 -16 -8 -21c0 -3 2 -14 20 -14c28 0 41 40 47 54l40 95l-181 366c-10 20 -24 42 -54 42h-6v46zM301 529c-65 0 -155 29 -155 101c0 40 24 60 59 60c30 0 50 -21 50 -49c0 -19 -9 -29 -15 -35c-3 -4 -9 -12 -9 -18c0 -8 9 -27 70 -27
c41 0 55 9 61 13c5 4 9 9 9 14c0 8 -5 14 -9 18c-7 7 -14 14 -14 35s9 34 26 44c40 14 82 -3 82 -55c0 -56 -62 -91 -122 -99c-11 -1 -22 -2 -33 -2z" />
    <glyph glyph-name="afii10057" unicode="&#x408;" horiz-adv-x="616" 
d="M221 680h350v-47h-47c-31 0 -51 -7 -51 -42v-353c0 -149 -51 -258 -216 -258c-147 0 -226 80 -226 171c0 58 37 103 94 103c48 0 78 -36 78 -77c0 -19 -7 -39 -19 -51c-25 -25 -71 -10 -71 -42c0 -31 55 -54 112 -54c84 0 94 65 94 101v460c0 35 -20 42 -51 42h-47v47z
" />
    <glyph glyph-name="currency" unicode="&#xa4;" horiz-adv-x="875" 
d="M70 56l118 118c-41 57 -56 121 -56 176s15 119 56 176l-118 118l70 70l117 -118c20 16 80 60 180 60s160 -44 180 -60l118 118l70 -70l-118 -118c41 -57 56 -121 56 -176s-15 -119 -56 -176l118 -118l-70 -70l-118 118c-20 -16 -80 -60 -180 -60s-160 44 -180 60
l-117 -118zM211 350c0 -124 101 -227 226 -227c124 0 227 103 227 227s-103 227 -227 227c-125 0 -226 -103 -226 -227z" />
    <glyph glyph-name="afii10050" unicode="&#x490;" horiz-adv-x="618" 
d="M34 680h321c46 0 92 10 125 45c38 40 53 93 60 145h50v-237h-264c-26 0 -40 -8 -40 -34v-510c0 -35 20 -42 51 -42h47v-47h-350v47h47c31 0 51 7 51 42v502c0 35 -20 42 -51 42h-47v47z" />
    <glyph glyph-name="brokenbar" unicode="&#xa6;" horiz-adv-x="158" 
d="M53 431v351h52v-351h-52zM53 -211v351h52v-351h-52z" />
    <glyph glyph-name="section" unicode="&#xa7;" horiz-adv-x="526" 
d="M379 88c10 -20 17 -40 17 -59c0 -94 -71 -165 -178 -165c-101 0 -163 71 -163 144c0 44 39 69 72 69c38 0 62 -33 62 -65c0 -12 -6 -24 -14 -33c-16 -18 -42 -19 -42 -36c0 -16 30 -41 80 -41c61 0 89 44 89 84c0 68 -68 100 -124 144c-105 84 -136 121 -136 184
c0 77 53 129 93 158c-12 24 -20 56 -20 85c0 49 39 143 160 143c96 0 145 -69 145 -125c0 -28 -21 -59 -63 -59c-50 0 -57 40 -57 59c0 9 8 28 15 37c9 11 18 14 18 26c0 8 -9 28 -50 28c-65 0 -92 -42 -92 -78c0 -45 42 -81 100 -126c99 -78 179 -125 179 -193
c0 -76 -34 -135 -91 -181zM152 437c-23 -20 -29 -39 -29 -60c0 -57 42 -82 120 -147c70 -57 95 -80 117 -109c26 17 41 35 41 63c0 27 -14 44 -38 68c-171 174 -137 102 -211 185z" />
    <glyph glyph-name="afii10023" unicode="&#x401;" horiz-adv-x="670" 
d="M622 441h-46c-3 72 -39 192 -171 192h-75c-18 0 -44 4 -44 -36v-209h53c83 0 90 68 90 95v19h47v-276h-47v14c0 72 -36 100 -98 100h-45v-257c0 -21 1 -36 59 -36h40c53 0 204 19 205 212h46v-259h-602v47h47c31 0 51 7 51 42v502c0 35 -20 42 -51 42h-47v47h588v-239z
M133 787c0 48 42 70 70 70c37 0 70 -33 70 -70c0 -28 -22 -70 -70 -70c-39 0 -70 31 -70 70zM401 786c0 46 42 71 70 71c37 0 70 -35 70 -71c0 -31 -22 -69 -70 -69s-70 36 -70 69z" />
    <glyph glyph-name="copyright" unicode="&#xa9;" horiz-adv-x="776" 
d="M28 340c0 199 163 360 360 360c199 0 360 -161 360 -360c0 -197 -161 -360 -360 -360c-197 0 -360 163 -360 360zM79 340c0 -169 140 -309 309 -309s309 140 309 309s-140 309 -309 309s-309 -140 -309 -309zM534 257h33c-15 -60 -55 -142 -166 -142
c-134 0 -200 111 -200 225c0 122 82 215 187 215c46 0 83 -15 117 -39l18 27h23v-157h-24c-13 75 -58 139 -117 139c-42 0 -97 -31 -97 -185c0 -94 19 -189 104 -189c61 0 110 51 122 106z" />
    <glyph glyph-name="afii10053" unicode="&#x404;" horiz-adv-x="656" 
d="M577 211h54c-23 -97 -93 -231 -271 -231c-217 0 -329 189 -329 368c0 200 134 352 308 352c74 0 129 -21 190 -63l30 43h38l8 -256h-47c-38 177 -125 226 -193 226c-81 0 -161 -77 -159 -260h228v-48h-229c-2 -86 11 -302 172 -302c104 0 178 81 200 171z" />
    <glyph glyph-name="guillemotleft" unicode="&#xab;" horiz-adv-x="581" 
d="M304 454l55 -26l-115 -194l115 -191l-55 -25l-200 216zM435 392l45 -21l-58 -137l58 -137l-45 -19l-139 156z" />
    <glyph glyph-name="logicalnot" unicode="&#xac;" horiz-adv-x="712" 
d="M77 350h600v-170h-90v90h-510v80z" />
    <glyph glyph-name="hyphen" unicode="-" horiz-adv-x="351" 
d="M59 200v100h233v-100h-233z" />
    <glyph glyph-name="hyphen" unicode="&#xad;" horiz-adv-x="351" 
d="M59 200v100h233v-100h-233z" />
    <glyph glyph-name="registered" unicode="&#xae;" horiz-adv-x="776" 
d="M28 340c0 197 161 360 360 360c197 0 360 -163 360 -360c0 -199 -163 -360 -360 -360c-199 0 -360 161 -360 360zM79 340c0 -169 138 -309 309 -309c169 0 309 140 309 309s-140 309 -309 309c-171 0 -309 -140 -309 -309zM225 510h191c107 0 130 -47 130 -81
c0 -59 -47 -76 -108 -86v-3c25 -3 61 -17 72 -65c12 -53 4 -72 29 -72c4 0 23 0 23 42v8h23v-11c0 -49 -28 -86 -70 -86c-33 0 -73 23 -78 100c-2 30 -1 74 -49 74h-35v-118c0 -12 8 -22 17 -22h32v-23h-177v23h34c7 0 17 11 17 22v252c0 13 -10 22 -17 22h-34v24zM353 355
h38c48 0 72 22 72 71s-40 60 -53 60h-38c-2 0 -19 -1 -19 -15v-116z" />
    <glyph glyph-name="afii10056" unicode="&#x407;" horiz-adv-x="418" 
d="M34 680h350v-47h-47c-31 0 -51 -7 -51 -42v-502c0 -35 20 -42 51 -42h47v-47h-350v47h47c31 0 51 7 51 42v502c0 35 -20 42 -51 42h-47v47zM149 797c0 -33 -27 -61 -60 -61c-34 0 -61 27 -61 61c0 33 28 60 61 60s60 -27 60 -60zM390 797c0 -33 -26 -61 -61 -61
c-33 0 -60 27 -60 61c0 33 27 60 60 60c34 0 61 -27 61 -60z" />
    <glyph glyph-name="degree" unicode="&#xb0;" horiz-adv-x="322" 
d="M56 595c0 58 47 105 105 105c57 0 105 -46 105 -105c0 -58 -47 -105 -105 -105c-59 0 -105 48 -105 105zM106 595c0 -23 20 -54 55 -54c30 0 54 24 54 54s-24 54 -54 54c-35 0 -55 -31 -55 -54z" />
    <glyph glyph-name="plusminus" unicode="&#xb1;" horiz-adv-x="623" 
d="M352 204h-76v140h-231v75h231v172h76v-172h225v-75h-225v-140zM45 78v76h532v-76h-532z" />
    <glyph glyph-name="afii10055" unicode="&#x406;" horiz-adv-x="422" 
d="M36 680h350v-47h-47c-31 0 -51 -7 -51 -42v-502c0 -35 20 -42 51 -42h47v-47h-350v47h47c31 0 51 7 51 42v502c0 35 -20 42 -51 42h-47v47z" />
    <glyph glyph-name="afii10103" unicode="&#x456;" horiz-adv-x="331" 
d="M29 456c54 3 87 5 108 7c42 3 28 3 96 10v-397c0 -22 10 -30 34 -30h36v-46h-275v46h36c24 0 34 8 34 30v295c0 25 -9 39 -30 39h-39v46zM233 622c0 -33 -25 -73 -73 -73s-73 40 -73 73c0 32 25 72 73 72s73 -40 73 -72z" />
    <glyph glyph-name="afii10098" unicode="&#x491;" horiz-adv-x="464" 
d="M34 456h246c14 0 50 -1 90 37c32 29 32 54 43 101h36v-184h-182c-27 0 -28 -22 -28 -37v-297c0 -22 10 -30 34 -30h36v-46h-275v46h36c24 0 34 8 34 30v304c0 22 -10 30 -34 30h-36v46z" />
    <glyph glyph-name="mu" unicode="&#xb5;" horiz-adv-x="623" 
d="M522 473v-387c0 -14 -2 -40 38 -40h32v-46h-200v61h-6c-40 -54 -107 -78 -154 -78c-18 0 -42 16 -57 43h-5l30 -121c4 -17 8 -31 8 -47c0 -30 -21 -54 -75 -54c-34 0 -65 18 -65 52c0 35 36 92 36 277v238c0 12 -1 39 -29 39h-41v46c101 6 147 8 205 17v-347
c0 -60 17 -77 54 -77c53 0 94 58 94 116v206c0 12 -1 39 -29 39h-41v46c99 6 144 8 205 17z" />
    <glyph glyph-name="mu" unicode="&#x3bc;" horiz-adv-x="623" 
d="M522 473v-387c0 -14 -2 -40 38 -40h32v-46h-200v61h-6c-40 -54 -107 -78 -154 -78c-18 0 -42 16 -57 43h-5l30 -121c4 -17 8 -31 8 -47c0 -30 -21 -54 -75 -54c-34 0 -65 18 -65 52c0 35 36 92 36 277v238c0 12 -1 39 -29 39h-41v46c101 6 147 8 205 17v-347
c0 -60 17 -77 54 -77c53 0 94 58 94 116v206c0 12 -1 39 -29 39h-41v46c99 6 144 8 205 17z" />
    <glyph glyph-name="paragraph" unicode="&#xb6;" horiz-adv-x="582" 
d="M203 -196v588c-117 3 -175 96 -175 175c0 80 59 171 175 175h126v-938h-126zM413 -196v938h126v-938h-126z" />
    <glyph glyph-name="periodcentered" unicode="&#xb7;" horiz-adv-x="200" 
d="M24 351c0 41 35 75 76 75c40 0 76 -34 76 -75s-36 -76 -76 -76c-42 0 -76 34 -76 76z" />
    <glyph glyph-name="periodcentered" unicode="&#x2219;" horiz-adv-x="200" 
d="M24 351c0 41 35 75 76 75c40 0 76 -34 76 -75s-36 -76 -76 -76c-42 0 -76 34 -76 76z" />
    <glyph glyph-name="afii10071" unicode="&#x451;" horiz-adv-x="484" 
d="M423 148l38 -23c-56 -94 -106 -142 -207 -142c-172 0 -227 152 -227 238c0 118 80 252 228 252c119 0 207 -98 207 -237v-25h-289c2 -85 19 -170 110 -170c68 0 109 51 140 107zM173 258h127c17 0 16 13 16 43c0 14 2 127 -62 127c-39 0 -81 -33 -81 -128v-42zM64 612
c0 40 30 71 71 71c49 0 72 -42 72 -71c0 -39 -33 -72 -72 -72c-40 0 -71 33 -71 72zM280 612c0 40 31 71 71 71c41 0 72 -33 72 -71c0 -39 -33 -72 -72 -72c-38 0 -71 31 -71 72z" />
    <glyph glyph-name="afii61352" unicode="&#x2116;" horiz-adv-x="1159" 
d="M769 0h-70l-361 506h-1v-355c0 -62 -6 -171 -125 -171c-112 0 -145 68 -145 117c0 37 22 87 81 87c44 0 73 -32 73 -70c0 -10 -2 -16 -5 -24c-7 -18 -24 -26 -24 -39c0 -7 5 -20 30 -20c34 0 67 15 67 123v417c0 52 -8 65 -53 65h-49v44h216l312 -434h6v283
c0 60 5 171 147 171c58 0 122 -37 122 -107c0 -46 -31 -81 -79 -81c-44 0 -70 33 -70 61c0 10 1 21 4 30c7 20 15 27 15 36c0 3 -4 12 -22 12c-62 0 -69 -62 -69 -109v-542zM1082 27h-237v66h237v-66zM964 170c-66 1 -129 47 -129 135c0 93 64 138 129 139
c67 -1 128 -46 128 -139c0 -88 -60 -134 -128 -135zM964 204c38 4 49 29 52 73c1 10 0 20 0 30c-1 37 -1 103 -52 103c-26 0 -53 -20 -53 -104c0 -52 4 -99 53 -102z" />
    <glyph glyph-name="afii10101" unicode="&#x454;" horiz-adv-x="491" 
d="M419 157l38 -14c-45 -132 -121 -160 -192 -160c-136 0 -237 95 -237 248c0 136 96 242 237 242c24 0 52 -3 81 -15c19 -8 36 -19 52 -33l16 31h33v-159h-37c-1 26 -23 70 -37 85c-26 27 -51 42 -85 44c-24 0 -111 -5 -113 -167h142v-47h-143c2 -152 71 -176 117 -176
c69 0 106 59 128 121z" />
    <glyph glyph-name="guillemotright" unicode="&#xbb;" horiz-adv-x="581" 
d="M280 454l200 -220l-200 -216l-55 25l115 191l-115 194zM149 392l139 -158l-139 -156l-45 19l58 137l-58 137z" />
    <glyph glyph-name="afii10105" unicode="&#x458;" horiz-adv-x="341" 
d="M263 473v-394c0 -186 -57 -275 -163 -275c-56 0 -94 30 -94 79c0 38 21 73 60 73c30 0 46 -20 50 -40c1 -6 1 -11 1 -17v-16c1 -15 3 -23 19 -23c19 0 30 22 30 51c0 37 -13 61 -22 77c-7 14 -16 36 -16 69v314c0 12 -1 39 -29 39h-41v46c62 4 89 5 109 7
c48 3 15 3 96 10zM262 622c0 -42 -31 -73 -73 -73c-41 0 -72 30 -72 73c0 41 31 72 72 72c43 0 73 -31 73 -72z" />
    <glyph glyph-name="afii10054" unicode="&#x405;" horiz-adv-x="686" 
d="M518 696h48v-233h-56c-13 82 -54 189 -181 189c-68 0 -133 -33 -133 -106c0 -81 67 -98 121 -111c117 -27 291 -65 291 -233c0 -115 -78 -222 -229 -222c-69 0 -146 17 -211 67l-42 -47h-48v245h56c51 -197 154 -217 242 -217c68 0 128 41 128 105
c0 91 -101 117 -186 139c-85 21 -226 57 -226 221c0 125 98 207 241 207c81 0 133 -29 162 -49z" />
    <glyph glyph-name="afii10102" unicode="&#x455;" horiz-adv-x="455" 
d="M349 473h47v-152h-51c-15 58 -65 110 -138 110c-58 0 -90 -24 -90 -59c0 -63 82 -59 150 -75c101 -24 154 -65 154 -151c0 -76 -54 -163 -182 -163c-27 0 -90 7 -133 42l-25 -42h-47v169h51c30 -84 80 -127 152 -127c83 0 90 50 90 67c0 53 -61 63 -122 78
c-69 16 -171 33 -171 148c0 91 59 155 167 155c60 0 99 -18 123 -33z" />
    <glyph glyph-name="afii10104" unicode="&#x457;" horiz-adv-x="331" 
d="M29 456c73 5 63 4 108 7c48 3 16 3 96 10v-397c0 -22 10 -30 34 -30h36v-46h-275v46h36c24 0 34 8 34 30v295c0 12 -1 39 -29 39h-40v46zM129 622c0 -33 -26 -73 -72 -73c-48 0 -73 40 -73 73c0 41 33 72 73 72c47 0 72 -40 72 -72zM347 622c0 -51 -38 -73 -73 -73
c-41 0 -72 31 -72 73c0 41 31 72 72 72c36 0 73 -23 73 -72z" />
    <glyph glyph-name="afii10017" unicode="&#x410;" horiz-adv-x="809" 
d="M28 0v47c82 0 100 56 132 133l212 520h61l238 -556c23 -54 55 -98 116 -97v-47h-354v47h50c21 0 39 9 39 27c0 4 0 12 -11 37l-31 71h-263l-19 -51c-3 -9 -8 -28 -8 -37c0 -47 46 -47 71 -47h29v-47h-262zM237 229h222l-113 263h-1z" />
    <glyph glyph-name="afii10018" unicode="&#x411;" horiz-adv-x="695" 
d="M602 446h-52c-5 51 -17 91 -49 132c-17 21 -52 51 -129 51h-39c-38 0 -47 -7 -47 -47v-195h63c116 -2 318 -12 318 -201c0 -187 -233 -186 -381 -186h-252v47h47c31 0 51 7 51 42v502c0 35 -20 42 -51 42h-47v47h568v-234zM352 335h-66v-263c0 -9 5 -25 37 -25h56
c42 0 114 20 114 145c0 105 -44 143 -141 143z" />
    <glyph glyph-name="afii10019" unicode="&#x412;" horiz-adv-x="698" 
d="M34 680h353c58 0 255 -3 255 -153c0 -93 -83 -155 -181 -160v-10c82 -2 209 -40 209 -178c0 -136 -108 -179 -271 -179h-365v47h47c31 0 51 7 51 42v502c0 35 -20 42 -51 42h-47v47zM286 386h65c83 0 137 30 137 125c0 53 -15 122 -127 122h-36c-14 0 -39 -3 -39 -43
v-204zM286 339v-262c0 -28 19 -30 29 -30h52c62 0 129 5 129 143c0 67 -6 149 -145 149h-65z" />
    <glyph glyph-name="afii10020" unicode="&#x413;" horiz-adv-x="618" 
d="M34 680h556v-231h-50c-7 52 -22 105 -60 145c-33 35 -79 45 -125 45h-29c-26 0 -40 -8 -40 -34v-516c0 -35 20 -42 51 -42h47v-47h-350v47h47c31 0 51 7 51 42v502c0 35 -20 42 -51 42h-47v47z" />
    <glyph glyph-name="afii10021" unicode="&#x414;" horiz-adv-x="763" 
d="M732 -196h-55c-10 205 -169 197 -266 197h-124c-79 0 -203 -3 -207 -197h-55v244h22c68 0 90 4 133 149c39 133 52 243 55 316c1 16 1 31 0 47c-2 37 -12 73 -68 73h-49v47h598v-47h-55c-47 0 -53 -19 -53 -43v-494c0 -29 10 -48 40 -48h84v-244zM454 85v505
c0 16 -2 29 -35 29h-70c-57 0 -57 -54 -63 -116c-28 -274 -67 -380 -90 -423c-2 -3 -6 -12 -6 -20s9 -12 16 -12h198c25 0 50 6 50 37z" />
    <glyph glyph-name="afii10022" unicode="&#x415;" horiz-adv-x="670" 
d="M622 441h-46c-3 72 -39 192 -171 192h-75c-18 0 -44 4 -44 -36v-209h53c83 0 90 68 90 95v19h47v-276h-47v14c0 72 -36 100 -98 100h-45v-257c0 -21 1 -36 59 -36h40c53 0 204 19 205 212h46v-259h-602v47h47c31 0 51 7 51 42v502c0 35 -20 42 -51 42h-47v47h588v-239z
" />
    <glyph glyph-name="afii10024" unicode="&#x416;" horiz-adv-x="1126" 
d="M388 680h350v-47h-47c-31 0 -51 -7 -51 -42v-210h16c67 0 124 3 145 125c11 64 20 194 141 194c62 0 113 -42 113 -106c0 -59 -39 -88 -76 -88c-52 0 -68 37 -68 67c0 36 22 28 22 56c0 7 -4 10 -9 11h-6c-64 -8 -62 -122 -73 -171c-13 -59 -43 -96 -93 -111v-5
c155 -12 182 -118 197 -189c8 -37 17 -81 47 -81c25 0 47 41 48 97h48c-13 -178 -100 -200 -148 -200c-118 0 -125 143 -147 244c-12 58 -36 121 -157 116v-251c0 -35 20 -42 51 -42h47v-47h-350v47h47c31 0 51 7 51 42v251c-121 5 -145 -58 -157 -116
c-22 -101 -29 -244 -147 -244c-48 0 -135 22 -148 200h48c1 -56 23 -97 48 -97c30 0 39 44 47 81c15 71 42 177 197 189v5c-50 15 -80 52 -93 111c-11 49 -9 163 -73 171h-6c-5 -1 -9 -4 -9 -11c0 -28 22 -20 22 -56c0 -30 -16 -67 -68 -67c-37 0 -76 29 -76 88
c0 64 51 106 113 106c121 0 130 -130 141 -194c21 -122 78 -125 145 -125h16v210c0 35 -20 42 -51 42h-47v47z" />
    <glyph glyph-name="afii10025" unicode="&#x417;" horiz-adv-x="631" 
d="M120 443h-43l7 237h38l22 -35h3c14 8 37 21 53 28c11 5 23 9 35 13c31 10 53 14 93 14c105 0 158 -37 187 -65c25 -25 47 -56 47 -91c0 -63 -33 -148 -188 -171v-6c63 -5 149 -34 191 -86c21 -26 35 -61 35 -95c0 -64 -28 -130 -135 -176c-22 -10 -74 -30 -150 -30
c-63 0 -146 8 -202 48c-62 44 -77 95 -77 132c0 54 42 94 93 96c64 3 78 -45 78 -74c0 -15 -9 -35 -18 -45c-23 -25 -54 -17 -54 -35c0 -24 44 -79 143 -79c126 0 148 103 148 164c0 145 -139 159 -180 159h-61v49h23c79 0 209 -3 209 132c0 78 -48 125 -124 125
c-118 0 -167 -120 -173 -209z" />
    <glyph glyph-name="afii10026" unicode="&#x418;" horiz-adv-x="817" 
d="M34 680h347v-47h-44c-31 0 -51 -7 -51 -42v-378l245 337v40c0 27 -9 43 -37 43h-58v47h347v-47h-47c-31 0 -51 -7 -51 -42v-502c0 -35 20 -42 51 -42h47v-47h-347v47h44c31 0 51 7 51 42v384l-245 -336v-48c0 -27 2 -42 50 -42h45v-47h-347v47h47c31 0 51 7 51 42v502
c0 35 -20 42 -51 42h-47v47z" />
    <glyph glyph-name="afii10027" unicode="&#x419;" horiz-adv-x="817" 
d="M34 680h347v-47h-44c-31 0 -51 -7 -51 -42v-378l245 337v40c0 27 -9 43 -37 43h-58v47h347v-47h-47c-31 0 -51 -7 -51 -42v-502c0 -35 20 -42 51 -42h47v-47h-347v47h44c31 0 51 7 51 42v384l-245 -336v-48c0 -27 2 -42 50 -42h45v-47h-347v47h47c31 0 51 7 51 42v502
c0 35 -20 42 -51 42h-47v47zM407 710c-146 0 -169 61 -169 93c0 24 22 54 69 54c43 0 55 -25 55 -48c0 -7 -4 -14 -8 -19c-8 -10 -25 -16 -25 -23c0 -12 42 -22 78 -22c34 0 78 11 78 22c0 8 -17 13 -26 23c-4 5 -8 12 -8 19c0 23 12 48 55 48c47 0 69 -30 69 -54
c0 -30 -24 -93 -168 -93z" />
    <glyph glyph-name="afii10028" unicode="&#x41a;" horiz-adv-x="772" 
d="M34 680h350v-47h-47c-31 0 -51 -7 -51 -42v-210h16c67 0 124 3 145 125c11 64 20 194 141 194c62 0 113 -42 113 -106c0 -59 -39 -88 -76 -88c-52 0 -68 37 -68 67c0 10 3 20 8 28c5 9 14 18 14 28c0 8 -5 11 -10 11h-4c-62 -5 -58 -100 -74 -171
c-13 -59 -43 -96 -93 -111v-5c155 -12 182 -118 197 -189c8 -37 17 -81 47 -81c25 0 47 41 48 97h48c-13 -178 -100 -200 -148 -200c-96 0 -120 102 -132 165c-22 116 -22 202 -172 195v-251c0 -35 20 -42 51 -42h47v-47h-350v47h47c31 0 51 7 51 42v502c0 35 -20 42 -51 42
h-47v47z" />
    <glyph glyph-name="afii10029" unicode="&#x41b;" horiz-adv-x="812" 
d="M180 633v47h601v-47h-47c-31 0 -51 -7 -51 -42v-502c0 -35 20 -42 51 -42h47v-47h-350v47h47c31 0 51 7 51 42v507c0 20 -8 33 -30 33h-51c-104 0 -82 -90 -89 -259c-8 -179 -34 -378 -197 -378c-94 0 -131 68 -131 119c0 62 43 112 101 112c50 0 80 -37 80 -90
c0 -12 -5 -27 -16 -41c-19 -23 -49 -26 -49 -45c0 -5 9 -8 16 -8h8h7c39 1 133 46 133 356v130c0 109 -72 108 -105 108h-26z" />
    <glyph glyph-name="afii10030" unicode="&#x41c;" horiz-adv-x="930" 
d="M317 680l142 -438h6l147 438h279v-47h-47c-31 0 -51 -7 -51 -42v-502c0 -35 20 -42 51 -42h47v-47h-350v47h47c31 0 51 7 51 42v504h-5l-200 -593h-45l-199 603h-6v-473c0 -77 37 -83 75 -83h22v-47h-241v47h21c36 0 76 6 76 83v461c0 35 -20 42 -51 42h-47v47h278z" />
    <glyph glyph-name="afii10031" unicode="&#x41d;" horiz-adv-x="826" 
d="M286 398h254v193c0 35 -20 42 -51 42h-33v47h336v-47h-47c-31 0 -51 -7 -51 -42v-502c0 -35 20 -42 51 -42h47v-47h-336v47h33c31 0 51 7 51 42v263h-254v-263c0 -35 20 -42 51 -42h33v-47h-336v47h47c31 0 51 7 51 42v502c0 35 -20 42 -51 42h-47v47h336v-47h-33
c-31 0 -51 -7 -51 -42v-193z" />
    <glyph glyph-name="afii10032" unicode="&#x41e;" horiz-adv-x="724" 
d="M31 340c0 174 116 360 331 360s331 -186 331 -360c0 -172 -117 -360 -331 -360s-331 188 -331 360zM205 340c0 -125 10 -312 159 -312c145 0 155 185 155 312c0 206 -42 312 -155 312c-133 0 -159 -144 -159 -312z" />
    <glyph glyph-name="afii10033" unicode="&#x41f;" horiz-adv-x="835" 
d="M34 680h767v-47h-47c-31 0 -51 -7 -51 -42v-502c0 -35 20 -42 51 -42h47v-47h-350v47h47c31 0 51 7 51 42v501c0 27 -9 43 -37 43h-190c-27 0 -36 -16 -36 -43v-501c0 -35 20 -42 51 -42h47v-47h-350v47h47c31 0 51 7 51 42v502c0 35 -20 42 -51 42h-47v47z" />
    <glyph glyph-name="afii10034" unicode="&#x420;" horiz-adv-x="678" 
d="M286 287v-198c0 -35 20 -42 51 -42h47v-47h-350v47h47c31 0 51 7 51 42v502c0 35 -20 42 -51 42h-47v47h332c240 0 287 -120 287 -201c0 -91 -51 -192 -262 -192h-105zM286 334h45c140 0 148 73 148 151c0 138 -80 147 -143 148h-19c-28 -1 -31 -13 -31 -33v-266z" />
    <glyph glyph-name="afii10035" unicode="&#x421;" horiz-adv-x="656" 
d="M577 211h54c-23 -97 -93 -231 -271 -231c-217 0 -329 189 -329 368c0 200 134 352 308 352c74 0 129 -21 190 -63l30 43h38l8 -256h-47c-38 177 -125 226 -193 226c-92 0 -160 -79 -160 -301c0 -191 51 -309 172 -309c104 0 178 81 200 171z" />
    <glyph glyph-name="afii10036" unicode="&#x422;" horiz-adv-x="672" 
d="M22 680h628v-259h-50c-11 183 -124 212 -167 212h-20v-544c0 -35 20 -42 51 -42h47v-47h-350v47h47c31 0 51 7 51 42v544h-19c-31 0 -156 -18 -168 -212h-50v259z" />
    <glyph glyph-name="afii10037" unicode="&#x423;" horiz-adv-x="777" 
d="M459 291l124 250c13 27 15 42 15 47c0 38 -44 45 -74 45h-27v47h258v-47c-65 -3 -90 -55 -112 -97l-243 -449c-38 -70 -89 -107 -160 -107c-115 0 -166 90 -166 161c0 65 52 106 106 106c47 0 81 -36 81 -88c0 -32 -27 -56 -52 -64c-14 -4 -44 -6 -44 -25
c0 -17 28 -42 75 -42c57 0 106 48 127 105l-239 444c-4 7 -20 30 -45 43c-12 6 -42 12 -55 13v47h355v-47h-32c-52 0 -53 -21 -53 -32c0 -12 4 -18 9 -28l146 -282h6z" />
    <glyph glyph-name="afii10038" unicode="&#x424;" horiz-adv-x="900" 
d="M279 0v47h44c46 0 50 15 50 37v28h-32c-261 0 -310 125 -310 222c0 129 76 233 316 233h26v28c0 21 -4 38 -50 38h-47v47h348v-47h-46c-29 0 -51 3 -51 -50v-16h26c240 0 316 -104 316 -233c0 -97 -50 -222 -310 -222h-32v-28c0 -38 30 -37 51 -37h44v-47h-343zM373 159
v361h-23c-109 0 -145 -62 -145 -183c0 -120 38 -178 146 -178h22zM527 159h23c109 0 145 58 145 178c0 110 -26 183 -144 183h-24v-361z" />
    <glyph glyph-name="afii10039" unicode="&#x425;" horiz-adv-x="841" 
d="M31 633v47h367v-47h-16c-21 0 -45 -3 -45 -22c0 -13 7 -26 16 -38l97 -131h3l101 137c9 12 10 17 10 26s-3 24 -46 28h-14h-10v47h268v-47h-11c-59 0 -102 -20 -141 -69l-126 -159l208 -279c15 -20 60 -79 106 -79h15v-47h-382v47h44c12 0 48 -2 48 27
c0 16 -11 32 -21 46l-124 174h-5l-129 -172c-10 -14 -23 -26 -23 -40c0 -11 3 -35 37 -35h52v-47h-279v47c83 -2 116 41 132 61l182 227l-187 236c-26 33 -44 62 -113 62h-14z" />
    <glyph glyph-name="afii10040" unicode="&#x426;" horiz-adv-x="836" 
d="M36 680h350v-47h-47c-31 0 -51 -7 -51 -42v-502c0 -35 20 -42 51 -42h161c31 0 51 7 51 42v502c0 35 -20 42 -51 42h-47v47h350v-47h-47c-31 0 -51 -7 -51 -42v-502c0 -44 27 -42 37 -42h69v-243h-46c4 109 -73 196 -183 196h-546v47h47c31 0 51 7 51 42v502
c0 35 -20 42 -51 42h-47v47z" />
    <glyph glyph-name="afii10041" unicode="&#x427;" horiz-adv-x="790" 
d="M22 680h338v-47h-35c-31 0 -51 -7 -51 -42v-167c0 -45 6 -93 104 -93c43 0 75 5 126 15v245c0 35 -20 42 -51 42h-35v47h338v-47h-47c-31 0 -51 -7 -51 -42v-502c0 -35 20 -42 51 -42h47v-47h-350v47h47c31 0 51 7 51 42v217c-61 -17 -139 -30 -195 -30
c-149 0 -189 75 -189 154v161c0 35 -20 42 -51 42h-47v47z" />
    <glyph glyph-name="afii10042" unicode="&#x428;" horiz-adv-x="1100" 
d="M34 680h323v-47h-23c-49 0 -51 -15 -51 -42v-502c0 -44 26 -42 51 -42h88c30 0 51 2 51 42v502c0 27 -2 42 -51 42h-23v47h302v-47h-23c-49 0 -51 -15 -51 -42v-502c0 -27 2 -42 50 -42h89c25 0 51 -2 51 42v502c0 27 -2 42 -51 42h-23v47h323v-47h-44
c-49 0 -51 -15 -51 -42v-502c0 -27 2 -42 51 -42h44v-47h-1032v47h44c49 0 51 15 51 42v502c0 27 -2 42 -51 42h-44v47z" />
    <glyph glyph-name="afii10043" unicode="&#x429;" horiz-adv-x="1108" 
d="M34 680h323v-47h-23c-49 0 -51 -15 -51 -42v-502c0 -44 26 -42 51 -42h88c30 0 51 2 51 42v502c0 27 -2 42 -51 42h-23v47h302v-47h-23c-49 0 -51 -15 -51 -42v-502c0 -27 2 -42 50 -42h89c25 0 51 -2 51 42v502c0 27 -2 42 -51 42h-23v47h323v-47h-44
c-49 0 -51 -15 -51 -42v-502c0 -27 2 -42 51 -42h69v-243h-46c4 109 -73 196 -183 196h-828v47h44c49 0 51 15 51 42v502c0 27 -2 42 -51 42h-44v47z" />
    <glyph glyph-name="afii10044" unicode="&#x42a;" horiz-adv-x="829" 
d="M520 680v-47h-44c-31 0 -51 -7 -51 -42v-203h31c97 0 187 -2 262 -51c72 -47 80 -116 80 -149c0 -89 -62 -188 -294 -188h-331v47h47c31 0 51 7 51 42v544h-21c-41 0 -157 -29 -167 -212h-49v259h486zM425 342v-273c0 -13 12 -22 30 -22h42c24 0 126 4 126 152
c0 67 -9 147 -198 143z" />
    <glyph glyph-name="afii10045" unicode="&#x42b;" horiz-adv-x="1025" 
d="M28 680h350v-47h-47c-31 0 -51 -7 -51 -42v-203h31c162 0 341 -26 341 -200c0 -89 -60 -188 -293 -188h-331v47h47c31 0 51 7 51 42v502c0 35 -20 42 -51 42h-47v47zM280 342v-259c0 -14 2 -36 30 -36h43c92 0 125 67 125 152c0 67 -9 147 -198 143zM647 0v47h47
c31 0 51 7 51 42v502c0 35 -20 42 -51 42h-47v47h350v-47h-47c-31 0 -51 -7 -51 -42v-502c0 -35 20 -42 51 -42h47v-47h-350z" />
    <glyph glyph-name="afii10046" unicode="&#x42c;" horiz-adv-x="681" 
d="M34 680h350v-47h-47c-31 0 -51 -7 -51 -42v-203h32c121 0 341 -8 341 -196c0 -64 -33 -192 -293 -192h-332v47h47c31 0 51 7 51 42v502c0 35 -20 42 -51 42h-47v47zM286 342v-259c0 -14 1 -36 31 -36h42c24 0 126 4 126 152c0 67 -8 147 -199 143z" />
    <glyph glyph-name="afii10047" unicode="&#x42d;" horiz-adv-x="661" 
d="M95 429l-39 -1v252h46l31 -47h4c63 44 113 67 184 67c167 0 304 -130 304 -334c0 -246 -168 -386 -343 -386c-137 0 -251 85 -251 195c0 70 42 113 96 113c43 0 82 -31 82 -81c0 -28 -13 -45 -26 -56c-36 -30 -59 -19 -59 -41c0 -35 58 -82 139 -82
c163 0 188 171 188 314h-230v48h230c-4 146 -34 262 -151 262c-77 0 -127 -43 -164 -106c-22 -38 -34 -81 -41 -117z" />
    <glyph glyph-name="afii10048" unicode="&#x42e;" horiz-adv-x="1111" 
d="M280 398h144c28 155 137 302 328 302c215 0 331 -186 331 -360c0 -172 -116 -360 -331 -360c-193 0 -329 170 -328 372h-144v-263c0 -35 20 -42 51 -42h47v-47h-350v47h47c31 0 51 7 51 42v502c0 35 -20 42 -51 42h-47v47h350v-47h-47c-31 0 -51 -7 -51 -42v-193z
M598 340c0 -127 10 -312 155 -312c146 0 156 186 156 312c0 168 -25 312 -156 312c-113 0 -155 -106 -155 -312z" />
    <glyph glyph-name="afii10049" unicode="&#x42f;" horiz-adv-x="787" 
d="M31 168h47v-18c0 -61 28 -85 49 -85c13 0 41 9 51 78c9 66 17 156 155 194v4c-95 10 -223 49 -223 169c0 112 112 170 266 170h377v-47h-47c-31 0 -51 -7 -51 -42v-502c0 -35 20 -42 51 -42h47v-47h-350v47h47c31 0 51 7 51 42v228h-80c-73 0 -85 -54 -91 -95l-11 -78
c-8 -59 -26 -164 -150 -164c-108 0 -142 104 -138 188zM501 365v212c0 37 -3 52 -39 52h-57c-28 0 -134 -4 -134 -130c0 -129 122 -134 150 -134h80z" />
    <glyph glyph-name="afii10065" unicode="&#x430;" horiz-adv-x="564" 
d="M519 95l24 -17c-33 -57 -72 -95 -127 -95c-42 0 -68 21 -86 58c-61 -39 -98 -58 -162 -58c-94 0 -134 60 -134 106c0 76 70 173 284 189v75c0 20 -7 78 -79 78c-21 0 -59 -11 -59 -29c0 -7 3 -12 6 -18c4 -8 9 -20 9 -33c0 -34 -25 -60 -63 -60c-45 0 -61 36 -61 61
c0 57 63 121 196 121c165 0 186 -102 186 -168v-196c0 -22 -1 -49 19 -49c8 0 27 -1 47 35zM318 132v103c-70 -21 -138 -46 -138 -118c0 -26 2 -74 51 -74c45 0 87 44 87 89z" />
    <glyph glyph-name="afii10066" unicode="&#x431;" horiz-adv-x="537" 
d="M469 693h25c-14 -178 -132 -136 -256 -153c-50 -7 -136 -28 -150 -168h6c40 55 83 101 174 101c134 0 236 -99 235 -238c-2 -127 -81 -252 -237 -252c-98 0 -232 58 -232 280c0 200 71 307 146 348c156 86 212 -23 289 82zM270 30c87 0 87 94 87 202c0 77 -4 101 -8 117
c-14 61 -53 77 -77 77c-78 0 -92 -78 -92 -162c0 -120 -7 -234 90 -234z" />
    <glyph glyph-name="afii10067" unicode="&#x432;" horiz-adv-x="552" 
d="M28 456h298c151 0 159 -80 159 -108c0 -60 -54 -88 -121 -102v-5c113 -16 146 -70 146 -121c0 -44 -33 -120 -160 -120h-322v46h36c24 0 34 8 34 30v304c0 22 -10 30 -34 30h-36v46zM233 260h34c69 0 84 40 84 75c0 69 -47 75 -69 75h-23c-9 0 -26 -3 -26 -21v-129z
M233 220v-149c0 -22 15 -25 29 -25h30c20 0 72 11 72 82c0 63 -20 92 -86 92h-45z" />
    <glyph glyph-name="afii10068" unicode="&#x433;" horiz-adv-x="465" 
d="M28 456h415v-184h-36c-11 47 -11 72 -43 101c-40 38 -76 37 -90 37h-13c-30 -1 -28 -26 -28 -37v-297c0 -22 10 -30 34 -30h36v-46h-275v46h36c24 0 34 8 34 30v304c0 22 -10 30 -34 30h-36v46z" />
    <glyph glyph-name="afii10069" unicode="&#x434;" horiz-adv-x="549" 
d="M68 410v46h453v-46h-41c-24 0 -34 -8 -34 -30v-310c0 -12 7 -28 36 -28h33v-182h-35c-3 145 -105 140 -155 140h-162c-93 0 -127 -76 -128 -140h-35v182h23c45 0 66 13 93 121c16 65 29 151 29 193c0 26 -4 54 -54 54h-23zM133 42h145c11 0 33 4 33 32v310
c0 12 -2 26 -45 26h-35c-44 0 -39 -18 -49 -109c-19 -170 -41 -162 -55 -249v-5c1 -3 3 -5 6 -5z" />
    <glyph glyph-name="afii10070" unicode="&#x435;" horiz-adv-x="502" 
d="M430 148l38 -23c-65 -110 -119 -142 -207 -142c-148 0 -227 118 -227 238c0 130 89 252 228 252c117 0 206 -98 206 -237v-25h-288c-3 -139 59 -170 110 -170c69 0 106 51 140 107zM180 258h128c17 0 16 13 16 43c0 14 2 126 -62 126c-32 0 -82 -20 -82 -127v-42z" />
    <glyph glyph-name="afii10072" unicode="&#x436;" horiz-adv-x="828" 
d="M290 456h247v-46h-22c-24 0 -35 -8 -35 -30v-119h20c59 0 43 18 71 111c12 39 39 100 118 100c53 0 86 -38 86 -88c0 -52 -34 -67 -59 -67c-26 0 -54 18 -54 49c0 17 6 28 12 35c4 4 8 8 8 13s-4 13 -15 13c-19 0 -37 -13 -54 -71c-15 -50 -11 -94 -52 -107v-7
c103 -9 121 -70 126 -109c4 -31 8 -76 36 -76c18 0 33 39 34 72h37c-12 -123 -67 -146 -106 -146c-15 0 -71 2 -97 79c-43 125 -1 157 -90 157h-21v-143c0 -22 11 -30 35 -30h22v-46h-247v46h21c37 0 34 20 34 30v143h-21c-89 0 -47 -32 -90 -157c-26 -77 -82 -79 -97 -79
c-39 0 -94 23 -106 146h37c1 -33 16 -72 34 -72c28 0 32 45 36 76c5 39 23 100 126 109v7c-41 13 -37 57 -52 107c-17 58 -35 71 -54 71c-11 0 -15 -8 -15 -13s4 -9 8 -13c6 -7 12 -18 12 -35c0 -31 -28 -49 -54 -49c-25 0 -59 15 -59 67c0 50 33 88 86 88
c79 0 106 -61 118 -100c28 -93 12 -111 71 -111h20v119c0 10 3 30 -34 30h-21v46z" />
    <glyph glyph-name="afii10073" unicode="&#x437;" horiz-adv-x="475" 
d="M59 305l5 161h31l21 -34c51 39 108 41 139 41c128 0 172 -69 172 -117c0 -65 -69 -103 -133 -108v-6c127 -15 153 -78 153 -119c0 -53 -43 -140 -208 -140c-159 0 -211 86 -211 134c0 33 18 71 67 71c45 0 57 -39 57 -63c0 -6 -2 -12 -5 -18c-6 -12 -26 -26 -26 -37
c0 -13 24 -47 85 -47c46 0 95 15 95 106c0 80 -56 93 -93 93h-38v42h49c9 0 81 0 81 87c0 46 -29 76 -80 76c-76 0 -112 -64 -123 -122h-38z" />
    <glyph glyph-name="afii10074" unicode="&#x438;" horiz-adv-x="620" 
d="M31 456h249v-46h-10c-24 0 -34 -8 -34 -30v-228h3l142 234v3c0 12 -8 21 -34 21h-10v46h249v-46h-36c-24 0 -34 -8 -34 -30v-304c0 -22 10 -30 34 -30h36v-46h-249v46h10c24 0 34 8 34 30v222h-2l-143 -219v-3c0 -22 10 -30 34 -30h10v-46h-249v46h36c24 0 34 8 34 30
v304c0 22 -10 30 -34 30h-36v46z" />
    <glyph glyph-name="afii10075" unicode="&#x439;" horiz-adv-x="620" 
d="M31 456h249v-46h-10c-24 0 -34 -8 -34 -30v-228h3l142 234v3c0 12 -8 21 -34 21h-10v46h249v-46h-36c-24 0 -34 -8 -34 -30v-304c0 -22 10 -30 34 -30h36v-46h-249v46h10c24 0 34 8 34 30v222h-2l-143 -219v-3c0 -22 10 -30 34 -30h10v-46h-249v46h36c24 0 34 8 34 30
v304c0 22 -10 30 -34 30h-36v46zM308 529c-65 0 -155 29 -155 101c0 40 24 60 59 60c30 0 50 -21 50 -49c0 -10 -3 -19 -8 -27s-16 -17 -16 -26c0 -8 9 -27 70 -27c62 0 70 19 70 27c0 11 -10 18 -16 26c-5 7 -7 17 -7 27c0 21 9 34 26 44c40 14 82 -3 82 -55
c0 -65 -78 -101 -155 -101z" />
    <glyph glyph-name="afii10076" unicode="&#x43a;" horiz-adv-x="586" 
d="M25 456h247v-46h-22c-24 0 -34 -8 -34 -30v-119h55c56 0 44 18 70 112c28 101 96 100 118 100c53 0 87 -38 87 -89c0 -25 -14 -67 -60 -67c-29 0 -53 21 -53 49c0 11 3 25 11 35c3 4 8 8 8 13s-3 13 -14 13c-7 0 -35 -1 -55 -71c-14 -48 -11 -93 -52 -107v-7
c50 -4 115 -25 127 -109c3 -23 7 -76 36 -76c22 0 30 42 34 72h36c-1 -82 -44 -146 -105 -146c-91 0 -103 99 -113 163c-9 58 -23 73 -74 73h-56v-143c0 -22 10 -30 34 -30h22v-46h-247v46h22c24 0 34 8 34 30v304c0 22 -10 30 -34 30h-22v46z" />
    <glyph glyph-name="afii10077" unicode="&#x43b;" horiz-adv-x="602" 
d="M117 456h457v-46h-36c-24 0 -34 -8 -34 -30v-304c0 -22 10 -30 34 -30h36v-46h-275v46h36c24 0 34 8 34 30v277c0 56 -16 59 -51 59c-69 0 -58 -34 -66 -176c-8 -148 -22 -253 -121 -253c-78 0 -109 48 -109 92c0 51 34 79 69 79c30 0 59 -20 59 -57c0 -7 -2 -13 -4 -19
c-5 -12 -15 -24 -15 -32c0 -4 8 -6 13 -6c32 0 45 48 47 57c15 62 18 192 18 230c0 35 1 83 -58 83h-34v46z" />
    <glyph glyph-name="afii10078" unicode="&#x43c;" horiz-adv-x="727" 
d="M494 410h-6l-149 -410h-36l-150 410h-7v-334c0 -22 10 -30 34 -30h29v-46h-181v46h36c24 0 34 8 34 30v304c0 22 -10 30 -34 30h-36v46h235l96 -257l4 1l91 256h245v-46h-36c-24 0 -34 -8 -34 -30v-304c0 -22 10 -30 34 -30h36v-46h-275v46h36c24 0 34 8 34 30v334z" />
    <glyph glyph-name="afii10079" unicode="&#x43d;" horiz-adv-x="609" 
d="M28 456h260v-46h-21c-24 0 -34 -8 -34 -30v-116h143v116c0 22 -10 30 -34 30h-22v46h261v-46h-36c-24 0 -34 -8 -34 -30v-304c0 -22 10 -30 34 -30h36v-46h-261v46h22c24 0 34 8 34 30v142h-143v-142c0 -22 10 -30 34 -30h21v-46h-260v46h36c24 0 34 8 34 30v304
c0 22 -10 30 -34 30h-36v46z" />
    <glyph glyph-name="afii10080" unicode="&#x43e;" horiz-adv-x="542" 
d="M34 228c0 155 123 245 237 245c127 0 237 -100 237 -245s-110 -245 -237 -245c-114 0 -237 90 -237 245zM180 228c0 -86 5 -198 91 -198c84 0 91 110 91 198c0 66 -1 198 -91 198c-86 0 -91 -115 -91 -198z" />
    <glyph glyph-name="afii10081" unicode="&#x43f;" horiz-adv-x="617" 
d="M28 456h561v-46h-36c-24 0 -34 -8 -34 -30v-304c0 -22 10 -30 34 -30h36v-46h-254v46h15c24 0 34 8 34 30v304c0 22 -10 30 -34 30h-83c-24 0 -34 -8 -34 -30v-304c0 -22 10 -30 34 -30h15v-46h-254v46h36c24 0 34 8 34 30v304c0 22 -10 30 -34 30h-36v46z" />
    <glyph glyph-name="afii10082" unicode="&#x440;" horiz-adv-x="586" 
d="M28 456c67 4 67 2 107 6c23 2 42 5 92 11v-63h6c23 35 61 63 127 63c53 0 192 -27 192 -254c0 -169 -99 -236 -190 -236c-47 0 -101 20 -129 63h-6l6 -61v-98c0 -22 10 -30 34 -30h36v-46h-275v46h36c24 0 34 8 34 30v490c0 16 -6 33 -29 33h-41v46zM320 409
c-92 0 -90 -155 -90 -183c0 -65 7 -184 90 -184c72 0 86 90 86 184s-14 183 -86 183z" />
    <glyph glyph-name="afii10083" unicode="&#x441;" horiz-adv-x="485" 
d="M425 157l38 -14c-45 -132 -121 -160 -192 -160c-136 0 -237 95 -237 248c0 135 96 242 237 242c93 0 168 -56 168 -132c0 -34 -21 -73 -72 -73c-43 0 -67 29 -67 58c0 24 11 47 32 61c9 6 16 9 16 19s-18 30 -60 30c-91 0 -108 -109 -108 -205c0 -100 21 -195 117 -195
c69 0 106 59 128 121z" />
    <glyph glyph-name="afii10084" unicode="&#x442;" horiz-adv-x="503" 
d="M28 456h447v-181h-40c-1 76 -66 135 -102 136h-5c-8 0 -9 0 -9 -11v-324c0 -22 10 -30 34 -30h36v-46h-275v46h36c24 0 34 8 34 30v324c0 9 -2 11 -8 11h-6c-50 -3 -101 -75 -102 -136h-40v181z" />
    <glyph glyph-name="afii10085" unicode="&#x443;" horiz-adv-x="530" 
d="M14 456h248v-46h-24c-15 0 -26 -8 -26 -21c0 -9 2 -15 5 -21l97 -216h5l81 201c4 9 5 21 5 29c0 23 -19 28 -31 28h-29v46h179v-46c-46 -2 -57 -30 -68 -56l-185 -447c-20 -48 -44 -103 -128 -103c-65 0 -101 42 -101 85c0 69 36 83 58 83c23 0 62 -10 62 -61
c0 -11 -3 -16 -6 -23c-5 -11 -8 -16 -8 -21c0 -3 2 -14 20 -14c28 0 41 40 47 54l40 95l-181 366c-10 20 -24 42 -54 42h-6v46z" />
    <glyph glyph-name="afii10086" unicode="&#x444;" horiz-adv-x="771" 
d="M249 604v47c72 1 140 4 204 10v-251h2c30 42 77 63 114 63c79 0 168 -92 168 -240c0 -188 -98 -250 -169 -250c-48 0 -82 23 -112 53h-3v-145c0 -30 14 -38 25 -38h45v-46h-274v46h44c11 0 25 8 25 38v145h-3c-33 -32 -63 -53 -112 -53c-66 0 -169 62 -169 250
c0 147 87 240 169 240c54 0 94 -39 114 -63h1v148c0 37 -7 46 -35 46h-34zM318 182v80c0 15 -1 70 -8 98c-9 33 -31 53 -60 53c-66 0 -70 -107 -70 -180c0 -134 22 -190 70 -190c25 0 68 17 68 139zM453 262v-55c0 -70 3 -164 69 -164c69 0 69 113 69 190
c0 85 -8 180 -70 180c-29 0 -52 -21 -60 -53c-1 -4 -8 -33 -8 -98z" />
    <glyph glyph-name="afii10087" unicode="&#x445;" horiz-adv-x="588" 
d="M37 410v46h256v-46h-23c-8 0 -18 -5 -18 -18s5 -18 10 -25l54 -79h6l51 67c10 13 14 21 14 32c0 13 -10 23 -23 23h-15v46h187v-46h-13c-29 0 -64 -26 -79 -44l-87 -107l127 -160c22 -28 44 -48 82 -53v-46h-272v46h32c17 0 17 14 17 16c0 9 -1 11 -13 28l-66 97h-6
l-77 -94c-12 -15 -14 -22 -14 -27c0 -9 6 -20 22 -20h34v-46h-189v46c34 0 61 17 86 47l100 123l-120 150c-12 15 -30 40 -63 44z" />
    <glyph glyph-name="afii10088" unicode="&#x446;" horiz-adv-x="628" 
d="M28 456h253v-46h-14c-24 0 -34 -8 -34 -30v-304c0 -22 10 -30 34 -30h82c24 0 34 8 34 30v304c0 22 -10 30 -34 30h-14v46h253v-46h-36c-24 0 -34 -8 -34 -30v-304c0 -22 10 -30 34 -30h51v-197h-48c-10 132 -56 151 -174 151h-353v46h36c24 0 34 8 34 30v304
c0 22 -10 30 -34 30h-36v46z" />
    <glyph glyph-name="afii10089" unicode="&#x447;" horiz-adv-x="578" 
d="M7 456h251v-46h-12c-24 0 -34 -8 -34 -30v-98c0 -51 15 -74 61 -74c24 0 52 7 72 16v156c0 22 -10 30 -34 30h-14v46h253v-46h-36c-24 0 -34 -8 -34 -30v-304c0 -22 10 -30 34 -30h36v-46h-274v46h35c26 0 34 8 34 30v103c-59 -21 -96 -26 -119 -26
c-116 0 -149 52 -149 116v111c0 22 -10 30 -34 30h-36v46z" />
    <glyph glyph-name="afii10090" unicode="&#x448;" horiz-adv-x="874" 
d="M28 456h253v-46h-14c-24 0 -34 -8 -34 -30v-304c0 -22 10 -30 34 -30h68c24 0 34 8 34 30v304c0 22 -10 30 -34 30h-15v46h232v-46h-14c-24 0 -34 -8 -34 -30v-304c0 -22 10 -30 34 -30h68c24 0 34 8 34 30v304c0 22 -10 30 -34 30h-14v46h254v-46h-37
c-24 0 -34 -8 -34 -30v-304c0 -22 10 -30 34 -30h37v-46h-818v46h36c24 0 34 8 34 30v304c0 22 -10 30 -34 30h-36v46z" />
    <glyph glyph-name="afii10091" unicode="&#x449;" horiz-adv-x="874" 
d="M28 456h253v-46h-14c-24 0 -34 -8 -34 -30v-304c0 -22 10 -30 34 -30h68c24 0 34 8 34 30v304c0 22 -10 30 -34 30h-15v46h232v-46h-14c-24 0 -34 -8 -34 -30v-304c0 -22 10 -30 34 -30h68c24 0 34 8 34 30v304c0 22 -10 30 -34 30h-14v46h254v-46h-37
c-24 0 -34 -8 -34 -30v-304c0 -22 10 -30 34 -30h49v-199h-47c-14 105 -35 153 -146 153h-637v46h36c24 0 34 8 34 30v304c0 22 -10 30 -34 30h-36v46z" />
    <glyph glyph-name="afii10092" unicode="&#x44a;" horiz-adv-x="645" 
d="M31 272v184h397v-46h-36c-24 0 -34 -8 -34 -30v-115h93c57 0 172 -22 172 -134c0 -43 -23 -131 -189 -131h-281v46h36c24 0 34 8 34 30v297c0 29 -23 32 -37 32c-32 0 -55 -13 -78 -37c-12 -11 -34 -36 -40 -96h-37zM358 218v-154c0 -19 15 -22 35 -22h17c9 0 27 4 41 16
c18 15 26 47 26 74c0 59 -35 86 -69 86h-50z" />
    <glyph glyph-name="afii10093" unicode="&#x44b;" horiz-adv-x="806" 
d="M28 456h275v-46h-36c-24 0 -34 -8 -34 -30v-115h94c53 0 171 -22 171 -134c0 -42 -25 -131 -189 -131h-281v46h36c24 0 34 8 34 30v304c0 22 -10 30 -34 30h-36v46zM233 218v-150c0 -18 15 -22 31 -22h18c8 0 28 3 44 16c18 15 26 48 26 74c0 70 -50 82 -68 82h-51z
M503 456h275v-46h-36c-24 0 -34 -8 -34 -30v-304c0 -22 10 -30 34 -30h36v-46h-275v46h36c24 0 34 8 34 30v304c0 22 -10 30 -34 30h-36v46z" />
    <glyph glyph-name="afii10094" unicode="&#x44c;" horiz-adv-x="520" 
d="M28 456h275v-46h-36c-24 0 -34 -8 -34 -30v-115h94c53 0 171 -22 171 -134c0 -42 -25 -131 -189 -131h-281v46h36c24 0 34 8 34 30v304c0 22 -10 30 -34 30h-36v46zM233 218v-150c0 -18 15 -22 31 -22h18c8 0 28 3 44 16c18 15 26 48 26 74c0 70 -50 82 -68 82h-51z" />
    <glyph glyph-name="afii10095" unicode="&#x44d;" horiz-adv-x="477" 
d="M82 297h-36v159h32l16 -31h1c30 16 62 48 137 48c119 0 211 -99 211 -223c0 -177 -114 -267 -241 -267c-102 0 -174 62 -174 131c0 42 31 62 59 62c29 0 55 -23 55 -55c0 -4 0 -9 -1 -13c-4 -25 -23 -32 -23 -47c0 -16 27 -39 71 -39c27 0 66 9 89 63c15 35 16 60 19 127
h-143v47h143v49c0 29 -9 119 -87 119c-50 0 -112 -36 -128 -130z" />
    <glyph glyph-name="afii10096" unicode="&#x44e;" horiz-adv-x="824" 
d="M22 456h261v-46h-22c-24 0 -34 -8 -34 -30v-116h101c12 115 112 209 234 209c114 0 237 -90 237 -245s-123 -245 -237 -245c-128 0 -233 103 -237 235h-98v-142c0 -22 10 -30 34 -30h22v-46h-261v46h36c24 0 34 8 34 30v304c0 22 -10 30 -34 30h-36v46zM471 228
c0 -90 4 -198 91 -198c83 0 91 95 91 198c0 84 -5 198 -91 198s-91 -114 -91 -198z" />
    <glyph glyph-name="afii10097" unicode="&#x44f;" horiz-adv-x="599" 
d="M34 116h33c4 -51 22 -66 36 -66c54 0 -12 136 134 164v6c-4 0 -65 0 -109 30c-46 31 -46 70 -46 93c0 33 11 113 190 113h299v-46h-36c-24 0 -34 -8 -34 -30v-304c0 -22 10 -30 34 -30h36v-46h-275v46h36c24 0 34 8 34 30v124h-64c-35 0 -50 -26 -58 -65
c-11 -54 -17 -152 -108 -152c-28 0 -96 15 -102 133zM366 237v145c0 11 0 32 -26 32h-21c-19 0 -87 1 -92 -86v-13c5 -67 60 -78 75 -78h64z" />
    <glyph glyph-name="Euro" unicode="&#x20ac;" horiz-adv-x="580" 
d="M534 549h-25c-11 69 -55 98 -116 98c-96 0 -134 -89 -146 -232h233l-21 -49h-213c-1 -10 -1 -22 -1 -31v-32h188l-20 -49h-166c9 -142 60 -221 147 -221c55 0 104 28 115 96h25l-7 -96c-29 -30 -73 -52 -170 -52c-167 0 -249 97 -268 273h-71l21 49h43c-1 10 -1 25 -1 34
c0 7 0 20 1 29h-64l21 49h47c21 179 95 285 271 285c101 0 146 -26 170 -51z" />
    </font>
</defs>
</svg>
