<?xml version="1.0" encoding="utf-8"?>

<svg version="1.1" id="Layer_1" xmlns="http://www.w3.org/2000/svg" xmlns:xlink="http://www.w3.org/1999/xlink" x="0px" y="0px"
	 viewBox="0 0 100 100" style="enable-background:new 0 0 100 100;" xml:space="preserve">
<style type="text/css">
	.st0{fill:#ffd8b8;}
	.st1{fill-rule:evenodd;clip-rule:evenodd;fill:#ffd8b8;}
</style>
<path class="st0" d="M95,20.6c-3.3,1.5-6.9,2.5-10.6,2.9c3.8-2.3,6.7-5.9,8.1-10.2C89,15.5,85,17,80.8,17.8
	c-3.4-3.6-8.1-5.8-13.4-5.8C57.2,12,49,20.3,49,30.4c0,1.4,0.2,2.8,0.5,4.2c-15.3-0.8-28.9-8.1-38-19.2C9.9,18.1,9,21.3,9,24.6
	c0,6.4,3.3,12,8.2,15.3c-3-0.1-5.9-0.9-8.3-2.3c0,0.1,0,0.2,0,0.2c0,8.9,6.3,16.4,14.8,18.1c-1.5,0.4-3.2,0.6-4.9,0.6
	c-1.2,0-2.3-0.1-3.5-0.3c2.3,7.3,9.1,12.6,17.2,12.8c-6.3,4.9-14.2,7.9-22.9,7.9c-1.5,0-3-0.1-4.4-0.3c8.1,5.2,17.8,8.3,28.2,8.3
	c33.9,0,52.4-28.1,52.4-52.4c0-0.8,0-1.6-0.1-2.4C89.4,27.6,92.5,24.3,95,20.6L95,20.6z"/>
</svg>
