<?xml version="1.0" encoding="utf-8"?>
<!-- Generator: Adobe Illustrator 21.0.0, SVG Export Plug-In . SVG Version: 6.00 Build 0)  -->
<svg version="1.1" id="Layer_1" xmlns="http://www.w3.org/2000/svg" xmlns:xlink="http://www.w3.org/1999/xlink" x="0px" y="0px"
	 viewBox="0 0 100 100" style="enable-background:new 0 0 100 100;" xml:space="preserve">
<style type="text/css">
	.st0{fill:#FFFFFF;}
	.st1{fill-rule:evenodd;clip-rule:evenodd;fill:#FFFFFF;}
</style>
<path class="st1" d="M20.4,6.8h61c5.8,0,10.5,4.7,10.5,10.5v61C92,84.2,87.3,89,81.5,89h-61c-5.8,0-10.5-4.7-10.5-10.5v-61
	C9.9,11.6,14.6,6.8,20.4,6.8L20.4,6.8z M69.7,15.9L69.7,15.9c-2,0-3.7,1.7-3.7,3.7v8.9c0,2,1.7,3.7,3.7,3.7H79c2,0,3.7-1.7,3.7-3.7
	v-8.9c0-2-1.7-3.7-3.7-3.7H69.7L69.7,15.9z M82.7,41.6L82.7,41.6h-7.2c0.7,2.2,1.1,4.6,1.1,7c0,13.7-11.4,24.7-25.5,24.7
	c-14.1,0-25.5-11.1-25.5-24.7c0-2.4,0.4-4.8,1.1-7H19v34.7c0,1.8,1.5,3.3,3.3,3.3h57.2c1.8,0,3.3-1.5,3.3-3.3V41.6L82.7,41.6z
	 M51,31.7L51,31.7c-9.1,0-16.5,7.2-16.5,16c0,8.8,7.4,16,16.5,16c9.1,0,16.5-7.2,16.5-16C67.5,38.9,60.1,31.7,51,31.7L51,31.7z"/>
</svg>
