<?xml version="1.0" encoding="utf-8"?>

<svg version="1.1" id="Layer_1" xmlns="http://www.w3.org/2000/svg" xmlns:xlink="http://www.w3.org/1999/xlink" x="0px" y="0px"
	 viewBox="0 0 100 100" style="enable-background:new 0 0 100 100;" xml:space="preserve">
<style type="text/css">
	.st0{fill:#ffd8b8;;}
	.st1{fill-rule:evenodd;clip-rule:evenodd;fill:#ffd8b8;;}
</style>
<polygon class="st0" points="41.3,1 34.3,1 30,18.8 29.6,18.8 25.1,1 18.2,1 18.2,1 26.4,27.9 26.4,45.5 33.3,45.5 33.3,27.1 
	41.3,1 "/>
<path class="st0" d="M43.4,43.9c1.6,1.6,3.7,2.5,6.4,2.5h0.1c2.8,0,4.9-0.8,6.5-2.4c1.6-1.6,2.4-3.8,2.4-6.6v-17
	c0-2.5-0.8-4.5-2.4-6.1c-1.6-1.6-3.7-2.4-6.2-2.4c-2.8,0-5,0.8-6.6,2.3c-1.6,1.5-2.5,3.5-2.5,6.1l0,17C41,40,41.8,42.2,43.4,43.9
	L43.4,43.9z M47.2,19.9L47.2,19.9c0-0.7,0.2-1.3,0.7-1.7c0.5-0.4,1.1-0.7,1.8-0.7c0.8,0,1.5,0.2,2,0.7c0.5,0.4,0.7,1,0.7,1.7v17.9
	c0,0.9-0.2,1.6-0.7,2.1c-0.5,0.5-1.1,0.8-2,0.8c-0.8,0-1.4-0.2-1.9-0.7c-0.4-0.5-0.7-1.2-0.7-2.1V19.9L47.2,19.9z"/>
<path class="st0" d="M75.2,12.7v24.9c-0.6,0.7-1.2,1.3-1.9,1.8c-0.7,0.5-1.3,0.7-1.7,0.7c-0.6,0-1-0.2-1.2-0.5
	c-0.3-0.3-0.4-0.9-0.4-1.7V12.7h-6.1v27.5c0,2,0.4,3.4,1.1,4.4c0.7,1,1.8,1.5,3.2,1.5c1.1,0,2.3-0.3,3.5-1c1.2-0.7,2.4-1.7,3.5-3.1
	v3.6h6.1V12.7H75.2L75.2,12.7z"/>
<g>
	<path class="st0" d="M73.4,69.5c-0.7,0-1.1,0.2-1.4,0.6c-0.3,0.4-0.4,1.1-0.4,2v2.3h3.7v-2.3c0-0.9-0.1-1.6-0.4-2
		C74.5,69.7,74,69.5,73.4,69.5z"/>
	<path class="st0" d="M84.5,60.9c0-5.4-4.5-9.8-9.9-9.8c-7.4-0.3-15-0.5-22.8-0.5c-0.4,0-0.8,0-1.2,0c-0.4,0-0.8,0-1.2,0
		c-7.8,0-15.4,0.1-22.8,0.5c-5.5,0-9.9,4.4-9.9,9.8c-0.3,4.3-0.5,8.6-0.5,12.9c0,4.3,0.1,8.6,0.5,12.9c0,5.4,4.5,9.8,9.9,9.8
		C34,96.9,41.7,97,49.5,97c0.4,0,0.7,0,1.1,0c0.4,0,0.7,0,1.1,0c7.8,0,15.4-0.1,22.9-0.5c5.5,0,9.9-4.4,9.9-9.8
		c0.3-4.3,0.5-8.6,0.5-12.9C85,69.5,84.9,65.2,84.5,60.9z M31.2,88.6h-4.7v-26h-4.9v-4.4h14.4v4.4h-4.9V88.6z M48,88.6h-4.2v-2.5
		c-0.8,0.9-1.6,1.6-2.4,2.1c-0.8,0.5-1.6,0.7-2.4,0.7c-1,0-1.7-0.3-2.2-1c-0.5-0.7-0.7-1.7-0.7-3V66.2h4.2v17.2
		c0,0.5,0.1,0.9,0.3,1.2c0.2,0.2,0.5,0.4,0.8,0.4c0.3,0,0.7-0.2,1.2-0.5c0.5-0.3,0.9-0.7,1.3-1.2V66.2H48V88.6z M64,84
		c0,1.6-0.3,2.8-1,3.7c-0.7,0.8-1.6,1.3-2.8,1.3c-0.8,0-1.5-0.2-2.2-0.5c-0.6-0.3-1.2-0.8-1.8-1.5v1.7H52V58.2h4.2V68
		c0.6-0.7,1.2-1.2,1.8-1.6c0.6-0.4,1.3-0.5,1.9-0.5c1.3,0,2.3,0.5,3,1.4c0.7,1,1,2.4,1,4.2V84z M79.5,77.9h-8v4.2
		c0,1.2,0.1,2,0.4,2.5c0.3,0.5,0.7,0.7,1.4,0.7c0.7,0,1.2-0.2,1.5-0.6c0.3-0.4,0.4-1.2,0.4-2.6v-1.6h4.3v1.7c0,2.3-0.5,4-1.6,5.2
		c-1,1.2-2.6,1.7-4.7,1.7c-1.9,0-3.3-0.6-4.4-1.9c-1.1-1.2-1.6-2.9-1.6-5.1V72.2c0-2,0.6-3.5,1.8-4.8c1.2-1.2,2.7-1.8,4.6-1.8
		c1.9,0,3.4,0.6,4.4,1.7c1,1.1,1.5,2.8,1.5,4.9V77.9z"/>
	<path class="st0" d="M58,69.4c-0.3,0-0.6,0.1-0.9,0.2c-0.3,0.1-0.6,0.4-0.9,0.7v14c0.3,0.4,0.7,0.6,1,0.8c0.3,0.2,0.7,0.2,1,0.2
		c0.5,0,0.9-0.2,1.1-0.5c0.2-0.3,0.4-0.8,0.4-1.5V71.8c0-0.8-0.1-1.3-0.4-1.7C59,69.6,58.6,69.4,58,69.4z"/>
</g>
</svg>
