<?xml version="1.0" encoding="utf-8"?>
<!-- Generator: Adobe Illustrator 21.0.0, SVG Export Plug-In . SVG Version: 6.00 Build 0)  -->
<svg version="1.1" id="Layer_1" xmlns="http://www.w3.org/2000/svg" xmlns:xlink="http://www.w3.org/1999/xlink" x="0px" y="0px"
	 viewBox="0 0 100 100" style="enable-background:new 0 0 100 100;" xml:space="preserve">
<style type="text/css">
	.st0{fill:#ffd8b8;}
	.st1{fill-rule:evenodd;clip-rule:evenodd;fill:#ffd8b8;}
</style>
<polygon class="st0" points="95,28.4 79.6,28.4 79.6,13 75.8,13 75.8,28.4 60.4,28.4 60.4,32.2 75.8,32.2 75.8,47.6 79.6,47.6 
	79.6,32.2 95,32.2 95,28.4 "/>
<path class="st0" d="M43.6,57.1c-2.1-1.5-6.2-5.2-6.2-7.4c0-2.5,0.7-3.8,4.6-6.8c3.9-3.1,6.7-7.4,6.7-12.4c0-6-2.7-11.8-7.7-13.7
	h7.5l5.3-3.8c0,0-17.8,0-23.7,0C19.4,13,9.4,21.1,9.4,30.4c0,9.5,7.3,17.2,18.1,17.2c0.8,0,1.5,0,2.2-0.1c-0.7,1.3-1.2,2.9-1.2,4.4
	c0,2.7,1.4,4.8,3.2,6.6c-1.4,0-2.7,0-4.1,0C14.4,58.6,4.3,67,4.3,75.7c0,8.6,11.1,13.9,24.3,13.9c15,0,23.3-8.5,23.3-17.1
	C51.9,65.7,49.9,61.6,43.6,57.1L43.6,57.1z M30.9,45.2L30.9,45.2c-6.1-0.2-11.9-6.8-13-14.9c-1.1-8,3-14.2,9.2-14
	C33.2,16.6,39,23,40.1,31C41.1,39.1,37,45.4,30.9,45.2L30.9,45.2z M28.5,85.9L28.5,85.9c-9.1,0-15.7-5.8-15.7-12.7
	c0-6.8,8.2-12.4,17.3-12.3c2.1,0,4.1,0.4,5.9,0.9c4.9,3.4,8.5,5.4,9.5,9.3c0.2,0.8,0.3,1.6,0.3,2.4C45.8,80.5,41.3,85.9,28.5,85.9
	L28.5,85.9z"/>
</svg>
