<?xml version="1.0" encoding="utf-8"?>

<svg version="1.1" id="Layer_1" xmlns="http://www.w3.org/2000/svg" xmlns:xlink="http://www.w3.org/1999/xlink" x="0px" y="0px"
	 viewBox="0 0 100 100" style="enable-background:new 0 0 100 100;" xml:space="preserve">
<style type="text/css">
	.st0{fill:#ffd8b8;}
	.st1{fill-rule:evenodd;clip-rule:evenodd;fill:#ffd8b8;}
</style>
<path class="st0" d="M81.8,49c0,0,12.6-17.8,13.9-23.7c0.4-2.1-0.5-3.3-2.7-3.3c0,0-7.3,0-11,0c-2.5,0-3.4,1.1-4.2,2.7
	c0,0-5.9,12.6-13.1,20.6c-2.3,2.6-3.5,3.3-4.8,3.3c-1,0-1.5-0.9-1.5-3.2V25.1c0-2.8-0.3-3.7-2.7-3.7H38.1c-1.3,0-2.2,0.8-2.2,1.8
	c0,2.7,4.1,3.3,4.1,10.6v15c0,3-0.2,4.2-1.6,4.2c-3.8,0-12.7-13-17.8-27.7c-1-3-2.1-3.9-4.9-3.9h-11c-1.6,0-2.8,1.1-2.8,2.7
	C2,27,5.5,40.6,19,58.8C28,71,39.9,77.6,50.6,77.6c6.5,0,8.1-1.1,8.1-3.9v-9.4c0-2.3,0.9-3.3,2.3-3.3c1.5,0,4.2,0.5,10.4,6.6
	c7.4,7,7.9,10,11.9,10h12.3c1.3,0,2.4-0.6,2.4-2.7c0-2.8-3.6-7.7-9.1-13.6c-2.3-3-5.9-6.3-7.1-7.8C80.1,51.8,80.6,50.8,81.8,49z"/>
</svg>
